<svg xmlns="http://www.w3.org/2000/svg" fill="none" viewBox="0 0 46 30"><g clip-path="url(#a)"><path fill="#F0F0F0" d="M46-.333H0v30.667h46z"/><path fill="#F0F0F0" d="M46-.333H0v30.667h46z"/><path fill="#D80027" d="M27.066 15 46 2.377v-2.71h-4.066L23 12.288 4.066-.334H0v2.71L18.934 15 0 27.622v2.71h4.066L23 17.71l18.934 12.623H46v-2.71z"/><path fill="#FFDA44" d="m21 7 2 .5 2-.5V5.3l-.8.4L23 4.5l-1.2 1.2-.8-.4z"/><path fill="#D80027" d="M21 7v1.25c0 1.53 2 2 2 2s2-.47 2-2V7z"/></g><defs><clipPath id="a"><path fill="#fff" d="M0 0h46v30H0z"/></clipPath></defs></svg>