<svg xmlns="http://www.w3.org/2000/svg" fill="none" viewBox="0 0 46 30"><g clip-path="url(#a)"><path fill="#0052B4" d="M46-.334H0v30.666h46z"/><path fill="#A2001D" d="M46-.334H29.667v30.667H46zM16.333-.334H0v30.667h16.333z"/><path fill="#FFDA44" d="M11.5 16h-1.333v5.333H11.5zM6.166 16H4.833v5.333h1.333zM8.167 19.333a1.333 1.333 0 1 0 0-2.667 1.333 1.333 0 0 0 0 2.667M8.167 14a.667.667 0 1 0 0-1.334.667.667 0 0 0 0 1.333M9.5 20H6.833v1.333H9.5zM9.5 14.666H6.833V16H9.5zM8.167 8.666l.472 1.453h1.527l-1.235.898.471 1.453-1.235-.898-1.236.898.471-1.453-1.235-.898h1.527z"/></g><defs><clipPath id="a"><path fill="#fff" d="M0 0h46v30H0z"/></clipPath></defs></svg>