<svg xmlns="http://www.w3.org/2000/svg" fill="none" viewBox="0 0 46 30"><g clip-path="url(#a)"><path fill="#D80027" d="M46-.334H0v30.667h46z"/><path fill="#FFDA44" d="m16.075 9.031 1.317 4.053h4.261l-3.447 2.505 1.317 4.052-3.448-2.504-3.447 2.504 1.316-4.052-3.447-2.505h4.261zM24.375 22.51l-1.293-.94-1.293.94.494-1.52-1.293-.939h1.598l.494-1.52.494 1.52h1.597l-1.292.94zM27.747 17.868h-1.598l-.494 1.52-.494-1.52h-1.598l1.293-.939-.494-1.52 1.293.94 1.293-.94-.494 1.52zM27.747 12.13l-1.293.94.494 1.52-1.293-.94-1.293.94.494-1.52-1.293-.94h1.599l.493-1.52.494 1.52zM24.375 7.489l-.494 1.52 1.293.939h-1.598l-.494 1.52-.494-1.52H20.99l1.293-.94-.494-1.52 1.293.94z"/></g><defs><clipPath id="a"><path fill="#fff" d="M0 0h46v30H0z"/></clipPath></defs></svg>