<svg xmlns="http://www.w3.org/2000/svg" fill="none" viewBox="0 0 46 30"><g clip-path="url(#a)"><path fill="#F0F0F0" d="M46-.333H0v30.666h46z"/><path fill="#0052B4" d="M0 30.333V-.333l25.194 15.7H7.87l16.493 14.966z"/><path fill="#D80027" d="M21.99 14.45.917 1.319v28.099h21.075L5.498 14.45z"/><path fill="#F0F0F0" d="m8.805 21.148-1.31-.616.697-1.27-1.423.272-.18-1.438-.992 1.058-.991-1.058-.18 1.438-1.424-.272.698 1.27-1.311.616 1.31.617-.697 1.27 1.423-.273.18 1.438.992-1.058.991 1.058.18-1.438 1.424.272-.698-1.27zM7.93 9.22l-.953-.449.508-.923-1.036.198L6.32 7l-.722.77L4.876 7l-.131 1.046-1.036-.198.508.923-.953.449 2.333.466z"/><path fill="#F0F0F0" d="M8.397 9.22a2.8 2.8 0 1 1-5.6 0"/></g><defs><clipPath id="a"><path fill="#fff" d="M0 0h46v30H0z"/></clipPath></defs></svg>