<svg xmlns="http://www.w3.org/2000/svg" fill="none" viewBox="0 0 46 30"><g clip-path="url(#a)"><path fill="#D80027" d="M46-.334H0v30.667h46z"/><path fill="#0052B4" d="M23-.334H0V15h23z"/><path fill="#F0F0F0" d="m14.867 8.333.249.764h.803l-.65.472.248.763-.65-.472-.65.473.249-.764-.65-.472h.803zM10.833 2.333l.414 1.273h1.338l-1.083.787.414 1.273-1.083-.787-1.083.787.414-1.273-1.083-.787h1.338zM14.833 3.666l.414 1.273h1.339l-1.083.787.413 1.273-1.083-.787L13.75 7l.414-1.273-1.083-.787h1.338zM11.671 9l.414 1.273h1.339l-1.083.786.413 1.274-1.083-.787-1.083.787.414-1.274-1.083-.786h1.338zM8.166 5.666l.414 1.273h1.339l-1.083.787.413 1.273-1.083-.787L7.083 9l.414-1.273-1.083-.787h1.338z"/></g><defs><clipPath id="a"><path fill="#fff" d="M0 0h46v30H0z"/></clipPath></defs></svg>