<svg xmlns="http://www.w3.org/2000/svg" fill="none" viewBox="0 0 46 30"><g clip-path="url(#a)"><path fill="#A2001D" d="M46-.333H0v30.666h46z"/><path fill="#0052B4" d="M46-.333v14.976l-46 .373V-.334z"/><path fill="#F0F0F0" d="M28.333 19 23 18.334 17.667 19v-8h10.666z"/><path fill="#0052B4" d="M23 18.334A2.667 2.667 0 1 0 23 13a2.667 2.667 0 0 0 0 5.333"/><path fill="#A2001D" d="M23 17a1.333 1.333 0 1 0 0-2.666A1.333 1.333 0 0 0 23 17"/><path fill="#6DA544" d="M21 12.333h4l-2 2z"/><path fill="#FFDA44" d="M23.666 13.667h-1.333v4h1.333z"/><path fill="#6DA544" d="M25.134 17.267h-4.267L17.667 19h10.666z"/></g><defs><clipPath id="a"><path fill="#fff" d="M0 0h46v30H0z"/></clipPath></defs></svg>