<svg xmlns="http://www.w3.org/2000/svg" fill="none" viewBox="0 0 46 30"><g clip-path="url(#a)"><path fill="#338AF3" d="M46-.334H0v30.667h46z"/><path fill="#FFDA44" d="M46 15H0v7.332h46z"/><path fill="#496E2D" d="M46 22.332H0v8h46z"/><path fill="#FFDA44" d="m25 8.64 1.873.88-.998 1.814 2.034-.389.258 2.054 1.416-1.51 1.416 1.51.258-2.054 2.033.39-.997-1.814 1.873-.881-1.873-.881.997-1.814-2.033.39-.258-2.055-1.416 1.511-1.416-1.51-.258 2.053-2.034-.389.998 1.814z"/></g><defs><clipPath id="a"><path fill="#fff" d="M0 0h46v30H0z"/></clipPath></defs></svg>