<svg xmlns="http://www.w3.org/2000/svg" fill="none" viewBox="0 0 46 30"><g clip-path="url(#a)"><path fill="#000" d="M46-.333H0v30.667h46z"/><path fill="#FFDA44" d="M46 4.057H0v4.39h46zM46 21.619H0v4.39h46z"/><path fill="#6DA544" d="M46-.333H0v4.39h46z"/><path fill="#D80027" d="M46 8.448H0v4.39h46zM46 17.229H0v4.39h46z"/><path fill="#6DA544" d="M46 26.01H0v4.323h46z"/><path fill="#F0F0F0" d="M24.886 15 9.553 30.333H0V-.334h9.553z"/><path fill="#000" d="M23 15 7.667 30.333h1.885L24.885 15 9.552-.335H7.667z"/><path fill="#D80027" d="m9.206 10.2 1.191 3.666h3.856l-3.12 2.267 1.192 3.667-3.12-2.267L6.087 19.8l1.192-3.667-3.12-2.267h3.856z"/><path fill="#FFDA44" d="m12.483 15.3-3.105-1.1s-.23-2.153-.244-2.225a1.2 1.2 0 1 0-2.335.542l-.87.876h1.548c0 1.607-1.2 1.607-1.2 3.207l.666 1.6h4l.667-1.6q.098-.232.123-.47c.575-.233.75-.83.75-.83"/></g><defs><clipPath id="a"><path fill="#fff" d="M0 0h46v30H0z"/></clipPath></defs></svg>