<svg xmlns="http://www.w3.org/2000/svg" fill="none" viewBox="0 0 46 30"><g clip-path="url(#a)"><path fill="#F0F0F0" d="M46-.333H0v30.666h46z"/><path fill="#6DA544" d="M46-.333H0V9.889h46z"/><path fill="#D80027" d="M46 20.111H0v10.222h46z"/><path fill="#0052B4" d="M23 15 0 30.334V-.334z"/><path fill="#DEDDE0" d="M25.139 11.74v3.992c0 2.446 3.194 3.195 3.194 3.195s3.195-.75 3.195-3.194v-3.994z"/><path fill="#786145" d="M29.132 15.014h-1.597v2.316h1.597z"/><path fill="#6DA544" d="M29.93 14.135a1.597 1.597 0 0 0-3.194 0 .798.798 0 1 0 0 1.598h3.194a.799.799 0 1 0 0-1.598"/></g><defs><clipPath id="a"><path fill="#fff" d="M0 0h46v30H0z"/></clipPath></defs></svg>