<svg xmlns="http://www.w3.org/2000/svg" fill="none" viewBox="0 0 46 30"><g clip-path="url(#a)"><path fill="#6DA544" d="M46-.333H0v30.667h46z"/><path fill="#FFDA44" d="M23 6.526 34.5 15 23 23.473 11.5 15z"/><path fill="#F0F0F0" d="M23 19.842a4.842 4.842 0 1 0 0-9.684 4.842 4.842 0 0 0 0 9.684"/><path fill="#0052B4" d="M20.579 14.697c-.842 0-1.655.128-2.42.366a4.841 4.841 0 0 0 8.806 2.714 8.16 8.16 0 0 0-6.386-3.08M27.752 15.927q.09-.45.09-.928a4.842 4.842 0 0 0-9.292-1.91 10 10 0 0 1 2.029-.208 9.96 9.96 0 0 1 7.173 3.046"/></g><defs><clipPath id="a"><path fill="#fff" d="M0 0h46v30H0z"/></clipPath></defs></svg>