<svg xmlns="http://www.w3.org/2000/svg" fill="none" viewBox="0 0 46 30"><g clip-path="url(#a)"><path fill="#FFDA44" d="M0-.334v30.667h46V-.334zm44 28.667H20V1.666h24z"/><path fill="#A2001D" d="M44 1.667H20v26.667h24z"/><path fill="#D80027" d="M20 1.667H2v26.667h18z"/><path fill="#FFDA44" d="M20-.333h-2v30.667h2z"/><path fill="#6DA544" d="M10 1.667H2v26.667h8z"/><path fill="#FF9811" d="M18 1.667h-8v26.667h8z"/><path fill="#FFDA44" d="M32.225 14.5v-4c0-.667-1-1.334-1-1.334s-1 .667-1 1.334h-4v4h2v2c0 .438.088.857.248 1.237l-.915.763h-2.666V6.166a2 2 0 0 0-2 2v8.667c0 .592.257 1.124.666 1.49V21.5h1.334v-1.667h6V22.5h-1.334v1.333h2.667v-2.667l1.222-1.333h3.979V22.5h-1.334v1.333h2.667v-2.667l1.222-1.333 1.127-3.617-.991-1.716h-3.5c-1.272-.01-3.65.008-4.392 0"/><path fill="#FFDA44" d="M33.292 11.033V13.3h6.425v1.2h.4v-1.6h-6.425v-1.467h6.825v-.4zM22 1.667h-2v2h2zM44 1.667h-2v2h2zM22 26.333h-2v2h2zM44 26.333h-2v2h2z"/></g><defs><clipPath id="a"><path fill="#fff" d="M0 0h46v30H0z"/></clipPath></defs></svg>