<?xml version="1.0" encoding="iso-8859-1"?>
<!-- Generator: Adobe Illustrator 19.0.0, SVG Export Plug-In . SVG Version: 6.00 Build 0)  -->
<svg version="1.1" id="Capa_1" xmlns="http://www.w3.org/2000/svg" xmlns:xlink="http://www.w3.org/1999/xlink" x="0px" y="0px"
	 viewBox="0 0 512 512" style="enable-background:new 0 0 512 512;" xml:space="preserve">
<rect y="85.331" style="fill:#FFDA44;" width="512" height="341.337"/>
<rect y="85.331" width="512" height="90.579"/>
<rect y="336.089" style="fill:#0052B4;" width="512" height="90.568"/>
<rect y="198.606" style="fill:#A2001D;" width="512" height="114.799"/>
<g>
	<rect x="144.696" y="248.57" style="fill:#FFDA44;" width="222.609" height="14.84"/>
	<rect x="174.381" y="218.897" style="fill:#FFDA44;" width="163.25" height="14.84"/>
</g>
<path style="fill:#F0F0F0;" d="M338.684,255.994c0,0-38.162,44.522-82.684,44.522s-44.522-44.522-44.522-44.522
	s0-44.522,44.522-44.522S338.684,255.994,338.684,255.994z"/>
<path d="M256,300.516c-44.522,0-82.684-44.522-82.684-44.522s38.162-44.522,82.684-44.522"/>
<rect x="226.315" y="241.158" style="fill:#F0F0F0;" width="14.84" height="29.682"/>
<rect x="270.837" y="241.158" width="14.84" height="29.682"/>
<g>
	<circle style="fill:#0052B4;" cx="144.696" cy="255.994" r="14.84"/>
	<circle style="fill:#0052B4;" cx="367.304" cy="255.994" r="14.84"/>
</g>
<g>
</g>
<g>
</g>
<g>
</g>
<g>
</g>
<g>
</g>
<g>
</g>
<g>
</g>
<g>
</g>
<g>
</g>
<g>
</g>
<g>
</g>
<g>
</g>
<g>
</g>
<g>
</g>
<g>
</g>
</svg>
