<svg xmlns="http://www.w3.org/2000/svg" fill="none" viewBox="0 0 46 30"><g clip-path="url(#a)"><path fill="#FFDA44" d="M46-.333H0v30.667h46z"/><path fill="#000" d="M46-.333H0v8.137h46z"/><path fill="#0052B4" d="M46 22.196H0v8.136h46z"/><path fill="#A2001D" d="M46 9.844H0v10.314h46z"/><path fill="#FFDA44" d="M33 14.332H13v1.334h20zM30.334 11.667H15.667V13h14.667z"/><path fill="#F0F0F0" d="M30.429 15S27 19 23 19s-4-4-4-4 0-4 4-4 7.429 4 7.429 4"/><path fill="#000" d="M23 19c-4 0-7.429-4-7.429-4s3.429-4 7.43-4"/><path fill="#F0F0F0" d="M21.666 13.667h-1.333v2.666h1.333z"/><path fill="#000" d="M25.666 13.667h-1.333v2.666h1.333z"/><path fill="#0052B4" d="M13 16.333a1.333 1.333 0 1 0 0-2.667 1.333 1.333 0 0 0 0 2.667M33 16.333a1.333 1.333 0 1 0 0-2.667 1.333 1.333 0 0 0 0 2.667"/></g><defs><clipPath id="a"><path fill="#fff" d="M0 0h46v30H0z"/></clipPath></defs></svg>