<svg xmlns="http://www.w3.org/2000/svg" fill="none" viewBox="0 0 46 30"><g clip-path="url(#a)"><path fill="#F0F0F0" d="M46-.333H0v30.666h46z"/><path fill="#D80027" d="M46-.333H0V9.889h46z"/><path fill="#6DA544" d="M46 20.111H0v10.222h46z"/><path fill="#FFDA44" d="M20.333 19h5.334v-2.267l-1.067.534-1.6-1.6-1.6 1.6-1.067-.534zM17.282 16.333l.248.764h.803l-.65.473.249.763-.65-.472-.65.472.248-.763-.65-.473h.803zM18.051 13.667l.248.764h.804l-.65.472.248.764-.65-.473-.65.473.249-.764-.65-.472h.803zM20.252 11.667l.248.764h.803l-.65.472.248.764-.65-.473-.65.473.249-.764-.65-.472h.803zM28.718 16.333l-.248.764h-.803l.65.473-.249.763.65-.472.65.472-.248-.763.65-.473h-.804zM27.948 13.667l-.248.764h-.803l.65.472-.248.764.65-.473.65.473-.249-.764.65-.472h-.803zM25.748 11.667l-.248.764h-.803l.65.472-.248.764.65-.473.65.473-.249-.764.65-.472h-.803zM23 10.667l.248.764h.803l-.65.472.249.764-.65-.472-.65.472.248-.764-.65-.472h.804z"/></g><defs><clipPath id="a"><path fill="#fff" d="M0 0h46v30H0z"/></clipPath></defs></svg>