<svg xmlns="http://www.w3.org/2000/svg" fill="none" viewBox="0 0 46 30"><g clip-path="url(#a)"><path fill="#F0F0F0" d="M46-.333H0v30.666h46z"/><path fill="#D80027" d="M46-.333H0V9.889h46zM46 20.111H0v10.222h46z"/><path fill="#FFDA44" d="M26.413 15c0 1.885-1.528 2.987-3.413 2.987S19.587 16.885 19.587 15a3.413 3.413 0 0 1 6.826 0"/><path fill="#0052B4" d="M26.414 15a3.413 3.413 0 0 1-6.827 0"/><path fill="#D80027" d="M21.72 14.147h-.853v1.707h.854zM25.134 14.147h-.854v1.707h.854zM23.427 12.867h-.854v2.987h.854z"/></g><defs><clipPath id="a"><path fill="#fff" d="M0 0h46v30H0z"/></clipPath></defs></svg>