<svg xmlns="http://www.w3.org/2000/svg" fill="none" viewBox="0 0 46 30"><g clip-path="url(#a)"><path fill="#FFDA44" d="M46-.333H0v30.666h46z"/><path fill="#0052B4" d="M46-.333H29.667v30.667H46zM16.333-.333H0v30.667h16.333z"/><path fill="#D80027" d="m27.469 16.375 1.03 1.375v-5.5l-1.03 1.374h-3.094v-3.093L25.75 9.5h-5.5l1.375 1.03v3.095h-3.094L17.5 12.249v5.5l1.031-1.374h3.094v3.093L20.25 20.5h5.5l-1.375-1.032v-3.093z"/><path fill="#F0F0F0" d="M27.125 14.312h-3.437v-3.437h-1.375v3.437h-3.438v1.375h3.438v3.438h1.375v-3.438h3.437z"/></g><defs><clipPath id="a"><path fill="#fff" d="M0 0h46v30H0z"/></clipPath></defs></svg>