<svg xmlns="http://www.w3.org/2000/svg" fill="none" viewBox="0 0 46 30"><g clip-path="url(#a)"><path fill="#FFDA44" d="M46-.333H0v30.666h46z"/><path fill="#D80027" d="M46-.333H29.667v30.667H46z"/><path fill="#0052B4" d="M16.333-.333H0v30.667h16.333z"/><path fill="#FF9811" d="M28.333 11.73h-3.666a1.667 1.667 0 0 0-3.334 0h-3.666c0 .907.789 1.641 1.695 1.641h-.054c0 .907.734 1.641 1.64 1.641 0 .803.577 1.47 1.338 1.612l-1.293 2.92c.62.252 1.297.392 2.007.392s1.387-.14 2.007-.392l-1.293-2.92a1.64 1.64 0 0 0 1.337-1.612c.907 0 1.641-.734 1.641-1.64h-.055c.907 0 1.696-.735 1.696-1.642"/><path fill="#0052B4" d="m23 14-2.167 1v2L23 18.333 25.167 17v-2z"/><path fill="#D80027" d="M25.166 13h-4.333v2h4.333z"/></g><defs><clipPath id="a"><path fill="#fff" d="M0 0h46v30H0z"/></clipPath></defs></svg>