<svg xmlns="http://www.w3.org/2000/svg" fill="none" viewBox="0 0 46 30"><g clip-path="url(#a)"><path fill="#FFDA44" d="M46-.333H0v30.666h46z"/><path fill="#A2001D" d="M46 2.333H0v25.334h46z"/><path fill="#FFDA44" d="M19.666 11h6.667V8.333L25 9l-2-2-2 2-1.334-.667zM29 15h-3.332a1.539 1.539 0 1 0-2.688-1.494A1.538 1.538 0 1 0 20.29 15H17c0 1.02.888 1.846 1.907 1.846h-.061c0 .837.556 1.543 1.319 1.77l-1.499 1.498 1.415 1.414 2.006-2.006q.117.045.244.068l-1.213 2.737c.581.236 1.216.367 1.882.367s1.3-.131 1.881-.367L23.67 19.59q.126-.024.244-.068l2.006 2.006 1.414-1.414-1.498-1.498a1.85 1.85 0 0 0 1.319-1.77h-.062C28.112 16.846 29 16.02 29 15"/><path fill="#6DA544" d="m23 16-2.167 1v2L23 20.333 25.166 19v-2z"/><path fill="#0052B4" d="M25.166 15h-4.333v2.667h4.333z"/></g><defs><clipPath id="a"><path fill="#fff" d="M0 0h46v30H0z"/></clipPath></defs></svg>