<svg xmlns="http://www.w3.org/2000/svg" fill="none" viewBox="0 0 46 30"><g clip-path="url(#a)"><path fill="#000" d="M46-.333H0v30.667h46z"/><path fill="#A2001D" d="M0-.334h46v30.667"/><path fill="#F0F0F0" d="m18.385 21.333.248.764h.803l-.65.472.249.764-.65-.472-.65.472.248-.764-.65-.472h.804zM16.334 14l.413 1.273h1.339l-1.083.787.413 1.273-1.082-.787-1.084.787.414-1.273-1.083-.787h1.339zM16.334 23.333l.413 1.273h1.339l-1.083.787.413 1.273-1.082-.787-1.084.787.414-1.273-1.083-.787h1.339zM20.248 17.333l.413 1.273h1.34l-1.084.787.414 1.273-1.083-.787-1.083.787.413-1.273-1.083-.787h1.34zM12.42 17.333l.413 1.273h1.339l-1.083.787.413 1.273-1.083-.787-1.083.787.414-1.273-1.083-.787h1.339z"/><path fill="#FFDA44" d="M33.829 10.343a3.97 3.97 0 0 0-2.533-1.16l2.864-2.228A5.32 5.32 0 0 0 30 5.41a4 4 0 0 0-1.024-1.753l-1.131 2.262a1.667 1.667 0 1 0-2.263 2.263l-2.263 1.131a4 4 0 0 0 1.754 1.025 5.32 5.32 0 0 0 1.546 4.16l2.502-3.216a1 1 0 0 1 .702-.288c.267 0 .518.104.707.293s.293.44.293.707a1 1 0 0 1-.293.707l.943.943c.44-.441.683-1.027.683-1.65 0-.51-.163-.995-.463-1.396a2.65 2.65 0 0 1 1.194.689 2.67 2.67 0 0 1 0 3.77l.943.944A3.97 3.97 0 0 0 35 13.17a3.98 3.98 0 0 0-1.171-2.828"/></g><defs><clipPath id="a"><path fill="#fff" d="M0 0h46v30H0z"/></clipPath></defs></svg>