<svg xmlns="http://www.w3.org/2000/svg" fill="none" viewBox="0 0 46 30"><g clip-path="url(#a)"><path fill="#D80027" d="M30.667-.334H0v30.667h46V-.334z"/><path fill="#6DA544" d="M15.333-.333H0v30.667h15.333z"/><path fill="#F0F0F0" d="M30.666-.333H15.333v30.667h15.333z"/><path fill="#6DA544" d="M18.688 15a4.313 4.313 0 0 0 8.625 0v-1.438h-8.625z"/><path fill="#FF9811" d="M28.75 12.125h-4.313a1.438 1.438 0 0 0-2.875 0H17.25c0 .794.691 1.437 1.485 1.437h-.048c0 .794.644 1.438 1.438 1.438 0 .794.643 1.437 1.437 1.437h2.875c.794 0 1.438-.643 1.438-1.437.794 0 1.437-.644 1.437-1.438h-.048c.794 0 1.486-.643 1.486-1.437"/></g><defs><clipPath id="a"><path fill="#fff" d="M0 0h46v30H0z"/></clipPath></defs></svg>