<svg xmlns="http://www.w3.org/2000/svg" fill="none" viewBox="0 0 46 30"><g clip-path="url(#a)"><path fill="#FFDA44" d="M46-.333H0v30.667h46z"/><path fill="#D80027" d="M44 1.667H2v26.667h42z"/><path fill="#0052B4" d="M33.252 28.333H44V22.02l-21-6.313 5.03 8.219zM44 7.005l-21 8.702h21zM28.818 1.666 23 15.707 37.04 1.667zM17.182 1.666 23 15.707V1.667zM2 1.666v5.34l21 8.701L8.96 1.667zM2 15.707v6.313l21-6.313z"/><path fill="#FFDA44" d="m23.222 15.924 4.377 3.047a5.333 5.333 0 1 0-7.424 1.33z"/><path fill="#F0F0F0" d="M44.222 28.324h-42l21-12.4z"/><path fill="#FFDA44" d="M25.333 23.6c0 1.288-1.044 1.666-2.333 1.666s-2.333-.378-2.333-1.666a2.333 2.333 0 0 1 4.666 0"/><path fill="#0052B4" d="M25.333 23.6a2.333 2.333 0 1 1-4.666 0"/></g><defs><clipPath id="a"><path fill="#fff" d="M0 0h46v30H0z"/></clipPath></defs></svg>