<svg xmlns="http://www.w3.org/2000/svg" fill="none" viewBox="0 0 46 30"><g clip-path="url(#a)"><path fill="#000" d="M46-.333H0v30.666h46z"/><path fill="#D80027" d="M46-.333H0V9.89h46z"/><path fill="#496E2D" d="M46 20.111H0v10.222h46z"/><path fill="#F0F0F0" d="m25.284 13.205.805 1.11 1.304-.423-.806 1.109.805 1.11-1.304-.425-.806 1.108v-1.37l-1.303-.425 1.304-.423z"/><path fill="#F0F0F0" d="M23.087 17.773a2.773 2.773 0 1 1 1.319-5.213 3.413 3.413 0 1 0 0 4.88 2.76 2.76 0 0 1-1.32.333"/></g><defs><clipPath id="a"><path fill="#fff" d="M0 0h46v30H0z"/></clipPath></defs></svg>