<svg xmlns="http://www.w3.org/2000/svg" fill="none" viewBox="0 0 46 30"><g clip-path="url(#a)"><path fill="#0052B4" d="M46-.333H0v30.667h46z"/><path fill="#F0F0F0" d="m29.58 15.736 2.754-1.07-2.753-1.07-1.512-.587-2.457-.954-.954-2.457a5.36 5.36 0 0 1 3.41 3.411l1.512.588a6.68 6.68 0 0 0-5.51-5.511L23 5.333l-1.07 2.753a6.68 6.68 0 0 0-5.51 5.51l-2.753 1.07 2.753 1.07a6.68 6.68 0 0 0 5.51 5.51L23 24l1.07-2.753a6.68 6.68 0 0 0 5.51-5.511m-4.998-2.651L23 14.666h5.652l-4.07 1.582L23 14.666v5.653l-1.582-4.07L23 14.665h-5.652l4.07-1.581L23 14.666V9.014zm-3.24-3.487-.954 2.457-2.456.954a5.36 5.36 0 0 1 3.41-3.411m-3.41 6.726 2.456.954.955 2.457a5.36 5.36 0 0 1-3.411-3.411m6.725 3.41.955-2.456 2.457-.954a5.36 5.36 0 0 1-3.412 3.41"/><path fill="#0052B4" d="M28.652 14.666H23l1.582 1.582zM17.348 14.666h5.653l-1.582-1.581zM23 20.318v-5.652l-1.581 1.582z"/><path fill="#0052B4" d="m23 14.666 1.582-1.581L23 9.015z"/><path fill="#F0F0F0" d="M23.666 1.333h-1.333v2.666h1.333zM12.334 14H9.667v1.333h2.667zM23.666 25.333h-1.333v2.666h1.333zM36.334 14h-2.667v1.333h2.666z"/></g><defs><clipPath id="a"><path fill="#fff" d="M0 0h46v30H0z"/></clipPath></defs></svg>