<svg xmlns="http://www.w3.org/2000/svg" fill="none" viewBox="0 0 46 30"><g clip-path="url(#a)"><path fill="#FFDA44" d="M46-.333H0v30.667h46z"/><path fill="#D80027" d="M34.489 30.333 23 14.666l2.41 15.667zM12-.334l11 15-2.308-15zM20.59 30.333 23 14.666 11.512 30.333zM0-.334v11.462l23 3.538-20.454-15zM0 30.333h1.637L23 14.666 0 18.205zM23 14.666l23-3.538V-.334h-2.545zM25.308-.334l-2.308 15 11-15z"/><path fill="#D80027" d="M46 30.333V18.205l-23-3.539 21.364 15.667z"/><path fill="#D80027" d="M23 20a5.333 5.333 0 1 0 0-10.666A5.333 5.333 0 0 0 23 20"/><path fill="#FFDA44" d="M23 18.667a4 4 0 1 0 0-8 4 4 0 0 0 0 8"/></g><defs><clipPath id="a"><path fill="#fff" d="M0 0h46v30H0z"/></clipPath></defs></svg>