<svg xmlns="http://www.w3.org/2000/svg" fill="none" viewBox="0 0 46 30"><g clip-path="url(#a)"><path fill="#F0F0F0" d="M46-.333H0v30.666h46z"/><path fill="#000" d="M46-.333H0V9.889h46z"/><path fill="#496E2D" d="M46 20.111H0v10.222h46z"/><path fill="#D80027" d="M23 15 0 30.334V-.334zM27.467 15a3.734 3.734 0 0 1 2.933-3.646 3.733 3.733 0 1 0 0 7.293A3.734 3.734 0 0 1 27.467 15"/><path fill="#D80027" d="m30.557 12.6.53 1.63H32.8l-1.386 1.007.53 1.63-1.387-1.008-1.386 1.008.53-1.63-1.387-1.007h1.713z"/></g><defs><clipPath id="a"><path fill="#fff" d="M0 0h46v30H0z"/></clipPath></defs></svg>