<svg xmlns="http://www.w3.org/2000/svg" fill="none" viewBox="0 0 46 30"><g clip-path="url(#a)"><path fill="#D80027" d="M46-.333H0v30.666h46z"/><path fill="#6DA544" d="M46 21H0v9.333h46z"/><path fill="#338AF3" d="M46-.333H0v9.39h46z"/><path fill="#F0F0F0" d="M46 10.946H0v8.055h46z"/><path fill="#338AF3" d="M46-.333H0v9.39h46z"/><path fill="#F0F0F0" d="M16.953 4.362a3 3 0 0 1 2.357-2.93 3 3 0 1 0 0 5.86 3 3 0 0 1-2.358-2.93M21.083 5.725l.203.625h.657l-.532.387.204.625-.532-.387-.532.387.203-.625-.532-.387h.658zM23.18 5.725l.204.625h.657l-.532.387.203.625-.532-.387-.531.387.203-.625-.532-.387h.657zM25.278 5.725l.203.625h.657l-.531.387.203.625-.532-.387-.532.387.203-.625-.531-.387h.657zM27.376 5.725l.203.625h.657l-.532.387.203.625-.531-.387-.532.387.203-.625-.532-.387h.657zM29.473 5.725l.203.625h.658l-.532.387.203.625-.532-.387-.531.387.203-.625-.532-.387h.657zM23.18 3.543l.204.625h.657l-.532.387.203.625-.532-.386-.531.386.203-.625-.532-.387h.657zM25.278 3.543l.203.625h.657l-.531.387.203.625-.532-.386-.532.386.203-.625-.531-.387h.657zM27.376 3.543l.203.625h.657l-.532.387.203.625-.531-.386-.532.386.203-.625-.532-.387h.657zM29.473 3.543l.203.625h.658l-.532.387.203.625-.532-.386-.531.386.203-.625-.532-.387h.657zM25.278 1.362l.203.625h.657l-.531.386.203.625-.532-.386-.532.386.203-.625-.531-.386h.657zM27.376 1.362l.203.625h.657l-.532.386.203.625-.531-.386-.532.386.203-.625-.532-.386h.657zM29.473 1.362l.203.625h.658l-.532.386.203.625-.532-.386-.531.386.203-.625-.532-.386h.657z"/></g><defs><clipPath id="a"><path fill="#fff" d="M0 0h46v30H0z"/></clipPath></defs></svg>