<svg xmlns="http://www.w3.org/2000/svg" fill="none" viewBox="0 0 46 30"><g clip-path="url(#a)"><path fill="#F0F0F0" d="M46 .219H0v30.667h46z"/><path fill="#D80027" d="M46 .219H0v2.788h46zM46 5.794H0v2.788h46zM46 11.37H0v2.789h46zM46 16.947H0v2.788h46zM46 22.523H0v2.788h46zM46 28.099H0v2.788h46z"/><path fill="#0052B4" d="M23-.886H0v15.045h23z"/><path fill="#F0F0F0" d="m11.5 2.636.992 3.056h3.214l-2.6 1.888.993 3.056-2.6-1.889L8.9 10.636l.993-3.056-2.6-1.888h3.214z"/></g><defs><clipPath id="a"><path fill="#fff" d="M0 0h46v30H0z"/></clipPath></defs></svg>