<svg xmlns="http://www.w3.org/2000/svg" fill="none" viewBox="0 0 46 30"><g clip-path="url(#a)"><path fill="#F0F0F0" d="M46-.333H0v30.667h46z"/><path fill="#D80027" d="m21.037 11.862 1.258 1.734 2.038-.66-1.26 1.731 1.258 1.734-2.037-.663-1.26 1.732.001-2.142-2.037-.663 2.038-.66z"/><path fill="#D80027" d="M17.604 19a4.333 4.333 0 1 1 2.061-8.146 5.333 5.333 0 1 0 0 7.625 4.3 4.3 0 0 1-2.061.52M46 4.667H0v2h46zM46 22.666H0v2h46z"/></g><defs><clipPath id="a"><path fill="#fff" d="M0 0h46v30H0z"/></clipPath></defs></svg>