<svg xmlns="http://www.w3.org/2000/svg" fill="none" viewBox="0 0 46 30"><g clip-path="url(#a)"><path fill="#338AF3" d="M46-.333H0v30.666h46z"/><path fill="#F0F0F0" d="M46-.333v14.976l-46 .373V-.334z"/><path fill="#6DA544" d="M29.086 10.247 23 16.334l-6.086-6.087a7.3 7.3 0 0 0-1.247 4.087v2c0 3.21 2.075 5.947 4.955 6.937a2.22 2.22 0 0 0 .243 2.396l2.18-1.747 2.179 1.747c.57-.711.63-1.665.23-2.423 2.84-1.012 4.88-3.727 4.88-6.91v-2c0-1.512-.46-2.918-1.248-4.087"/><path fill="#FFDA44" d="M23 21.667a5.34 5.34 0 0 1-5.333-5.333v-2A5.34 5.34 0 0 1 23 9a5.34 5.34 0 0 1 5.333 5.334v2A5.34 5.34 0 0 1 23 21.667"/><path fill="#338AF3" d="M26.333 16.334v-2A3.337 3.337 0 0 0 23 11a3.337 3.337 0 0 0-3.333 3.334v2L23 17z"/><path fill="#6DA544" d="M19.667 16.334A3.337 3.337 0 0 0 23 19.667a3.337 3.337 0 0 0 3.333-3.333z"/><path fill="#FFDA44" d="M27 9a2 2 0 0 0-3.333-1.49V6.334h.667V5h-.667v-.667h-1.333V5h-.667v1.334h.667V7.51a2 2 0 1 0-2.667 2.98v1.177h6.667v-1.176c.409-.367.666-.899.666-1.49"/></g><defs><clipPath id="a"><path fill="#fff" d="M0 0h46v30H0z"/></clipPath></defs></svg>