<svg xmlns="http://www.w3.org/2000/svg" fill="none" viewBox="0 0 46 30"><g clip-path="url(#a)"><path fill="#F0F0F0" d="M46-.333H0v30.667h46z"/><path fill="#ACABB1" d="M35.045 12H30c0-.92-.746-1.667-1.666-1.667L27 12.999s1.423 4 1.378 4h1.667c.92 0 1.666-.746 1.666-1.666.921 0 1.667-.746 1.667-1.667h-.055c.92 0 1.722-.746 1.722-1.667M10.956 12H16c0-.92.746-1.667 1.667-1.667L19 12.999s-1.422 4-1.378 4h-1.666c-.921 0-1.667-.746-1.667-1.666-.92 0-1.667-.746-1.667-1.667h.056c-.92 0-1.722-.746-1.722-1.667"/><path fill="#FFDA44" d="M28.333 21v.666H17.667V21H15v2.666h2.667v.667h10.666v-.667H31V21z"/><path fill="#0052B4" d="M17.667 10.333v6.666c0 4.083 5.333 5.334 5.333 5.334s5.333-1.251 5.333-5.334v-6.666L23 9.666z"/><path fill="#D80027" d="M28.334 13H17.667v4h10.667z"/><path fill="#FFDA44" d="M25.667 7v1L25 8.333l-.667-.667v-2h-2.666v2L21 8.333 20.333 8V7h-2.666v3.333h10.666V7z"/></g><defs><clipPath id="a"><path fill="#fff" d="M0 0h46v30H0z"/></clipPath></defs></svg>