<svg xmlns="http://www.w3.org/2000/svg" fill="none" viewBox="0 0 46 30"><g clip-path="url(#a)"><path fill="#338AF3" d="M46-.333H0v30.666h46z"/><path fill="#6DA544" d="M46-.333H0V15h46z"/><path fill="#D80027" d="M0 30.333C0 30.336 46 15 46 15L0-.334z"/><path fill="#FFDA44" d="M12.667 9.25a4.85 4.85 0 0 0-4.843 4.842v1.816a4.85 4.85 0 0 0 4.843 4.842 4.85 4.85 0 0 0 4.842-4.842v-1.816a4.85 4.85 0 0 0-4.842-4.842m3.026 6.658c0 1.352-.892 2.5-2.118 2.887v-1.98l1.284-1.284-1.284-1.284v-1.063h-1.816V15l-1.284 1.284 1.284 1.283v1.228a3.03 3.03 0 0 1-2.119-2.887v-1.816a3.03 3.03 0 0 1 3.027-3.027 3.03 3.03 0 0 1 3.026 3.027z"/></g><defs><clipPath id="a"><path fill="#fff" d="M0 0h46v30H0z"/></clipPath></defs></svg>