<svg xmlns="http://www.w3.org/2000/svg" fill="none" viewBox="0 0 46 30"><g clip-path="url(#a)"><path fill="#D80027" d="M46-.333H0v30.667h46z"/><path fill="#D80027" d="M23 30.333c8.468 0 15.333-6.865 15.333-15.333S31.468-.334 23-.334 7.667 6.53 7.667 15c0 8.468 6.865 15.333 15.333 15.333"/><path fill="#FFDA44" d="m30.499 15-3.064 1.44 1.631 2.968-3.327-.636-.422 3.36L23 19.662l-2.318 2.472-.421-3.361-3.327.636 1.631-2.967L15.501 15l3.064-1.442-1.631-2.967 3.327.636.422-3.36L23 10.337l2.318-2.472.421 3.361 3.327-.636-1.631 2.968z"/><path fill="#D80027" d="M23 19.666a4.667 4.667 0 1 0 0-9.333 4.667 4.667 0 0 0 0 9.333"/><path fill="#FFDA44" d="M20.666 15q-.168 0-.332.016c.003.647.237 1.238.624 1.698.206-.555.513-1.06.901-1.493A3.3 3.3 0 0 0 20.666 15M22.103 17.511a2.66 2.66 0 0 0 1.794 0A3.33 3.33 0 0 0 23 15.956c-.429.42-.744.956-.897 1.555M25.309 13.667a2.665 2.665 0 0 0-4.619 0c.84.004 1.63.232 2.31.627a4.64 4.64 0 0 1 2.309-.627M24.14 15.221c.388.433.696.938.902 1.493.386-.46.62-1.051.624-1.698q-.164-.015-.333-.016c-.42 0-.822.079-1.193.221"/></g><defs><clipPath id="a"><path fill="#fff" d="M0 0h46v30H0z"/></clipPath></defs></svg>