<svg xmlns="http://www.w3.org/2000/svg" fill="none" viewBox="0 0 46 30"><g clip-path="url(#a)"><path fill="#F0F0F0" d="M46-.333H0v30.666h46z"/><path fill="#FF9811" d="M46-.333H0V9.89h46z"/><path fill="#6DA544" d="M46 20.111H0v10.222h46z"/><path fill="#0052B4" d="M23 18.944a3.944 3.944 0 1 0 0-7.888 3.944 3.944 0 0 0 0 7.888"/><path fill="#F0F0F0" d="M23 17.465a2.465 2.465 0 1 0 0-4.93 2.465 2.465 0 0 0 0 4.93"/><path fill="#0052B4" d="m23 11.959.76 1.724 1.874-.204L24.521 15l1.113 1.52-1.873-.203-.76 1.725-.761-1.725-1.874.204L21.479 15l-1.113-1.522 1.874.204z"/></g><defs><clipPath id="a"><path fill="#fff" d="M0 0h46v30H0z"/></clipPath></defs></svg>