<svg xmlns="http://www.w3.org/2000/svg" fill="none" viewBox="0 0 46 30"><g clip-path="url(#a)"><path fill="#0052B4" d="M46-.333H0v30.666h46z"/><path fill="#F0F0F0" d="m21.009 8.631-1.873.881.997 1.814-2.033-.39-.258 2.055-1.416-1.51-1.417 1.51-.258-2.054-2.033.389.997-1.814-1.872-.88 1.872-.881-.997-1.814 2.033.389.258-2.054 1.417 1.51 1.416-1.51.258 2.054 2.033-.389-.997 1.814zM38.355-.333 0 29.871v.338L45.26-.333z"/><path fill="#FF9811" d="M46-.333h-.74L0 30.21v.124h.334L46 4.308z"/></g><defs><clipPath id="a"><path fill="#fff" d="M0 0h46v30H0z"/></clipPath></defs></svg>