<svg xmlns="http://www.w3.org/2000/svg" fill="none" viewBox="0 0 46 30"><g clip-path="url(#a)"><path fill="#338AF3" d="M46-.333H0v30.667h46z"/><path fill="#F0F0F0" d="m23 6.333.662 2.037h2.142L24.07 9.63l.662 2.036L23 10.407l-1.733 1.26.662-2.038-1.733-1.26h2.142zM14.333 15l2.037-.662v-2.142l1.26 1.733 2.037-.662L18.407 15l1.26 1.732-2.038-.661-1.259 1.732v-2.142zM23 23.666l-.662-2.037h-2.142l1.733-1.26-.662-2.036L23 19.592l1.733-1.26-.662 2.038 1.733 1.26h-2.142zM31.667 15l-2.038.661v2.143L28.37 16.07l-2.037.661L27.593 15l-1.26-1.732 2.037.662 1.26-1.733v2.142z"/></g><defs><clipPath id="a"><path fill="#fff" d="M0 0h46v30H0z"/></clipPath></defs></svg>