<svg xmlns="http://www.w3.org/2000/svg" fill="none" viewBox="0 0 46 30"><g clip-path="url(#a)"><path fill="#FFDA44" d="M46-.333H0v30.666h46z"/><path fill="#6DA544" d="M46-.333H0V9.889h46zM46 20.111H0v10.222h46z"/><path fill="#D80027" d="M23 15 0 30.335V-.334z"/><path fill="#000" d="m27.137 12.333.662 2.037h2.142l-1.733 1.26.662 2.037-1.733-1.26-1.733 1.26.662-2.037-1.733-1.26h2.142zM33.804 12.333l.662 2.037h2.142l-1.733 1.26.662 2.037-1.733-1.26-1.733 1.26.662-2.037L31 14.37h2.142z"/></g><defs><clipPath id="a"><path fill="#fff" d="M0 0h46v30H0z"/></clipPath></defs></svg>