<svg xmlns="http://www.w3.org/2000/svg" fill="none" viewBox="0 0 46 30"><g clip-path="url(#a)"><path fill="#F0F0F0" d="M46-.333H0v30.667h46z"/><path fill="#000" d="M10.396 2.562c-1.243 0-2.287.85-2.583 2l2.583.667 2.583-.667c-.296-1.15-1.34-2-2.583-2M7.73 8.562l3.333.667V7.812a2.67 2.67 0 0 0 1.915-1.916l-2.582-.667H7.063l.666 2z"/><path fill="#ACABB1" d="M12.979 4.562H7.063V7.23h.666V5.896h5.25a2.7 2.7 0 0 0 0-1.334"/><path fill="#000" d="M36.271 2.562c-1.243 0-2.287.85-2.583 2l2.583.667 2.583-.667c-.296-1.15-1.34-2-2.583-2M33.604 8.562l3.334.667V7.812a2.67 2.67 0 0 0 1.915-1.916l-2.582-.667h-3.333l.666 2z"/><path fill="#ACABB1" d="M38.854 4.562h-5.916V7.23h.666V5.896h5.25a2.7 2.7 0 0 0 0-1.334"/><path fill="#000" d="M36.271 20.77c-1.243 0-2.287.85-2.583 2l2.583.667 2.583-.667c-.296-1.15-1.34-2-2.583-2"/><path fill="#000" d="m33.604 26.77 3.334.667V26.02a2.67 2.67 0 0 0 1.915-1.916l-2.582-.667h-3.333l.666 2z"/><path fill="#ACABB1" d="M38.854 22.77h-5.916v2.667h.666v-1.333h5.25a2.7 2.7 0 0 0 0-1.334"/><path fill="#000" d="M10.396 20.77c-1.243 0-2.287.85-2.583 2l2.583.667 2.583-.667c-.296-1.15-1.34-2-2.583-2"/><path fill="#000" d="m7.73 26.77 3.333.667V26.02a2.67 2.67 0 0 0 1.915-1.916l-2.582-.667H7.063l.666 2z"/><path fill="#ACABB1" d="M12.979 22.77H7.063v2.667h.666v-1.333h5.25a2.7 2.7 0 0 0 0-1.334"/><path fill="#D80027" d="M25.875-.334h-5.75v12.459H0v5.75h20.125v12.458h5.75V17.875H46v-5.75H25.875z"/></g><defs><clipPath id="a"><path fill="#fff" d="M0 0h46v30H0z"/></clipPath></defs></svg>