<svg xmlns="http://www.w3.org/2000/svg" fill="none" viewBox="0 0 46 30"><g clip-path="url(#a)"><path fill="#FFDA44" d="M46-.333H0v30.667h46z"/><path fill="#D80027" d="M0-.334h46v30.667"/><path fill="#FF9811" d="M27.008 19.009a2.33 2.33 0 0 1-1.997-.135 2.336 2.336 0 0 1-.892-3.177l-.191-.107a4.34 4.34 0 0 0 3.317-4.264 4.32 4.32 0 0 0-1.481-3.207l-1.4 1.434a2.33 2.33 0 0 1 .881 1.797 2.336 2.336 0 0 1-2.305 2.361l.003.22a4.34 4.34 0 0 0-5.352-.741 4.32 4.32 0 0 0-2.036 2.886l1.942.495c.1-.67.49-1.29 1.115-1.661a2.336 2.336 0 0 1 3.198.815l.188-.112a4.34 4.34 0 0 0 2.035 5.005 4.32 4.32 0 0 0 3.517.32z"/><path fill="#FFEACF" d="m28.677 10.051-1.083 3.867-3.252-.6-2.093-4.315-5.655 2.007-.446-1.257-1.48-.182 1.116 3.142 3.89-.996 1.107 3.117-2.69 3.97 4.565 3.893-.865 1.015.581 1.372 2.164-2.536-2.808-2.872 2.146-2.516 4.783.345 1.09-5.9 1.31.242.899-1.19z"/></g><defs><clipPath id="a"><path fill="#fff" d="M0 0h46v30H0z"/></clipPath></defs></svg>