<svg xmlns="http://www.w3.org/2000/svg" fill="none" viewBox="0 0 46 30"><g clip-path="url(#a)"><path fill="#F0F0F0" d="M46-.333H0v30.666h46z"/><path fill="#0052B4" d="M21.23-.333H0v30.666h21.23z"/><path fill="#D80027" d="M15.398 5v2.5a2.25 2.25 0 0 0 4.5 0V5z"/><path fill="#F0F0F0" d="M17.647 8.417a.92.92 0 0 1-.916-.917V6.333h1.833V7.5a.917.917 0 0 1-.917.917"/><path fill="#FFDA44" d="M26.564 15.667h-4a1.333 1.333 0 0 0-2.666 0h-4c0 .736.641 1.333 1.377 1.333h-.044c0 .736.597 1.333 1.333 1.333 0 .737.597 1.334 1.333 1.334h2.667c.736 0 1.333-.597 1.333-1.334.737 0 1.334-.596 1.334-1.333h-.045c.737 0 1.378-.597 1.378-1.333M27.112 13.533l-.35.56.425.507-.641-.16-.35.56-.047-.659-.64-.16.612-.247-.046-.66.425.507zM25.07 11.82l-.138.646.572.33-.657.069-.137.646-.269-.603-.657.069.491-.443-.269-.603.572.33zM22.564 10.907l.092.655.65.114-.593.29.092.654-.46-.475-.593.29.31-.584-.459-.475.65.115zM19.898 10.907l.31.584.65-.115-.458.475.31.584-.594-.29-.459.475.092-.654-.594-.29.65-.114zM17.392 11.82l.491.441.572-.33-.268.604.49.442-.657-.07-.268.604-.137-.646-.658-.07.572-.33zM15.35 13.533l.612.248.425-.507-.046.66.613.247-.642.16-.046.66-.35-.561-.64.16.424-.506z"/></g><defs><clipPath id="a"><path fill="#fff" d="M0 0h46v30H0z"/></clipPath></defs></svg>