<svg xmlns="http://www.w3.org/2000/svg" fill="none" viewBox="0 0 46 30"><g clip-path="url(#a)"><path fill="#496E2D" d="M46-.333H0v30.666h46z"/><path fill="#F0F0F0" d="M32.093 8.503a4.67 4.67 0 0 0-1.912-5.53q.492.063.978.236a4.667 4.667 0 1 1-4.056 8.346 4.67 4.67 0 0 0 4.99-3.052M27.909 2.398l-.656.847-1.008-.362.603.885-.655.847 1.028-.3.603.885.032-1.07 1.029-.3-1.009-.362z"/><path fill="#F0F0F0" d="m29.679 5.157-.656.847-1.008-.361.603.885-.655.847 1.028-.3.603.885.032-1.07 1.028-.3-1.008-.362zM24.788 3.403l-.655.847-1.008-.362.602.885-.655.847 1.028-.3.603.885.033-1.07 1.028-.3-1.008-.362zM24.716 6.564l-.655.847-1.008-.362.603.886-.656.847 1.028-.3.603.885.033-1.07 1.028-.3-1.008-.362zM27.725 7.644l-.656.847-1.008-.362.603.885-.656.847 1.029-.3.603.885.032-1.07 1.028-.3-1.008-.362z"/><path fill="#D80027" d="M15.5-.333h-8v30.666h8z"/><path fill="#F0F0F0" d="m10.553 7.74-1.34-.998v-1.41l1.34-.999h1.894l1.34.998v1.411l-1.34.998z"/><path fill="#FF9811" d="M11.5 4.333h-.947l-1.34.998v.69H11.5zM11.5 7.74h.947l1.34-.998v-.72H11.5z"/><path fill="#F0F0F0" d="m10.553 25.667-1.34-.998v-1.41l1.34-.999h1.894l1.34.998v1.411l-1.34.998z"/><path fill="#FF9811" d="M11.5 22.26h-.947l-1.34.998v.69H11.5zM11.5 25.667h.947l1.34-.998v-.72H11.5z"/><path fill="#496E2D" d="m10.553 16.703-1.34-.997v-1.411l1.34-.998h1.894l1.34.998v1.41l-1.34.998zM13.833 18.899h-.583v-.584h-1.025l-.725-.725-.725.725H9.75v.583h-.583v1.167h.583v.583h1.025l.725.726.725-.726h1.025v-.583h.583zM13.833 9.935h-.583v-.583h-1.025l-.725-.725-.725.725H9.75v.583h-.583v1.167h.583v.583h1.025l.725.725.725-.725h1.025v-.583h.583z"/><path fill="#D80027" d="M12.167 14.333h-1.334v1.333h1.333zM11.5 11.185a.667.667 0 1 0 0-1.334.667.667 0 0 0 0 1.334M11.5 20.149a.667.667 0 1 0 0-1.334.667.667 0 0 0 0 1.334"/></g><defs><clipPath id="a"><path fill="#fff" d="M0 0h46v30H0z"/></clipPath></defs></svg>