<svg xmlns="http://www.w3.org/2000/svg" fill="none" viewBox="0 0 46 30"><g clip-path="url(#a)"><path fill="#338AF3" d="M46-.333H0v30.667h46z"/><path fill="#FFDA44" d="m28.902 22 .331 1.018h1.071l-.866.63.33 1.018-.866-.63-.866.63.33-1.018-.866-.63h1.071zM37.432 15.333l.33 1.019h1.072l-.867.63.331 1.018-.866-.63-.867.63.331-1.019-.867-.63h1.072zM39.569 5.333l.33 1.019h1.072l-.867.63L40.435 8l-.866-.63-.867.63.331-1.019-.866-.63h1.07zM40.098 12.666l.331 1.019H41.5l-.866.63.33 1.018-.866-.63-.866.63.33-1.018-.866-.63h1.071zM30.438 19.604l.954.486.757-.757-.167 1.058.954.486-1.058.168-.167 1.057-.486-.954-1.058.168.757-.758zM30.438 15.604l.954.486.757-.757-.167 1.058.954.486-1.058.168-.167 1.057-.486-.954-1.058.168.757-.758zM33.771 18.168l.955.486.757-.757-.168 1.058.955.486-1.058.168-.168 1.057-.486-.954-1.058.168.758-.758zM33.771 9.604l.955.486.757-.757-.168 1.058.955.486-1.058.168-.168 1.057-.486-.954-1.058.168.758-.758zM37.002 9.501l.954.487.757-.758-.167 1.058.954.486-1.058.168L38.275 12l-.486-.955-1.058.168.757-.757z"/><path fill="#F0F0F0" d="M23-.333H0V15h23z"/><path fill="#D80027" d="M12.938-.334h-2.875v6.23H0V8.77h10.063V15h2.875V8.77H23V5.897H12.938z"/><path fill="#0052B4" d="M17.69 10 23 12.95V10zM14 10l9 5v-1.414L16.545 10zM20.603 15 14 11.33V15z"/><path fill="#F0F0F0" d="m14 10 9 5v-1.414L16.545 10z"/><path fill="#D80027" d="m14 10 9 5v-1.414L16.545 10z"/><path fill="#0052B4" d="M4.058 10 0 12.254V10zM9 10.636V15H1.145z"/><path fill="#D80027" d="M6.455 10 0 13.586V15l9-5z"/><path fill="#0052B4" d="M5.31 4.666 0 1.716v2.95zM9 4.666l-9-5V1.08l6.455 3.586zM2.397-.334 9 3.335V-.334z"/><path fill="#F0F0F0" d="m9 4.666-9-5V1.08l6.455 3.586z"/><path fill="#D80027" d="m9 4.666-9-5V1.08l6.455 3.586z"/><path fill="#0052B4" d="M18.942 4.666 23 2.412v2.254zM14 4.03V-.332h7.855z"/><path fill="#D80027" d="M16.545 4.666 23 1.08V-.334l-9 5z"/></g><defs><clipPath id="a"><path fill="#fff" d="M0 0h46v30H0z"/></clipPath></defs></svg>