<svg xmlns="http://www.w3.org/2000/svg" fill="none" viewBox="0 0 46 30"><g clip-path="url(#a)"><path fill="#FFDA44" d="M46-.333H0v30.666h46z"/><path fill="#F0F0F0" d="M46-.333H23v30.667h23z"/><path fill="#ACABB1" d="m28.871 13.009 2.882 3.812a2 2 0 1 0 1.063-.804l-4.49-5.941-1.064.804-1.596 1.206 1.608 2.127zm4.149 4.382a.667.667 0 1 1 .804 1.064.667.667 0 0 1-.804-1.064"/><path fill="#FFDA44" d="m33.814 14.213 1.608-2.127-1.595-1.206-1.064-.804-4.491 5.941a2 2 0 1 0 1.064.804l2.881-3.812zm-5.616 4.112a.667.667 0 1 1-1.063-.804.667.667 0 0 1 1.063.804"/></g><defs><clipPath id="a"><path fill="#fff" d="M0 0h46v30H0z"/></clipPath></defs></svg>