<svg xmlns="http://www.w3.org/2000/svg" fill="none" viewBox="0 0 46 30"><g clip-path="url(#a)"><path fill="#F0F0F0" d="M46-.333H0v30.667h46z"/><path fill="#FFDA44" d="M25.604 10.378a2.604 2.604 0 1 0-5.208 0h-5.73c0 1.416 1.234 2.564 2.65 2.564h-.085a2.564 2.564 0 0 0 2.564 2.564c0 1.254.9 2.296 2.09 2.519l-.007.015h2.244l-.007-.015a2.564 2.564 0 0 0 2.09-2.519 2.564 2.564 0 0 0 2.564-2.564h-.085c1.416 0 2.65-1.148 2.65-2.564z"/><path fill="#FFDA44" d="m21.855 17.774-1.614 3.646a7.3 7.3 0 0 0 2.759.538 7.3 7.3 0 0 0 2.76-.538l-1.615-3.646z"/><path fill="#F0F0F0" d="M19.667 11.659v4.486c0 2.551 3.333 3.333 3.333 3.333s3.333-.782 3.333-3.334V11.66z"/><path fill="#338AF3" d="m11.384 15.107 1.803 5.043 1.784-5.043h1.362l-2.601 6.667h-1.09l-2.62-6.667zM32.333 21.774v-6.667h1.296v6.667z"/><path fill="#D80027" d="M21 13.108v5.436c.458.337.951.569 1.333.717v-6.153zM25 13.108v5.436c-.459.337-.952.569-1.334.717v-6.153z"/><path fill="#0052B4" d="M26.334 11.659h-6.667v2.115h6.667z"/></g><defs><clipPath id="a"><path fill="#fff" d="M0 0h46v30H0z"/></clipPath></defs></svg>