<svg xmlns="http://www.w3.org/2000/svg" fill="none" viewBox="0 0 46 30"><g clip-path="url(#a)"><path fill="#0052B4" d="M46-.333H0v30.667h46z"/><path fill="#FFDA44" d="M37.167 18.333V19h-5.334v-.667h-2V21h1.334v.666h6.666V21h1.334v-2.667z"/><path fill="#338AF3" d="M29.833 8.333v7.333c0 3.572 4.667 4.667 4.667 4.667s4.667-1.094 4.667-4.667V8.333z"/><path fill="#F3F3F3" d="M34.5 13.803c-1.167 0-1.167 1.067-2.334 1.067-1.166 0-1.166-1.067-2.333-1.067v1.867c1.167 0 1.167 1.066 2.333 1.066s1.167-1.066 2.334-1.066c1.166 0 1.166 1.066 2.333 1.066S38 15.67 39.167 15.67v-1.867C38 13.803 38 14.87 36.832 14.87s-1.167-1.067-2.334-1.067M34.5 10.066c-1.167 0-1.167 1.067-2.334 1.067-1.166 0-1.166-1.067-2.333-1.067v1.867C31 11.933 31 13 32.166 13s1.167-1.067 2.334-1.067c1.166 0 1.166 1.067 2.333 1.067s1.167-1.067 2.334-1.067v-1.867c-1.167 0-1.167 1.067-2.334 1.067s-1.167-1.067-2.334-1.067"/><path fill="#F0F0F0" d="M23-.333v2.745l-4.058 2.255H23V10h-5.31L23 12.95V15h-2.397L14 11.332V15H9v-4.364L1.145 15H0v-2.745L4.058 10H0V4.667h5.31L0 1.716v-2.05h2.397L9 3.336V-.333h5V4.03l7.855-4.364z"/><path fill="#D80027" d="M12.938-.334h-2.876v6.23H0V8.77h10.063V15h2.874V8.77H23V5.895H12.938z"/><path fill="#0052B4" d="m14 10 9 5v-1.414L16.545 10z"/><path fill="#F0F0F0" d="m14 10 9 5v-1.414L16.545 10z"/><path fill="#D80027" d="m14 10 9 5v-1.414L16.545 10zM6.455 10 0 13.586V15l9-5z"/><path fill="#0052B4" d="m9 4.666-9-5V1.08l6.455 3.586z"/><path fill="#F0F0F0" d="m9 4.666-9-5V1.08l6.455 3.586z"/><path fill="#D80027" d="m9 4.667-9-5V1.08l6.455 3.587zM16.545 4.666 23 1.08V-.334l-9 5z"/></g><defs><clipPath id="a"><path fill="#fff" d="M0 0h46v30H0z"/></clipPath></defs></svg>