<svg xmlns="http://www.w3.org/2000/svg" fill="none" viewBox="0 0 46 30"><g clip-path="url(#a)"><path fill="#F0F0F0" d="M46-.333H0v30.667h46z"/><path fill="#D80027" d="M46 20.11H0v10.223h46zM29 12.333v-2h.666V9h-1.333v.666h-1.334V9h-1.333v1.333h.667v2h-1.334V7.666h.667V6.333h-1.333V7h-.667v-.667h-1.333V7h-.667v-.667h-1.333v1.333h.666v4.667h-1.333v-2h.667V9h-1.334v.666h-1.333V9h-1.333v1.333h.666v2h-1.333v5.333h14.667v-5.333z"/><path fill="#FFDA44" d="M23 17a2 2 0 0 0-.667 3.885v2.781h-2v2.667h3.333v-5.448A2 2 0 0 0 23 17m0 2.666a.667.667 0 1 1 0-1.333.667.667 0 0 1 0 1.333"/></g><defs><clipPath id="a"><path fill="#fff" d="M0 0h46v30H0z"/></clipPath></defs></svg>