<svg xmlns="http://www.w3.org/2000/svg" fill="none" viewBox="0 0 46 30"><g clip-path="url(#a)"><path fill="#A2001D" d="M46-.333H0v30.666h46z"/><path fill="#496E2D" d="M23 15 4 26.333V3.667z"/><path fill="#FFDA44" d="m23 15 19 11.333H4zM42 3.667 23 15 4 3.667z"/><path fill="#496E2D" d="M42 3.667v22.666L23 15z"/><path fill="#FFDA44" d="m23 .6.298.917h.964l-.78.566.298.917-.78-.567-.78.567.298-.917-.78-.566h.964zM15.282.6l.298.917h.964l-.78.566.298.917-.78-.567-.78.567.298-.917-.78-.566h.964zM30.718.6l.298.917h.964l-.78.566.298.917-.78-.567-.78.567.298-.917-.78-.566h.964zM23 27l.298.917h.964l-.78.566.298.917-.78-.566-.78.566.298-.917-.78-.566h.964zM15.282 27l.298.917h.964l-.78.566.298.917-.78-.566-.78.566.298-.917-.78-.566h.964zM30.718 27l.298.917h.964l-.78.566.298.917-.78-.566-.78.566.298-.917-.78-.566h.964z"/><path fill="#A2001D" d="M23 18.413a3.413 3.413 0 1 0 0-6.826 3.413 3.413 0 0 0 0 6.826"/><path fill="#FFDA44" d="m23 11.587.765 2.355h2.476l-2.003 1.455.765 2.355L23 16.297l-2.004 1.455.766-2.355-2.004-1.456h2.476zM9.672 14.747a1.334 1.334 0 0 1-2.253 1.426c-.713-1.127-.3-2.966-.3-2.966s1.84.413 2.553 1.54"/><path fill="#A2001D" d="M8.902 16.69a.667.667 0 1 0 0-1.334.667.667 0 0 0 0 1.334"/></g><defs><clipPath id="a"><path fill="#fff" d="M0 0h46v30H0z"/></clipPath></defs></svg>