<svg xmlns="http://www.w3.org/2000/svg" fill="none" viewBox="0 0 46 30"><g clip-path="url(#a)"><path fill="#D80027" d="M46-.333H0v30.667h46z"/><path fill="#0052B4" d="M45 .667H1v28.667h44z"/><path fill="#D80027" d="M22.132 24.679c-.21-.18-5.132-4.46-5.132-9.68s4.922-9.499 5.132-9.678L23 4.577l.867.744C24.077 5.5 29 9.78 29 15s-4.923 9.499-5.133 9.679l-.867.743z"/><path fill="#338AF3" d="M27.667 15c0-4.667-4.667-8.667-4.667-8.667s-4.667 4-4.667 8.667c0 1.427.437 2.792 1.044 4h7.246c.607-1.208 1.044-2.573 1.044-4"/><path fill="#0052B4" d="M27.667 15c0 1.427-.437 2.792-1.044 4L23 19.666 19.377 19c-.607-1.208-1.044-2.573-1.044-4z"/><path fill="#FFDA44" d="M23 23.666S25.248 21.74 26.623 19h-7.246C20.752 21.739 23 23.666 23 23.666"/><path fill="#6DA544" d="M20 12.333h6l-3 3z"/><path fill="#A2001D" d="M24 14.333h-2v6h2z"/></g><defs><clipPath id="a"><path fill="#fff" d="M0 0h46v30H0z"/></clipPath></defs></svg>