<svg xmlns="http://www.w3.org/2000/svg" fill="none" viewBox="0 0 46 30"><g clip-path="url(#a)"><path fill="#D80027" d="M46-.333V15.09c-1.26.093-3.304 1.91-4.522 1.91-1.25 0-3.37-1.913-4.62-1.913S33.489 17 32.239 17s-3.37-1.913-4.62-1.913S24.25 17 23 17s-3.369-1.913-4.619-1.913S15.011 17 13.761 17s-3.369-1.913-4.619-1.913S5.772 17 4.522 17C3.304 17 1.26 15.183 0 15.09V-.333z"/><path fill="#FFDA44" d="m28.333 14.927-2.18 1.025 1.161 2.11-2.366-.453-.3 2.391L23 18.242 21.352 20l-.3-2.39-2.367.452 1.16-2.11-2.178-1.025 2.179-1.026-1.16-2.11 2.366.452.3-2.39L23 11.611l1.648-1.758.3 2.39 2.366-.452-1.16 2.11zM27 5.667h-3a1 1 0 0 0-2 0h-3c0 .552.481 1 1.033 1H20a1 1 0 0 0 1 1 1 1 0 0 0 1 1h2a1 1 0 0 0 1-1 1 1 0 0 0 1-1h-.034c.553 0 1.034-.448 1.034-1"/><path fill="#0052B4" d="M46 15.09v15.243H0V15.09C1.26 15.183 3.304 17 4.522 17c1.25 0 3.37-1.913 4.62-1.913S12.511 17 13.761 17s3.37-1.913 4.62-1.913S21.75 17 23 17s3.369-1.913 4.619-1.913S30.989 17 32.239 17s3.369-1.913 4.619-1.913S40.228 17 41.478 17c1.218 0 3.262-1.817 4.522-1.91"/><path fill="#F0F0F0" d="M0 16.096c.399.068 1.154.496 1.719.817C2.703 17.472 3.633 18 4.522 18c.89 0 1.82-.528 2.804-1.087.614-.349 1.455-.826 1.816-.826.36 0 1.202.477 1.816.826.984.559 1.914 1.087 2.803 1.087.89 0 1.82-.528 2.804-1.087.614-.349 1.455-.826 1.816-.826.36 0 1.201.477 1.815.826C21.181 17.472 22.111 18 23 18c.89 0 1.819-.528 2.803-1.087.615-.349 1.456-.826 1.816-.826s1.202.477 1.816.826C30.42 17.472 31.35 18 32.24 18s1.819-.528 2.803-1.087c.614-.349 1.455-.826 1.816-.826s1.202.477 1.816.826C39.66 17.472 40.59 18 41.478 18s1.819-.528 2.803-1.087c.565-.32 1.32-.75 1.719-.817V14.09c-.86.036-1.758.545-2.707 1.084-.614.348-1.455.826-1.815.826-.361 0-1.202-.477-1.816-.826-.985-.56-1.915-1.087-2.804-1.087s-1.819.528-2.803 1.087c-.614.348-1.456.826-1.816.826s-1.202-.477-1.816-.826c-.985-.56-1.914-1.087-2.804-1.087s-1.819.528-2.803 1.087C24.202 15.522 23.36 16 23 16c-.36 0-1.202-.478-1.816-.826-.985-.56-1.914-1.088-2.803-1.088-.89 0-1.82.529-2.804 1.088-.614.348-1.455.826-1.816.826-.36 0-1.202-.478-1.816-.826-.984-.56-1.914-1.088-2.803-1.088-.89 0-1.82.529-2.804 1.088-.614.348-1.455.826-1.816.826-.36 0-1.202-.478-1.816-.826C1.758 14.634.86 14.126 0 14.09zM41.478 21c-.361 0-1.202-.478-1.816-.826-.985-.56-1.915-1.087-2.804-1.087s-1.819.528-2.803 1.087c-.614.348-1.455.826-1.816.826-.36 0-1.202-.478-1.816-.826-.984-.56-1.914-1.087-2.803-1.087-.89 0-1.82.528-2.804 1.087-.614.348-1.455.826-1.816.826-.36 0-1.202-.478-1.816-.826-.984-.56-1.914-1.087-2.803-1.087-.89 0-1.82.528-2.804 1.087-.614.348-1.455.826-1.816.826-.36 0-1.201-.478-1.815-.826-.985-.56-1.915-1.087-2.804-1.087-.89 0-1.819.528-2.803 1.087-.615.348-1.456.826-1.817.826-.36 0-1.201-.478-1.815-.826C1.757 19.634.86 19.126 0 19.09v2.006c.399.067 1.154.496 1.719.817C2.703 22.472 3.633 23 4.523 23s1.818-.528 2.803-1.087c.614-.349 1.455-.826 1.816-.826.36 0 1.202.477 1.816.826.984.559 1.914 1.087 2.803 1.087.89 0 1.82-.528 2.804-1.087.614-.349 1.455-.826 1.816-.826.36 0 1.202.477 1.816.826C21.18 22.472 22.11 23 23 23c.89 0 1.82-.528 2.804-1.087.614-.349 1.455-.826 1.816-.826.36 0 1.201.477 1.815.826C30.42 22.472 31.35 23 32.24 23c.89 0 1.819-.528 2.803-1.087.614-.349 1.456-.826 1.816-.826s1.202.477 1.816.826C39.66 22.472 40.59 23 41.478 23s1.819-.528 2.803-1.087c.565-.32 1.32-.75 1.719-.817V19.09c-.86.036-1.758.545-2.706 1.084-.614.348-1.455.826-1.816.826M46 24.09c-.86.036-1.758.545-2.706 1.084-.614.348-1.455.826-1.816.826s-1.202-.478-1.816-.826c-.985-.56-1.915-1.087-2.804-1.087s-1.819.528-2.803 1.087c-.614.348-1.455.826-1.816.826-.36 0-1.202-.478-1.816-.826-.984-.56-1.914-1.087-2.803-1.087-.89 0-1.82.528-2.804 1.087-.614.348-1.455.826-1.816.826-.36 0-1.202-.478-1.816-.826-.984-.56-1.914-1.087-2.803-1.087-.89 0-1.82.528-2.804 1.087-.614.348-1.455.826-1.816.826-.36 0-1.202-.478-1.816-.826-.984-.56-1.914-1.087-2.803-1.087-.89 0-1.82.528-2.804 1.087-.614.348-1.455.826-1.816.826-.36 0-1.202-.478-1.815-.826C1.757 24.634.86 24.126 0 24.09v2.006c.399.067 1.154.496 1.719.817C2.703 27.472 3.633 28 4.523 28s1.818-.528 2.803-1.087c.614-.349 1.455-.826 1.816-.826.36 0 1.202.477 1.816.826.984.559 1.914 1.087 2.803 1.087.89 0 1.82-.528 2.804-1.087.614-.349 1.455-.826 1.816-.826.36 0 1.202.477 1.816.826C21.18 27.472 22.11 28 23 28c.89 0 1.82-.528 2.804-1.087.614-.349 1.455-.826 1.816-.826.36 0 1.201.477 1.815.826C30.42 27.472 31.35 28 32.24 28c.89 0 1.819-.528 2.803-1.087.614-.349 1.456-.826 1.816-.826s1.202.477 1.816.826C39.66 27.472 40.59 28 41.478 28s1.819-.528 2.803-1.087c.565-.32 1.32-.75 1.719-.817z"/></g><defs><clipPath id="a"><path fill="#fff" d="M0 0h46v30H0z"/></clipPath></defs></svg>