<?xml version="1.0" encoding="iso-8859-1"?>
<!-- Generator: Adobe Illustrator 19.0.0, SVG Export Plug-In . SVG Version: 6.00 Build 0)  -->
<svg version="1.1" id="Capa_1" xmlns="http://www.w3.org/2000/svg" xmlns:xlink="http://www.w3.org/1999/xlink" x="0px" y="0px"
	 viewBox="0 0 512 512" style="enable-background:new 0 0 512 512;" xml:space="preserve">
<path style="fill:#D80027;" d="M512,85.337v171.665c-14.024,1.035-36.775,21.259-50.332,21.259
	c-13.913,0-37.51-21.293-51.423-21.293c-13.913,0-37.498,21.293-51.411,21.293c-13.913,0-37.51-21.293-51.423-21.293
	S269.913,278.261,256,278.261s-37.498-21.293-51.411-21.293c-13.913,0-37.51,21.293-51.423,21.293s-37.498-21.293-51.411-21.293
	s-37.51,21.293-51.423,21.293c-13.557,0-36.307-20.224-50.332-21.259V85.337H512z"/>
<g>
	<polygon style="fill:#FFDA44;" points="315.362,255.182 291.105,266.592 304.022,290.084 277.683,285.044 274.345,311.652 
		256,292.083 237.654,311.652 234.317,285.044 207.978,290.081 220.893,266.591 196.638,255.182 220.895,243.772 207.978,220.281 
		234.316,225.319 237.655,198.712 256,218.281 274.346,198.712 277.683,225.319 304.023,220.281 291.108,243.773 	"/>
	<path style="fill:#FFDA44;" d="M300.522,152.116H267.13c0-6.146-4.984-11.13-11.13-11.13s-11.13,4.984-11.13,11.13h-33.391
		c0,6.147,5.355,11.13,11.501,11.13h-0.371c0,6.147,4.983,11.13,11.13,11.13c0,6.147,4.983,11.13,11.13,11.13h22.261
		c6.146,0,11.13-4.983,11.13-11.13c6.146,0,11.13-4.983,11.13-11.13h-0.371C295.167,163.247,300.522,158.263,300.522,152.116z"/>
</g>
<path style="fill:#0052B4;" d="M512,257.002v169.661H0V257.002c14.024,1.035,36.775,21.259,50.332,21.259
	c13.913,0,37.51-21.293,51.423-21.293s37.498,21.293,51.411,21.293s37.51-21.293,51.423-21.293
	c13.913,0,37.498,21.293,51.411,21.293s37.498-21.293,51.411-21.293s37.51,21.293,51.423,21.293
	c13.913,0,37.498-21.293,51.411-21.293c13.913,0,37.51,21.293,51.423,21.293C475.225,278.261,497.976,258.037,512,257.002z"/>
<g>
	<path style="fill:#F0F0F0;" d="M0,268.206c4.437,0.746,12.847,5.516,19.131,9.086c10.958,6.223,21.308,12.1,31.205,12.1
		s20.246-5.877,31.204-12.1c6.835-3.881,16.196-9.197,20.212-9.197s13.378,5.315,20.212,9.197c10.958,6.223,21.308,12.1,31.204,12.1
		c9.896,0,20.246-5.877,31.204-12.1c6.834-3.881,16.195-9.197,20.211-9.197c4.016,0,13.378,5.315,20.212,9.197
		c10.959,6.223,21.308,12.1,31.205,12.1s20.246-5.877,31.204-12.1c6.835-3.881,16.196-9.197,20.212-9.197s13.378,5.315,20.211,9.197
		c10.958,6.223,21.308,12.1,31.205,12.1s20.246-5.877,31.204-12.1c6.835-3.881,16.196-9.197,20.212-9.197s13.378,5.315,20.212,9.197
		c10.958,6.223,21.308,12.1,31.204,12.1s20.246-5.877,31.204-12.1c6.284-3.57,14.694-8.34,19.131-9.086v-22.332
		c-9.57,0.404-19.565,6.064-30.125,12.061c-6.834,3.881-16.195,9.197-20.211,9.197s-13.378-5.315-20.212-9.197
		c-10.958-6.223-21.308-12.1-31.204-12.1s-20.246,5.877-31.204,12.1c-6.835,3.881-16.196,9.197-20.212,9.197
		s-13.378-5.315-20.211-9.197c-10.958-6.223-21.308-12.1-31.204-12.1c-9.896,0-20.246,5.877-31.204,12.1
		c-6.835,3.881-16.197,9.196-20.213,9.196s-13.378-5.315-20.212-9.197c-10.958-6.223-21.308-12.1-31.204-12.1
		s-20.246,5.877-31.204,12.1c-6.834,3.881-16.195,9.197-20.211,9.197s-13.378-5.315-20.212-9.197
		c-10.958-6.223-21.308-12.1-31.204-12.1s-20.246,5.877-31.204,12.1c-6.836,3.882-16.197,9.197-20.213,9.197
		s-13.378-5.315-20.211-9.197C19.565,251.936,9.57,246.276,0,245.872V268.206z"/>
	<path style="fill:#F0F0F0;" d="M461.664,322.783c-4.016,0-13.378-5.315-20.212-9.197c-10.958-6.223-21.308-12.1-31.204-12.1
		s-20.246,5.877-31.204,12.1c-6.835,3.881-16.196,9.197-20.212,9.197s-13.378-5.315-20.211-9.197
		c-10.958-6.223-21.308-12.1-31.204-12.1c-9.896,0-20.246,5.877-31.204,12.1c-6.835,3.882-16.197,9.197-20.213,9.197
		s-13.378-5.315-20.212-9.197c-10.958-6.223-21.308-12.1-31.204-12.1s-20.246,5.877-31.204,12.1
		c-6.834,3.881-16.195,9.197-20.211,9.197s-13.378-5.315-20.212-9.197c-10.958-6.223-21.308-12.1-31.204-12.1
		s-20.246,5.877-31.204,12.1c-6.836,3.882-16.197,9.197-20.213,9.197s-13.378-5.315-20.211-9.197
		C19.565,307.588,9.57,301.929,0,301.525v22.332c4.437,0.746,12.847,5.516,19.131,9.086c10.958,6.224,21.308,12.101,31.205,12.101
		s20.246-5.877,31.204-12.1c6.835-3.881,16.196-9.197,20.212-9.197s13.378,5.315,20.212,9.197c10.958,6.223,21.308,12.1,31.204,12.1
		c9.896,0,20.246-5.877,31.204-12.1c6.834-3.881,16.195-9.197,20.211-9.197c4.016,0,13.378,5.315,20.212,9.197
		c10.959,6.223,21.308,12.1,31.205,12.1s20.246-5.877,31.204-12.1c6.835-3.881,16.196-9.197,20.212-9.197s13.378,5.315,20.211,9.197
		c10.958,6.223,21.308,12.1,31.205,12.1s20.246-5.877,31.204-12.1c6.835-3.881,16.196-9.197,20.212-9.197s13.378,5.315,20.212,9.197
		c10.958,6.223,21.308,12.1,31.204,12.1s20.246-5.877,31.204-12.1c6.284-3.57,14.694-8.34,19.131-9.086v-22.332
		c-9.57,0.404-19.565,6.064-30.125,12.061C475.041,317.468,465.681,322.783,461.664,322.783z"/>
	<path style="fill:#F0F0F0;" d="M512,357.177c-9.57,0.404-19.565,6.064-30.125,12.061c-6.834,3.881-16.195,9.197-20.211,9.197
		s-13.378-5.315-20.212-9.197c-10.958-6.223-21.308-12.1-31.204-12.1s-20.246,5.877-31.204,12.1
		c-6.835,3.881-16.196,9.197-20.212,9.197c-4.016,0-13.378-5.315-20.211-9.197c-10.958-6.223-21.308-12.1-31.204-12.1
		s-20.246,5.877-31.204,12.1c-6.836,3.882-16.198,9.197-20.214,9.197s-13.378-5.315-20.212-9.197
		c-10.958-6.223-21.308-12.1-31.204-12.1s-20.246,5.877-31.204,12.1c-6.834,3.881-16.195,9.197-20.211,9.197
		s-13.378-5.315-20.212-9.197c-10.958-6.223-21.308-12.1-31.204-12.1s-20.246,5.877-31.204,12.1
		c-6.836,3.882-16.197,9.197-20.213,9.197s-13.378-5.315-20.211-9.197C19.565,363.241,9.57,357.581,0,357.177v22.332
		c4.437,0.746,12.847,5.516,19.131,9.086c10.958,6.224,21.308,12.101,31.205,12.101s20.246-5.877,31.204-12.1
		c6.835-3.881,16.196-9.197,20.212-9.197s13.378,5.315,20.212,9.197c10.958,6.223,21.308,12.1,31.204,12.1
		c9.896,0,20.246-5.877,31.204-12.1c6.834-3.881,16.195-9.197,20.211-9.197c4.016,0,13.378,5.315,20.212,9.197
		c10.959,6.223,21.308,12.1,31.205,12.1s20.246-5.877,31.204-12.1c6.835-3.881,16.196-9.197,20.212-9.197s13.378,5.315,20.211,9.197
		c10.958,6.223,21.308,12.1,31.205,12.1s20.246-5.877,31.204-12.1c6.835-3.881,16.196-9.197,20.212-9.197s13.378,5.315,20.212,9.197
		c10.958,6.223,21.308,12.1,31.204,12.1s20.246-5.877,31.204-12.1c6.284-3.57,14.694-8.34,19.131-9.086v-22.333H512z"/>
</g>
<g>
</g>
<g>
</g>
<g>
</g>
<g>
</g>
<g>
</g>
<g>
</g>
<g>
</g>
<g>
</g>
<g>
</g>
<g>
</g>
<g>
</g>
<g>
</g>
<g>
</g>
<g>
</g>
<g>
</g>
</svg>
