<svg xmlns="http://www.w3.org/2000/svg" fill="none" viewBox="0 0 46 30"><g clip-path="url(#a)"><path fill="#338AF3" d="M46-.334H0v30.667h46z"/><path fill="#818085" d="M31 16.332H15v2h16z"/><path fill="#FFDA44" d="m17.667 10.333 5.333.666 5.333-.666v-3.2L26.2 8.199 23 5l-3.2 3.2-2.133-1.066z"/><path fill="#F0F0F0" d="M16.333 20.333h-2v-3.667l.667-1-.667-1v-2.333h2zM31.667 20.333h-2v-8h2v2.333L31 15.683l.666.983z"/><path fill="#ACABB1" d="M31.666 14.666H14.333v2h17.333z"/><path fill="#F0F0F0" d="M23 23a5.34 5.34 0 0 1-5.333-5.334v-7.333h10.666v7.333A5.34 5.34 0 0 1 23 23"/><path fill="#0052B4" d="M23 21a3.337 3.337 0 0 1-3.334-3.334v-5.333h6.667v5.333A3.337 3.337 0 0 1 23 21"/><path fill="#D80027" d="M19.667 10.333h-2v2h2zM28.333 10.333h-2v2h2zM28.333 14.666h-2v2h2zM19.667 14.666h-2v2h2zM24 10.333h-2v2h2zM23 21c-.348 0-.684-.054-1-.154v2.058a5.3 5.3 0 0 0 2 0v-2.058c-.316.1-.652.154-1 .154M19.711 18.207l-1.596 1.596c.277.63.672 1.197 1.157 1.672l1.413-1.413a3.33 3.33 0 0 1-.974-1.855M27.885 19.803l-1.596-1.596a3.33 3.33 0 0 1-.975 1.854l1.414 1.414a5.4 5.4 0 0 0 1.157-1.672"/></g><defs><clipPath id="a"><path fill="#fff" d="M0 0h46v30H0z"/></clipPath></defs></svg>