<svg xmlns="http://www.w3.org/2000/svg" fill="none" viewBox="0 0 46 30"><g clip-path="url(#a)"><path fill="#0052B4" d="M46-.333H0v30.667h46z"/><path fill="#338AF3" d="M30.028 9.25v7.027c0 3.424 4.472 4.473 4.472 4.473s4.472-1.05 4.472-4.473V9.25z"/><path fill="#A2001D" d="M30.028 16.277c0 3.424 4.472 4.473 4.472 4.473s4.472-1.05 4.472-4.473z"/><path fill="#000" d="M36.417 12.444h-1.279v-1.278h-1.277v1.278h-1.278v1.278h1.278v3.833h1.278v-3.833h1.277z"/><path fill="#F0F0F0" d="M23-.333v2.745l-4.058 2.255H23V10h-5.31L23 12.95V15h-2.397L14 11.332V15H9v-4.364L1.145 15H0v-2.745L4.058 10H0V4.667h5.31L0 1.716v-2.05h2.397L9 3.335V-.333h5V4.03l7.855-4.363z"/><path fill="#D80027" d="M12.937-.334h-2.875v6.23H0V8.77h10.062V15h2.875V8.77H23V5.895H12.937z"/><path fill="#0052B4" d="m14 10 9 5v-1.414L16.545 10z"/><path fill="#F0F0F0" d="m14 10 9 5v-1.414L16.545 10z"/><path fill="#D80027" d="m14 10 9 5v-1.414L16.545 10zM6.455 10 0 13.586V15l9-5z"/><path fill="#0052B4" d="m9 4.666-9-5V1.08l6.455 3.586z"/><path fill="#F0F0F0" d="m9 4.666-9-5V1.08l6.455 3.586z"/><path fill="#D80027" d="m9 4.666-9-5V1.08l6.455 3.586zM16.545 4.666 23 1.08V-.334l-9 5z"/></g><defs><clipPath id="a"><path fill="#fff" d="M0 0h46v30H0z"/></clipPath></defs></svg>