<svg xmlns="http://www.w3.org/2000/svg" fill="none" viewBox="0 0 46 30"><g clip-path="url(#a)"><path fill="#338AF3" d="M46-.334H0v30.667h46z"/><path fill="#F3F3F3" d="M22.593 23.271a.85.85 0 0 1-.755-.554.85.85 0 0 1-1.514-.39.85.85 0 0 1-1.404-.69.848.848 0 0 1-1.237-.956.848.848 0 0 1-1.02-1.184.85.85 0 0 1-.76-1.366.848.848 0 0 1-.47-1.492.848.848 0 0 1-.158-1.555.85.85 0 0 1 .155-1.555.85.85 0 0 1 .466-1.493.85.85 0 0 1 .758-1.367.849.849 0 0 1 1.017-1.187.849.849 0 0 1 1.234-.96.85.85 0 0 1 1.403-.69.849.849 0 0 1 1.512-.395.85.85 0 0 1 1.561-.08.849.849 0 0 1 1.546.233.849.849 0 0 1 1.468.54.849.849 0 0 1 1.327.826.85.85 0 0 1 1.135 1.074.849.849 0 0 1 .897 1.281.85.85 0 0 1 .62 1.436.848.848 0 0 1 .317 1.53.85.85 0 0 1 .517.78v.019a.85.85 0 0 1-.516.782.848.848 0 0 1-.314 1.53.85.85 0 0 1-.617 1.438.849.849 0 0 1-.893 1.283.85.85 0 0 1-1.133 1.077.85.85 0 0 1-1.325.828.85.85 0 0 1-1.466.544.85.85 0 0 1-1.546.236.85.85 0 0 1-.805.477"/><path fill="#338AF3" d="M23.003 20.734a5.659 5.659 0 1 0 0-11.318 5.659 5.659 0 0 0 0 11.318"/><path fill="#BDBCC1" d="M24.242 13.155c.278-.206.46-.536.46-.909v-.566c0-.625-.508-1.131-1.133-1.131h-1.131c-.625 0-1.132.506-1.132 1.131v.566c0 .373.181.703.459.909l-1.025 10.41s.566.565 2.264.565 2.263-.566 2.263-.566z"/><path fill="#F0F0F0" d="m23.003 10.549.983 3.026h3.183l-2.575 1.87.984 3.026-2.575-1.87-2.574 1.87.983-3.026-2.574-1.87h3.182z"/></g><defs><clipPath id="a"><path fill="#fff" d="M0 0h46v30H0z"/></clipPath></defs></svg>