<svg xmlns="http://www.w3.org/2000/svg" fill="none" viewBox="0 0 46 30"><g clip-path="url(#a)"><path fill="#0052B4" d="M46-.333H0v30.667h46z"/><path fill="#ACABB1" d="m36 11.75-1.5.5-1.5-.5-.5-1.25.5-1.25h3l-.5 1.25z"/><path fill="#338AF3" d="M31 11.75v5.5c0 2.679 3.5 3.5 3.5 3.5s3.5-.821 3.5-3.5v-5.5z"/><path fill="#6DA544" d="M31.315 18.552c.86 1.652 3.185 2.198 3.185 2.198s2.324-.546 3.185-2.198L34.5 13.25z"/><path fill="#FFDA44" d="m38 17.194-3.5-5.444-3.5 5.444v.056c0 .495.12.927.316 1.302L34.5 13.6l3.185 4.953A2.8 2.8 0 0 0 38 17.25z"/><path fill="#F0F0F0" d="M23-.333v2.745l-4.058 2.255H23V10h-5.31L23 12.95V15h-2.397L14 11.332V15H9v-4.364L1.145 15H0v-2.745L4.058 10H0V4.667h5.31L0 1.716v-2.05h2.397L9 3.335V-.333h5V4.03l7.855-4.363z"/><path fill="#D80027" d="M12.938-.334h-2.876v6.23H0V8.77h10.063V15h2.874V8.77H23V5.895H12.938z"/><path fill="#0052B4" d="m14 10 9 5v-1.414L16.545 10z"/><path fill="#F0F0F0" d="m14 10 9 5v-1.414L16.545 10z"/><path fill="#D80027" d="m14 10 9 5v-1.414L16.545 10zM6.455 10 0 13.586V15l9-5z"/><path fill="#0052B4" d="m9 4.666-9-5V1.08l6.455 3.586z"/><path fill="#F0F0F0" d="m9 4.666-9-5V1.08l6.455 3.586z"/><path fill="#D80027" d="m9 4.666-9-5V1.08l6.455 3.586zM16.545 4.666 23 1.08V-.334l-9 5z"/></g><defs><clipPath id="a"><path fill="#fff" d="M0 0h46v30H0z"/></clipPath></defs></svg>