<svg xmlns="http://www.w3.org/2000/svg" fill="none" viewBox="0 0 46 30"><g clip-path="url(#a)"><path fill="#0052B4" d="M46-.333H0v30.666h46z"/><path fill="#D80027" d="M46-.333v14.976l-46 .373V-.334z"/><path fill="#F0F0F0" d="M38.333 15c.004.004-15.319 15.344-15.333 15.333C22.986 30.344 7.663 15.004 7.667 15 7.663 14.996 22.986-.344 23-.333c.014-.01 15.337 15.33 15.333 15.333"/><path fill="#FFDA44" d="m23 7.667 1.655 5.093h5.355l-4.333 3.147L27.332 21 23 17.852 18.668 21l1.654-5.093-4.332-3.147h5.355z"/></g><defs><clipPath id="a"><path fill="#fff" d="M0 0h46v30H0z"/></clipPath></defs></svg>