<svg xmlns="http://www.w3.org/2000/svg" fill="none" viewBox="0 0 46 30"><g clip-path="url(#a)"><path fill="#D80027" d="M46-.333H0v30.667h46z"/><path fill="#6DA544" d="M46-.334H0v30.667"/><path fill="#FFDA44" d="M40.131-.334H37.54L0 24.693v5.64h8.46L46 5.306v-5.64z"/><path fill="#000" d="M46-.334h-5.869L0 26.421v3.912h5.869L46 3.579z"/><path fill="#F0F0F0" d="m16.733 15.893 1.698 1.305 1.766-1.211-.717 2.018 1.699 1.306-2.142-.058-.716 2.018-.607-2.054-2.141-.058 1.766-1.212zM25.981 9.548l1.699 1.306 1.766-1.212-.717 2.019 1.698 1.305-2.14-.058-.718 2.019-.606-2.055-2.142-.057 1.767-1.212z"/></g><defs><clipPath id="a"><path fill="#fff" d="M0 0h46v30H0z"/></clipPath></defs></svg>