<svg xmlns="http://www.w3.org/2000/svg" fill="none" viewBox="0 0 46 30"><g clip-path="url(#a)"><path fill="#D80027" d="M46-.333H0v30.667h46z"/><path fill="#0052B4" d="M45 .667H1v28.667h44z"/><path fill="#D80027" d="M11.787 15 23 7.951l11.212 7.047L23 22.048z"/><path fill="#D80027" d="M22.5-.334V14.5H0v1h22.5v14.833h1V15.5H46v-1H23.5V-.334z"/><path fill="#F0F0F0" d="M13.667 15 23 9.133 32.333 15 23 20.866z"/><path fill="#6DA544" d="m29.2 16.968-1.11.698H17.667l.058-.116L19 15l1.333 1.332H23l1.333-2 1.334.667L27 13.667z"/><path fill="#FFDA44" d="m23 11 .331 1.018h1.071l-.867.63.332 1.018-.867-.63-.866.63.33-1.018-.866-.63h1.071z"/></g><defs><clipPath id="a"><path fill="#fff" d="M0 0h46v30H0z"/></clipPath></defs></svg>