<svg xmlns="http://www.w3.org/2000/svg" fill="none" viewBox="0 0 46 30"><g clip-path="url(#a)"><path fill="#0052B4" d="M46-.333H0v30.666h46z"/><path fill="#D80027" d="M46-.334v14.976l-46 .373V-.334z"/><path fill="#F0F0F0" d="M23 15 0 30.334V-.334z"/><path fill="#FFDA44" d="M5.356 15q-.016.203-.017.41A5.34 5.34 0 1 0 16 15zM10.679 12.536a1.643 1.643 0 1 0 0-3.286 1.643 1.643 0 0 0 0 3.286"/><path fill="#D80027" d="M6.982 10.482v5.34c0 2.829 3.696 3.696 3.696 3.696s3.697-.867 3.697-3.697v-5.339z"/><path fill="#338AF3" d="M10.68 17.798c-.686-.246-2.055-.877-2.055-1.977v-3.696h4.107v3.696c0 1.104-1.37 1.733-2.052 1.977"/><path fill="#F3F3F3" d="M11.5 14.178v-.82l-.822-.412-.821.411v.821l-.41.411v1.643h2.463V14.59z"/></g><defs><clipPath id="a"><path fill="#fff" d="M0 0h46v30H0z"/></clipPath></defs></svg>