<svg xmlns="http://www.w3.org/2000/svg" fill="none" viewBox="0 0 46 30"><g clip-path="url(#a)"><path fill="#D80027" d="M46-.333H0v30.666h46z"/><path fill="#6DA544" d="M17.667-.333v30.666H0V-.333z"/><path fill="#FFDA44" d="M17.667 20.75a5.75 5.75 0 1 0 0-11.5 5.75 5.75 0 0 0 0 11.5"/><path fill="#D80027" d="M14.432 12.125v3.594a3.234 3.234 0 1 0 6.47 0v-3.594z"/><path fill="#F0F0F0" d="M17.667 16.797a1.08 1.08 0 0 1-1.078-1.078V14.28h2.156v1.438a1.08 1.08 0 0 1-1.078 1.078"/></g><defs><clipPath id="a"><path fill="#fff" d="M0 0h46v30H0z"/></clipPath></defs></svg>