<svg xmlns="http://www.w3.org/2000/svg" fill="none" viewBox="0 0 46 30"><g clip-path="url(#a)"><path fill="#496E2D" d="M46-.333H0v30.667h46z"/><path fill="#0052B4" d="M0 30.333V-.334h46"/><path fill="#FFDA44" d="M0 27.622v2.71h4.066L46 2.378v-2.71h-4.066z"/><path fill="#F0F0F0" d="m7.698 1.774.46 1.415h1.489l-1.205.875.46 1.416-1.204-.875-1.204.875.46-1.416L5.75 3.19h1.488zM15.301 1.774l.46 1.415h1.489l-1.205.875.46 1.416-1.204-.875-1.204.875.46-1.416-1.204-.875h1.488zM7.698 9.186l.46 1.416h1.489l-1.205.874.46 1.416-1.204-.875-1.204.875.46-1.415-1.204-.875h1.488zM15.301 9.186l.46 1.416h1.489l-1.205.874.46 1.416-1.204-.875-1.204.875.46-1.415-1.204-.875h1.488zM11.5 5.48l.46 1.415h1.488l-1.204.875.46 1.416-1.204-.875-1.205.875.46-1.416-1.204-.875h1.489z"/></g><defs><clipPath id="a"><path fill="#fff" d="M0 0h46v30H0z"/></clipPath></defs></svg>