<svg xmlns="http://www.w3.org/2000/svg" fill="none" viewBox="0 0 46 30"><g clip-path="url(#a)"><path fill="#F0F0F0" d="M46-.333H0v30.666h46z"/><path fill="#496E2D" d="M46-.333H0V9.889h46z"/><path fill="#D80027" d="M46 20.111H0v10.222h46z"/><path fill="#000" d="m23 11.667.827 2.546h2.678l-2.166 1.574.827 2.546L23 16.76l-2.166 1.573.827-2.546-2.166-1.574h2.678z"/><path fill="#F0F0F0" d="M27.555 2.667v3.11a.89.89 0 0 1-.889.89V8a2.225 2.225 0 0 0 2.223-2.222V2.667zM18 5.778a.89.89 0 0 1-.889.889V8a2.225 2.225 0 0 0 2.222-2.222V2.667H18z"/><path fill="#F0F0F0" d="M26.889 2.667h-1.333v3.111h1.333zM23.555 4.444a.223.223 0 0 1-.444 0V2.667h-1.333v1.777a.223.223 0 0 1-.445 0V2.667H20v1.777a1.557 1.557 0 0 0 2.444 1.276 1.55 1.55 0 0 0 1.086.267.89.89 0 0 1-.863.68V8a2.225 2.225 0 0 0 2.222-2.222V2.667h-1.333z"/><path fill="#F0F0F0" d="M22 6.667h-2V8h2z"/></g><defs><clipPath id="a"><path fill="#fff" d="M0 0h46v30H0z"/></clipPath></defs></svg>