<svg xmlns="http://www.w3.org/2000/svg" fill="none" viewBox="0 0 46 30"><g clip-path="url(#a)"><path fill="#0052B4" d="M46-.333H0v30.666h46z"/><path fill="#F0F0F0" d="m18.931 7.667.331 1.018h1.071l-.866.63.33 1.018-.866-.63-.866.63.33-1.018-.866-.63H18.6zM10.495 17.333l.414 1.274h1.338l-1.083.786.414 1.274-1.083-.787-1.083.787.414-1.274-1.083-.787h1.338zM13 2.752l.414 1.274h1.338l-1.083.786.414 1.274L13 5.299l-1.083.787.414-1.274-1.083-.786h1.338zM6.248 7.752l.413 1.274H8l-1.083.786.414 1.274-1.083-.787-1.084.787.414-1.274-1.083-.786h1.339z"/><path fill="#FFDA44" d="M43.43 23.85H10.583S20.398 15.893 38.489 4c0 0-7.947 11.584 4.94 19.85M10.584 24.89c-1.005 0-1.006 1.561 0 1.561h32.845c1.004 0 1.006-1.56 0-1.56z"/></g><defs><clipPath id="a"><path fill="#fff" d="M0 0h46v30H0z"/></clipPath></defs></svg>