<svg xmlns="http://www.w3.org/2000/svg" fill="none" viewBox="0 0 46 30"><g clip-path="url(#a)"><path fill="#0052B4" d="M46-.333H0v30.667h46z"/><path fill="#FFDA44" d="M29.833 9.25v7.027c0 3.424 4.667 4.473 4.667 4.473s4.667-1.05 4.667-4.473V9.25z"/><path fill="#FF9811" d="M33.833 11.805c0 .706-.597 2.556-1.333 2.556s-1.333-1.85-1.333-2.556 1.333-1.278 1.333-1.278 1.333.572 1.333 1.278"/><path fill="#A2001D" d="M37.371 13.197c.215-.503.383-1.239.383-1.605 0-.588-.8-1.065-.8-1.065s-.8.477-.8 1.065c0 .366.167 1.102.382 1.605l-.462 1a2.42 2.42 0 0 0 1.76 0z"/><path fill="#6DA544" d="M33.5 16.277s-.667 1.278-.667 2.556h3.334c0-1.278-.667-2.556-.667-2.556l-1-.639z"/><path fill="#D80027" d="M35.5 16.277v-.32c0-.529-.448-.958-1-.958s-1 .43-1 .959v.32z"/><path fill="#F0F0F0" d="M23-.333v2.745l-4.058 2.255H23V10h-5.31L23 12.95V15h-2.397L14 11.332V15H9v-4.364L1.145 15H0v-2.745L4.058 10H0V4.667h5.31L0 1.716v-2.05h2.397L9 3.336V-.334h5V4.03l7.855-4.364z"/><path fill="#D80027" d="M12.937-.334h-2.875v6.23H0V8.77h10.062V15h2.875V8.77H23V5.895H12.937z"/><path fill="#0052B4" d="m14 10 9 5v-1.414L16.545 10z"/><path fill="#F0F0F0" d="m14 10 9 5v-1.414L16.545 10z"/><path fill="#D80027" d="m14 10 9 5v-1.414L16.545 10zM6.455 10 0 13.586V15l9-5z"/><path fill="#0052B4" d="m9 4.666-9-5V1.08l6.455 3.586z"/><path fill="#F0F0F0" d="m9 4.666-9-5V1.08l6.455 3.586z"/><path fill="#D80027" d="m9 4.666-9-5V1.08l6.455 3.586zM16.545 4.666 23 1.08V-.334l-9 5z"/></g><defs><clipPath id="a"><path fill="#fff" d="M0 0h46v30H0z"/></clipPath></defs></svg>