<svg xmlns="http://www.w3.org/2000/svg" fill="none" viewBox="0 0 46 30"><g clip-path="url(#a)"><path fill="#F0F0F0" d="M46-.333H0v30.667h46z"/><path fill="#D80027" d="M25.875-.334h-5.75v12.459H0v5.75h20.125v12.458h5.75V17.875H46v-5.75H25.875z"/><path fill="#0052B4" d="m35.38 20.333 10.62 5.9v-5.9zM28 20.333l18 10v-2.828l-12.91-7.172zM41.206 30.333 28 22.996v7.337z"/><path fill="#F0F0F0" d="m28 20.333 18 10v-2.828l-12.91-7.172z"/><path fill="#D80027" d="m28 20.333 18 10v-2.828l-12.91-7.172z"/><path fill="#0052B4" d="M8.117 20.333 0 24.842v-4.51zM18 21.604v8.729H2.29z"/><path fill="#D80027" d="M12.91 20.333 0 27.505v2.828l18-10z"/><path fill="#0052B4" d="m10.621 9.666-10.62-5.9v5.9zM18 9.666l-18-10v2.828l12.91 7.172zM4.795-.334 18 7.003V-.334z"/><path fill="#F0F0F0" d="m18 9.666-18-10v2.828l12.91 7.172z"/><path fill="#D80027" d="m18 9.666-18-10v2.828l12.91 7.172z"/><path fill="#0052B4" d="M37.884 9.666 46 5.157v4.51zM28 8.395V-.334h15.71z"/><path fill="#D80027" d="M33.09 9.666 46 2.494V-.334l-18 10z"/></g><defs><clipPath id="a"><path fill="#fff" d="M0 0h46v30H0z"/></clipPath></defs></svg>