<svg xmlns="http://www.w3.org/2000/svg" fill="none" viewBox="0 0 46 30"><g clip-path="url(#a)"><path fill="#0052B4" d="M46-.334H0v30.667h46z"/><path fill="#F0F0F0" d="m14.402 9 .33 1.018h1.072l-.867.63.331 1.018-.866-.63-.867.63.331-1.018-.866-.63h1.07zM17.735 8l.331 1.018h1.071l-.866.63.33 1.018-.866-.63-.866.63.33-1.018-.866-.63h1.071zM21.069 7l.33 1.018h1.071l-.866.63.33 1.018-.866-.63-.866.63.331-1.018-.866-.63h1.07zM31.598 9l-.331 1.018h-1.07l.866.63-.331 1.018.866-.63.867.63-.331-1.018.866-.63h-1.07zM28.265 8l-.331 1.018h-1.071l.866.63-.33 1.018.866-.63.866.63-.33-1.018.866-.63h-1.071zM24.931 7l-.33 1.018h-1.072l.867.63-.331 1.018.866-.63.867.63-.331-1.018.866-.63h-1.07z"/><path fill="#FFDA44" d="M25.667 15.666 23 12.333l-1.333.666v1.334l-2 1.333h-1.334v1.722a5.33 5.33 0 0 1 3.334 4.944H23V21l1.333-1.333 1.334 1.333L27 19.666v-1.333l1.333-2z"/></g><defs><clipPath id="a"><path fill="#fff" d="M0 0h46v30H0z"/></clipPath></defs></svg>