<svg xmlns="http://www.w3.org/2000/svg" fill="none" viewBox="0 0 46 30"><g clip-path="url(#a)"><path fill="#000" d="M46-.333H0v30.666h46z"/><path fill="#6DA544" d="M46 15v15.333H0L19.333 15z"/><path fill="#D80027" d="M46-.333V15H19.333L0-.333z"/><path fill="#000" d="M19.855 13.5 2.414-.333H.804L19.507 14.5H46v-1zM.804 30.333h1.61L19.855 16.5H46v-1H19.507zM0 .305v1.276L16.92 15 0 28.418v1.277L18.528 15z"/><path fill="#FFDA44" d="M.805-.333H0v.638L18.528 15 0 29.695v.638h.805L19.507 15.5H46v-1H19.507z"/><path fill="#FFDA44" d="M5.725 18.269v-1.285a2.327 2.327 0 0 0 2.324-2.324c0-.907-.738-1.644-1.645-1.644-.617 0-1.12.502-1.12 1.12 0 .395.321.716.717.716a.406.406 0 0 0 .405-.405H7.69c0 .932-.758 1.69-1.69 1.69-1.103 0-2-.898-2-2.001a2.407 2.407 0 0 1 2.404-2.405 2.93 2.93 0 0 1 2.93 2.929 3.613 3.613 0 0 1-3.61 3.608"/></g><defs><clipPath id="a"><path fill="#fff" d="M0 0h46v30H0z"/></clipPath></defs></svg>