<svg xmlns="http://www.w3.org/2000/svg" fill="none" viewBox="0 0 46 30"><g clip-path="url(#a)"><path fill="#496E2D" d="M46-.333H0v30.666h46z"/><path fill="#000" d="M0 12.125v5.75h46v-5.75z"/><path fill="#FFDA44" d="M46 12.125H0v1.917h46z"/><path fill="#F0F0F0" d="M46 15.958H0v1.917h46z"/><path fill="#000" d="M25.875-.333h-5.75v30.666h5.75z"/><path fill="#FFDA44" d="M22.04-.333h-1.915v30.666h1.916z"/><path fill="#F0F0F0" d="M25.875-.333h-1.916v30.666h1.916z"/><path fill="#D80027" d="M23 22.333a7.333 7.333 0 1 0 0-14.666 7.333 7.333 0 0 0 0 14.666"/><path fill="#496E2D" d="M24.67 15.818c-.545-1.09-1.254-2.197-1.254-2.197s.018-.503.018-.803a.818.818 0 0 0-1.633-.07.645.645 0 0 0-.256 1.215.93.93 0 0 1 .552-.512 1 1 0 0 0 .13.087l.105.05s-.389 1.096-.389 1.685c0 1.654 1.091 2.165 1.091 2.165v.017L22.49 18h1.09v-1.091l.546.546c.005-.01 1.034-.661.546-1.637M23 9l.248.764h.803l-.65.472.249.764-.65-.472-.65.472.248-.764-.65-.472h.804zM19.473 10.146l.65.472.65-.472-.248.764.65.472h-.803l-.249.764-.248-.764h-.803l.65-.472zM17.294 13.146h.803l.248-.764.248.764h.803l-.65.472.25.764-.65-.472-.65.472.247-.764zM17.294 16.854l.65-.472-.249-.764.65.472.65-.472-.248.764.65.472h-.804l-.248.764-.248-.764zM19.474 19.854l.248-.764-.65-.472h.803l.248-.764.249.764h.803l-.65.472.248.764-.65-.472zM23 21l-.248-.764h-.803l.65-.472L22.35 19l.65.472.65-.472-.248.764.65.472h-.804zM26.527 19.854l-.65-.472-.65.472.248-.764-.65-.472h.804l.248-.764.248.764h.803l-.65.472zM28.706 16.854h-.803l-.248.764-.248-.764h-.804l.65-.472-.248-.764.65.472.65-.472-.248.764zM28.706 13.146l-.65.472.249.764-.65-.472-.65.472.248-.764-.65-.472h.804l.248-.764.248.764zM26.527 10.146l-.248.764.65.472h-.804l-.248.764-.248-.764h-.804l.65-.472-.248-.764.65.472z"/></g><defs><clipPath id="a"><path fill="#fff" d="M0 0h46v30H0z"/></clipPath></defs></svg>