<svg xmlns="http://www.w3.org/2000/svg" fill="none" viewBox="0 0 46 30"><g clip-path="url(#a)"><path fill="#2E52B2" d="M46-.333H0v30.667h46z"/><path fill="#F0F0F0" d="M23-.333v2.032l-4.14 2.759H23v5.75h-4.14l4.14 2.76V15h-2.033l-6.592-4.395V15h-5.75v-4.395L2.033 15H0v-2.032l4.139-2.76h-4.14v-5.75h4.14l-4.14-2.76V-.332h2.034L8.625 4.06V-.333h5.75V4.06l6.592-4.394z"/><path fill="#D80027" d="M12.937-.334h-2.875v6.23H-.001V8.77h10.063V15h2.875V8.77h10.062V5.895H12.937z"/><path fill="#D80027" d="M0-.334v1.355l5.154 3.437h2.033zM23-.334v1.355l-5.155 3.437h-2.033z"/><path fill="#D80027" d="M0-.334v1.355l5.154 3.437h2.033zM23-.334v1.355l-5.155 3.437h-2.033zM0 15v-1.355l5.154-3.437h2.033zM23 15v-1.355l-5.155-3.437h-2.033z"/><path fill="#F3F3F3" d="M29.833 10.666V16c0 3.572 4.667 4.666 4.667 4.666s4.666-1.094 4.666-4.666v-5.334L34.5 9.333z"/><path fill="#D80027" d="M39.166 11V9h-9.333v2h4v4h-4v1.333h4v4.462c.403.142.667.205.667.205s.264-.062.666-.205v-4.462h4V15h-4v-4z"/></g><defs><clipPath id="a"><path fill="#fff" d="M0 0h46v30H0z"/></clipPath></defs></svg>