<svg xmlns="http://www.w3.org/2000/svg" fill="none" viewBox="0 0 46 30"><g clip-path="url(#a)"><path fill="#496E2D" d="M46-.334H0v30.667h46z"/><path fill="#F0F0F0" d="M25.667 14.36c-.377 0-.734.075-1.066.195.182-.406.304-.857.304-1.338 0-1.905-1.905-3.333-1.905-3.333s-1.905 1.428-1.905 3.333c0 .481.122.932.304 1.338a3.1 3.1 0 0 0-1.066-.195c-1.905 0-3.333 1.905-3.333 1.905s1.428 1.905 3.333 1.905c1.117 0 2.07-.655 2.667-1.197.597.542 1.55 1.197 2.667 1.197 1.904 0 3.333-1.905 3.333-1.905s-1.428-1.905-3.333-1.905"/><path fill="#FFDA44" d="m23 5.666.394 1.21h1.273l-1.03.75.393 1.21L23 8.088l-1.03.748.394-1.21-1.03-.75h1.273zM18.159 7.784l.757.681.882-.509-.414.93.756.682-1.012-.106-.415.93-.212-.996-1.013-.107.883-.509zM14.615 11.328l.996.212.51-.882.106 1.013.996.212-.93.414.106 1.013-.682-.757-.93.414.51-.882zM27.842 7.784l-.757.681-.882-.509.414.93-.757.682 1.013-.106.414.93.212-.996 1.013-.107-.882-.509zM31.386 11.328l-.996.212-.51-.882-.106 1.013-.996.212.93.414-.106 1.013.681-.757.93.414-.509-.882z"/><path fill="#F0F0F0" d="M23 23.503a6.64 6.64 0 0 0 4.026-1.354h-8.052A6.64 6.64 0 0 0 23 23.503M16.889 19.503c.211.484.48.938.795 1.354h10.632c.315-.416.584-.87.795-1.354z"/></g><defs><clipPath id="a"><path fill="#fff" d="M0 0h46v30H0z"/></clipPath></defs></svg>