<svg xmlns="http://www.w3.org/2000/svg" fill="none" viewBox="0 0 46 30"><g clip-path="url(#a)"><path fill="#FFDA44" d="M46-.333H0v30.667h46z"/><path fill="#F0F0F0" d="M23-.333H0V15h23z"/><path fill="#D80027" d="M12.938-.334h-2.875v6.23H0V8.77h10.063V15h2.875V8.77H23V5.895H12.938z"/><path fill="#D80027" d="M0-.334v1.355l5.155 3.437h2.033z"/><path fill="#2E52B2" d="M0 1.699v2.76h4.14zM8.625-.333V4.06L2.033-.333z"/><path fill="#D80027" d="M23-.334v1.355l-5.155 3.437h-2.032z"/><path fill="#2E52B2" d="M23 1.699v2.759h-4.14zM14.375-.334v4.395l6.592-4.395z"/><path fill="#D80027" d="M0-.334v1.355l5.155 3.437h2.033z"/><path fill="#2E52B2" d="M0 1.699v2.76h4.14zM8.625-.333V4.06L2.033-.333z"/><path fill="#D80027" d="M23-.334v1.355l-5.155 3.437h-2.032z"/><path fill="#2E52B2" d="M23 1.699v2.759h-4.14zM14.375-.334v4.395l6.592-4.395z"/><path fill="#D80027" d="M0 15v-1.355l5.155-3.437h2.033z"/><path fill="#2E52B2" d="M0 12.967v-2.76h4.14zM8.625 15v-4.395l-6.592 4.394z"/><path fill="#D80027" d="M23 15v-1.355l-5.155-3.437h-2.032z"/><path fill="#2E52B2" d="M23 12.967v-2.76h-4.139zM14.375 15v-4.395l6.592 4.394zM11.5 9.366a2.033 2.033 0 1 0 0-4.066 2.033 2.033 0 0 0 0 4.066"/><path fill="#FFDA44" d="m11.5 5.895.357 1.098h1.155l-.935.68.357 1.097-.934-.678-.934.678.357-1.098-.935-.679h1.155zM11.5 11.748l.212.654h.688l-.556.404.212.654-.556-.404-.556.404.212-.654-.556-.404h.688zM11.5 1.206l.212.654h.688l-.556.404.212.654-.556-.404-.556.404.212-.654-.556-.404h.688zM17.783 6.477l.212.654h.688l-.556.404.212.654-.556-.404-.556.404.212-.654-.556-.404h.687zM5.217 6.477l.213.654h.687l-.556.404.212.654-.556-.404-.556.404.212-.654-.556-.404h.688z"/></g><defs><clipPath id="a"><path fill="#fff" d="M0 0h46v30H0z"/></clipPath></defs></svg>