<svg xmlns="http://www.w3.org/2000/svg" fill="none" viewBox="0 0 46 30"><g clip-path="url(#a)"><path fill="#0052B4" d="M46-.334H0v30.667h46z"/><path fill="#F0F0F0" d="M46 13v4H25v13.332h-4V17H0v-4h21V-.334h4V13z"/><path fill="#F0F0F0" d="M34.734 7.802a.37.37 0 0 1 .37-.37h.792a2.273 2.273 0 0 0 2.27-2.27 2.273 2.273 0 0 0-2.27-2.27h-.752a1.57 1.57 0 0 0-.938-.299c-.758 0-1.372.492-1.372 1.098 0 .6.602 1.087 1.35 1.097v.004h1.712a.37.37 0 0 1 0 .74h-.792a2.273 2.273 0 0 0-2.27 2.27 2.273 2.273 0 0 0 2.27 2.27h3.063v-1.9h-3.063a.37.37 0 0 1-.37-.37M9.734 7.802a.37.37 0 0 1 .37-.37h.792a2.273 2.273 0 0 0 2.27-2.27 2.273 2.273 0 0 0-2.27-2.27h-.752a1.57 1.57 0 0 0-.938-.299c-.758 0-1.373.492-1.373 1.098 0 .6.603 1.087 1.35 1.097v.004h1.713a.37.37 0 0 1 0 .74h-.792a2.273 2.273 0 0 0-2.27 2.27 2.273 2.273 0 0 0 2.27 2.27h3.063v-1.9h-3.063a.37.37 0 0 1-.37-.37M34.734 25.135a.37.37 0 0 1 .37-.37h.792a2.273 2.273 0 0 0 2.27-2.27 2.273 2.273 0 0 0-2.27-2.27h-.752a1.57 1.57 0 0 0-.938-.299c-.758 0-1.372.492-1.372 1.098 0 .6.602 1.087 1.35 1.097v.004h1.712a.37.37 0 0 1 0 .74h-.792a2.273 2.273 0 0 0-2.27 2.27 2.273 2.273 0 0 0 2.27 2.27h3.063v-1.9h-3.063a.37.37 0 0 1-.37-.37M9.734 25.135a.37.37 0 0 1 .37-.37h.792a2.273 2.273 0 0 0 2.27-2.27 2.273 2.273 0 0 0-2.27-2.27h-.752a1.57 1.57 0 0 0-.938-.299c-.758 0-1.373.492-1.373 1.098 0 .6.603 1.087 1.35 1.097v.004h1.713a.37.37 0 0 1 0 .74h-.792a2.273 2.273 0 0 0-2.27 2.27 2.273 2.273 0 0 0 2.27 2.27h3.063v-1.9h-3.063a.37.37 0 0 1-.37-.37"/></g><defs><clipPath id="a"><path fill="#fff" d="M0 0h46v30H0z"/></clipPath></defs></svg>