<svg xmlns="http://www.w3.org/2000/svg" fill="none" viewBox="0 0 46 30"><g clip-path="url(#a)"><path fill="#F0F0F0" d="M46-.333H0v30.666h46z"/><path fill="#D80027" d="M46-.333H0V9.889h46z"/><path fill="#0052B4" d="M46 20.111H0v10.222h46z"/><path fill="#338AF3" d="M27 10.333h-2.666L24.778 7l1.778-1.333L28.333 7v2.667zM19 10.334h2.667L21.223 7l-1.778-1.333L17.667 7v2.667z"/><path fill="#0052B4" d="M24.778 10.333h-3.556V7L23 5.667 24.778 7z"/><path fill="#F0F0F0" d="M17.667 9.667V17a5.33 5.33 0 0 0 2.144 4.273l.933-.234 1.178 1.185a5.3 5.3 0 0 0 2.15.001l1.345-1.12.772.165A5.33 5.33 0 0 0 28.333 17V9.667z"/><path fill="#D80027" d="M19.8 9.667h-2.133V11.8h2.134zM24.067 9.667h-2.134V11.8h2.134zM28.334 9.667H26.2V11.8h2.134zM21.934 11.8H19.8v2.133h2.134zM26.2 11.8h-2.133v2.133h2.134zM19.8 13.933h-2.133v2.133h2.134zM21.934 16.066H19.8v2.133h2.134zM24.067 13.933h-2.134v2.133h2.134zM28.334 13.933H26.2v2.133h2.134zM26.2 16.066h-2.133v2.133h2.134zM24.067 18.2h-2.134v2.133h2.134zM19.8 18.2h-1.995a5.3 5.3 0 0 0 1.036 2.133h.96zM26.2 20.333h.96a5.3 5.3 0 0 0 1.036-2.133H26.2zM19.8 20.333v.93a5.3 5.3 0 0 0 2.134.963v-1.893zM24.067 20.333v1.893a5.3 5.3 0 0 0 2.133-.962v-.931z"/></g><defs><clipPath id="a"><path fill="#fff" d="M0 0h46v30H0z"/></clipPath></defs></svg>