<svg xmlns="http://www.w3.org/2000/svg" fill="none" viewBox="0 0 46 30"><g clip-path="url(#a)"><path fill="#F0F0F0" d="M46-.333H0v30.666h46z"/><path fill="#D80027" d="M46-.333H0V15h46z"/><path fill="#F0F0F0" d="M7.5 7.333c0-2.234 1.57-4.1 3.667-4.558a4.667 4.667 0 1 0 0 9.116A4.67 4.67 0 0 1 7.5 7.333M13.5 3l.33 1.019h1.072l-.867.63.331 1.018-.866-.63-.867.63.331-1.019-.866-.63h1.07z"/><path fill="#F0F0F0" d="m10.902 5 .33 1.019h1.072l-.867.63.331 1.018-.866-.63-.867.63.331-1.019-.866-.63h1.07zM16.098 5l.33 1.019H17.5l-.867.63.331 1.018-.866-.63-.867.63.331-1.019-.866-.63h1.07zM15.098 8l.33 1.019H16.5l-.867.63.331 1.018-.866-.63-.867.63.331-1.019-.866-.63h1.07zM11.902 8l.33 1.019h1.072l-.867.63.331 1.018-.866-.63-.867.63.331-1.019-.866-.63h1.07z"/></g><defs><clipPath id="a"><path fill="#fff" d="M0 0h46v30H0z"/></clipPath></defs></svg>