<svg xmlns="http://www.w3.org/2000/svg" fill="none" viewBox="0 0 46 30"><g clip-path="url(#a)"><path fill="#D80027" d="M46-.333H0v30.666h46z"/><path fill="#338AF3" d="M46-.333H0V9.889h46z"/><path fill="#6DA544" d="M46 20.111H0v10.222h46z"/><path fill="#F0F0F0" d="M23.287 18.737a3.737 3.737 0 1 1 1.778-7.025 4.6 4.6 0 1 0 0 6.577 3.7 3.7 0 0 1-1.778.448"/><path fill="#F0F0F0" d="m26.163 12.412.494 1.393 1.335-.635-.634 1.335L28.75 15l-1.392.495.634 1.335-1.335-.635-.494 1.392-.496-1.392-1.334.635.634-1.335L23.575 15l1.392-.495-.634-1.335 1.334.635z"/></g><defs><clipPath id="a"><path fill="#fff" d="M0 0h46v30H0z"/></clipPath></defs></svg>