<svg xmlns="http://www.w3.org/2000/svg" fill="none" viewBox="0 0 46 30"><g clip-path="url(#a)"><path fill="#000" d="M46-.334H0v30.667h46z"/><path fill="#D80027" d="M46-.334H0V15h46z"/><path fill="#FFDA44" d="m20.897 11.862 1.3.943-.495 1.528L23 13.388l1.3.943-.498-1.527 1.3-.945-1.607.001L23 10.333l-.496 1.528z"/><path fill="#FFDA44" d="M26.833 8.36A7.6 7.6 0 0 0 23 7.335v2a5.63 5.63 0 0 1 2.833.757 5.673 5.673 0 0 1 2.074 7.74 5.673 5.673 0 0 1-7.74 2.075 5.6 5.6 0 0 1-1.894-1.786l-1.67 1.102a7.6 7.6 0 0 0 2.563 2.416c3.662 2.114 8.36.855 10.473-2.806s.855-8.36-2.806-10.473"/><path fill="#FFDA44" d="M18.579 13.666a2 2 0 0 0 .794 2.715l6.496 3.549c-.442.808-.207 1.79.6 2.232l1.755.96c.808.442 1.82.145 2.262-.663l.96-1.754z"/></g><defs><clipPath id="a"><path fill="#fff" d="M0 0h46v30H0z"/></clipPath></defs></svg>