<svg xmlns="http://www.w3.org/2000/svg" fill="none" viewBox="0 0 46 30"><g clip-path="url(#a)"><path fill="#F0F0F0" d="M46-.333H0v30.667h46z"/><path fill="#F0F0F0" d="M46-.333H0V15h46z"/><path fill="#D80027" d="M46 5.896H0V8.77h46z"/><path fill="#0052B4" d="M34.2 10 46 12.95V10zM26 10l20 5v-1.415L31.656 10zM40.673 15 26 11.33V15z"/><path fill="#F0F0F0" d="m26 10 20 5v-1.415L31.656 10z"/><path fill="#D80027" d="m26 10 20 5v-1.415L31.656 10z"/><path fill="#0052B4" d="M9.019 10 0 12.253V9.999zM20 10.635V15H2.545z"/><path fill="#D80027" d="M14.344 10 0 13.584V15l20-5z"/><path fill="#0052B4" d="m11.801 4.666-11.8-2.95v2.95zM20 4.666l-20-5V1.08l14.345 3.586zM5.327-.334 20 3.335V-.334z"/><path fill="#F0F0F0" d="m20 4.666-20-5V1.08l14.345 3.586z"/><path fill="#D80027" d="m20 4.666-20-5V1.08l14.345 3.586z"/><path fill="#0052B4" d="M36.982 4.666 46 2.412v2.254zM26 4.03V-.334h17.456z"/><path fill="#D80027" d="M31.656 4.666 46.001 1.08V-.334l-20 5zM24.437-.333h-2.874V15h2.874z"/><path fill="#0052B4" d="M46 16.423v2.006c-.398.067-1.155.495-1.719.816-.984.56-1.914 1.087-2.803 1.087-.89 0-1.819-.527-2.804-1.087-.614-.349-1.455-.826-1.816-.826-.36 0-1.202.477-1.816.826-.984.56-1.914 1.087-2.803 1.087s-1.819-.527-2.804-1.087c-.614-.349-1.455-.826-1.816-.826-.36 0-1.201.477-1.815.826-.985.56-1.915 1.087-2.804 1.087-.89 0-1.819-.527-2.804-1.087-.614-.349-1.455-.826-1.815-.826-.361 0-1.202.477-1.816.826-.985.56-1.915 1.087-2.804 1.087-.89 0-1.82-.527-2.803-1.087-.614-.349-1.455-.826-1.816-.826s-1.202.477-1.816.826c-.985.56-1.914 1.087-2.804 1.087s-1.82-.527-2.803-1.087c-.564-.32-1.32-.75-1.719-.817v-2.006c.86.035 1.758.546 2.707 1.084.614.349 1.455.826 1.815.826.361 0 1.202-.477 1.816-.826.985-.558 1.915-1.087 2.804-1.087.89 0 1.82.529 2.803 1.087.614.349 1.455.826 1.816.826s1.202-.477 1.816-.826c.985-.558 1.914-1.087 2.804-1.087s1.82.529 2.803 1.087c.614.349 1.455.826 1.816.826s1.202-.477 1.816-.826c.984-.558 1.914-1.087 2.803-1.087.89 0 1.82.529 2.804 1.087.614.349 1.455.826 1.816.826s1.202-.477 1.816-.826c.984-.558 1.914-1.087 2.803-1.087.89 0 1.82.529 2.804 1.087.614.349 1.456.826 1.816.826s1.201-.477 1.815-.826c.95-.538 1.848-1.049 2.707-1.084M46 21.423v2.006c-.398.067-1.155.495-1.72.817-.983.559-1.913 1.087-2.802 1.087-.89 0-1.82-.528-2.804-1.087-.614-.35-1.455-.826-1.816-.826s-1.202.476-1.816.825c-.984.56-1.914 1.087-2.803 1.087-.89 0-1.82-.527-2.804-1.087-.614-.349-1.455-.826-1.816-.826-.36 0-1.201.477-1.815.826-.985.56-1.915 1.087-2.804 1.087-.89 0-1.82-.527-2.804-1.087-.614-.349-1.455-.826-1.815-.826-.361 0-1.202.477-1.816.826-.985.56-1.915 1.087-2.804 1.087-.89 0-1.82-.527-2.803-1.087-.614-.349-1.455-.826-1.816-.826s-1.202.477-1.816.826c-.985.56-1.914 1.087-2.804 1.087s-1.82-.527-2.803-1.087c-.564-.32-1.322-.75-1.72-.817v-2.006c.86.035 1.759.546 2.708 1.084.614.349 1.455.826 1.815.826s1.202-.477 1.816-.826c.985-.558 1.915-1.087 2.804-1.087s1.819.529 2.803 1.087c.614.349 1.455.826 1.816.826.36 0 1.202-.477 1.816-.826.985-.558 1.914-1.087 2.804-1.087s1.819.529 2.803 1.087c.614.349 1.455.826 1.816.826.36 0 1.202-.477 1.816-.826.984-.558 1.914-1.087 2.803-1.087.89 0 1.819.529 2.804 1.087.614.349 1.455.826 1.816.826.36 0 1.202-.477 1.816-.826.984-.558 1.914-1.087 2.803-1.087s1.819.529 2.804 1.087c.614.349 1.455.826 1.816.826.36 0 1.2-.477 1.815-.826.949-.538 1.848-1.049 2.707-1.084M46 26.423v2.006c-.398.067-1.155.495-1.72.816-.983.56-1.913 1.087-2.802 1.087-.89 0-1.82-.527-2.804-1.087-.614-.349-1.455-.826-1.816-.826s-1.202.477-1.816.826c-.984.56-1.914 1.087-2.803 1.087-.89 0-1.82-.527-2.804-1.087-.614-.349-1.455-.826-1.816-.826-.36 0-1.201.477-1.815.826-.985.56-1.915 1.087-2.804 1.087-.89 0-1.82-.527-2.804-1.087-.614-.349-1.455-.826-1.815-.826-.361 0-1.202.477-1.816.826-.985.56-1.915 1.087-2.804 1.087-.89 0-1.82-.527-2.803-1.087-.614-.349-1.455-.826-1.816-.826s-1.202.477-1.816.826c-.985.56-1.914 1.087-2.804 1.087s-1.82-.527-2.803-1.087c-.564-.32-1.322-.75-1.72-.817v-2.006c.86.035 1.759.546 2.708 1.084.614.349 1.455.826 1.815.826s1.202-.477 1.816-.826c.985-.558 1.915-1.087 2.804-1.087s1.819.529 2.803 1.087c.614.349 1.455.826 1.816.826.36 0 1.202-.477 1.816-.826.985-.558 1.914-1.087 2.804-1.087s1.819.529 2.803 1.087c.614.349 1.455.826 1.816.826.36 0 1.202-.477 1.816-.826.984-.558 1.914-1.087 2.803-1.087.89 0 1.819.529 2.804 1.087.614.349 1.455.826 1.816.826.36 0 1.202-.477 1.816-.826.984-.558 1.914-1.087 2.803-1.087s1.819.529 2.804 1.087c.614.349 1.455.826 1.816.826.36 0 1.2-.477 1.815-.826.949-.538 1.848-1.049 2.707-1.084"/><path fill="#FFDA44" d="m27.65 27.011 1.71-3.111-3.488.667-.442-3.524L23 23.635l-2.43-2.592-.442 3.524-3.488-.667 1.71 3.111-3.212 1.511 3.212 1.511-.164.3h9.628l-.164-.3 3.212-1.51z"/></g><defs><clipPath id="a"><path fill="#fff" d="M0 0h46v30H0z"/></clipPath></defs></svg>