<svg xmlns="http://www.w3.org/2000/svg" fill="none" viewBox="0 0 46 30"><g clip-path="url(#a)"><path fill="#D80027" d="M46-.334H0v30.666h46z"/><path fill="#496E2D" d="M46-.334H29.667v30.667H46z"/><path fill="#000" d="M16.333-.334H0v30.667h16.333z"/><path fill="#FFDA44" d="M23 9.666a5.333 5.333 0 1 0 0 10.667 5.333 5.333 0 0 0 0-10.667m0 8.667a3.333 3.333 0 1 1 0-6.667 3.333 3.333 0 0 1 0 6.667"/><path fill="#FFDA44" d="M23 13c-.736 0-1.333.596-1.333 1.333v2h2.666v-2c0-.737-.597-1.334-1.333-1.334"/></g><defs><clipPath id="a"><path fill="#fff" d="M0 0h46v30H0z"/></clipPath></defs></svg>