<svg xmlns="http://www.w3.org/2000/svg" fill="none" viewBox="0 0 46 30"><g clip-path="url(#a)"><path fill="#0052B4" d="M46-.333H0v30.667h46z"/><path fill="#F0F0F0" d="M20.07 15q.038-.04.074-.083zM17 18.767l.984 2.058 2.224-.514-.996 2.054L21 23.782l-2.226.502.006 2.282L17 25.138l-1.78 1.428.006-2.282L13 23.782l1.788-1.417-.996-2.054 2.223.514zM34.776 21.324l.47.982 1.06-.245-.474.979.852.676-1.061.24.002 1.088-.849-.68-.849.68.003-1.088-1.062-.24.853-.676-.475-.98 1.06.246zM30.408 10.907l.47.982 1.06-.245-.475.98.853.676-1.062.24.003 1.088-.849-.681-.85.68.004-1.088L28.5 13.3l.853-.676-.475-.98 1.06.245zM34.776 4.955l.47.982 1.06-.245-.474.98.852.676-1.061.24.002 1.087-.849-.68-.849.68.003-1.088-1.062-.24.853-.676-.475-.979 1.06.245zM38.592 9.42l.47.981 1.06-.245-.475.98.853.676-1.062.24.003 1.088-.849-.681-.849.68.003-1.088-1.062-.24.853-.675-.475-.98 1.06.245zM35.864 14.628l.369 1.136h1.195l-.967.703.37 1.137-.967-.703-.967.703.37-1.137-.968-.703h1.195z"/><path fill="#F0F0F0" d="M23-.333v2.745l-4.058 2.255H23V10h-5.31L23 12.95V15h-2.397L14 11.332V15H9v-4.364L1.145 15H0v-2.745L4.058 10H0V4.667h5.31L0 1.716v-2.05h2.397L9 3.336V-.333h5V4.03l7.855-4.364z"/><path fill="#D80027" d="M12.938-.334h-2.876v6.23H0V8.77h10.063V15h2.874V8.77H23V5.895H12.938z"/><path fill="#0052B4" d="m14 10 9 5v-1.414L16.545 10z"/><path fill="#F0F0F0" d="m14 10 9 5v-1.414L16.545 10z"/><path fill="#D80027" d="m14 10 9 5v-1.414L16.545 10zM6.455 10 0 13.586V15l9-5z"/><path fill="#0052B4" d="m9 4.666-9-5V1.08l6.455 3.586z"/><path fill="#F0F0F0" d="m9 4.666-9-5V1.08l6.455 3.586z"/><path fill="#D80027" d="m9 4.666-9-5V1.08l6.455 3.586zM16.545 4.666 23 1.08V-.334l-9 5z"/></g><defs><clipPath id="a"><path fill="#fff" d="M0 0h46v30H0z"/></clipPath></defs></svg>