<svg xmlns="http://www.w3.org/2000/svg" fill="none" viewBox="0 0 46 30"><g clip-path="url(#a)"><path fill="#D80027" d="M46-.333H0v30.667h46z"/><path fill="#000" d="M31.667 11.047h-5.554A2 2 0 1 0 23 8.56a2 2 0 1 0-3.113 2.486h-5.554c0 1.473 1.283 2.666 2.756 2.666H17a2.667 2.667 0 0 0 2.667 2.667c0 .477.125.925.345 1.312L17.8 19.904l1.697 1.697 2.407-2.408q.142.052.293.081l-1.455 3.285L23 24.999l2.258-2.44-1.455-3.285q.15-.028.293-.08l2.407 2.407 1.697-1.697-2.212-2.212a2.65 2.65 0 0 0 .345-1.312A2.667 2.667 0 0 0 29 13.714h-.089c1.473 0 2.756-1.194 2.756-2.667"/></g><defs><clipPath id="a"><path fill="#fff" d="M0 0h46v30H0z"/></clipPath></defs></svg>