<svg xmlns="http://www.w3.org/2000/svg" fill="none" viewBox="0 0 46 30"><g clip-path="url(#a)"><path fill="#0052B4" d="M46-.334H0v30.668h46z"/><path fill="#F0F0F0" d="M23 22.333a7.333 7.333 0 1 0 0-14.667 7.333 7.333 0 0 0 0 14.667"/><path fill="#6DA544" d="M23 21a6 6 0 1 0 0-12 6 6 0 0 0 0 12"/><path fill="#F0F0F0" d="M23 19a4 4 0 1 0 0-8 4 4 0 0 0 0 8"/><path fill="#0052B4" d="m23 14-2.167 1v1.666L23 18l2.166-1.334v-1.667z"/><path fill="#FFDA44" d="M25.166 13h-4.333v2h4.333z"/><path fill="#A2001D" d="M46-.334H0v2.667h46zM46 27.667H0v2.666h46z"/></g><defs><clipPath id="a"><path fill="#fff" d="M0 0h46v30H0z"/></clipPath></defs></svg>