<svg xmlns="http://www.w3.org/2000/svg" fill="none" viewBox="0 0 46 30"><g clip-path="url(#a)"><path fill="#D80027" d="M46-.333H0v30.667h46z"/><path fill="#F0F0F0" d="M23-.333H0V15h23z"/><path fill="#D80027" d="M12.938-.334h-2.875v6.23H0V8.77h10.063V15h2.875V8.77H23V5.897H12.938z"/><path fill="#D80027" d="M0-.334v1.355l5.155 3.437h2.033z"/><path fill="#2E52B2" d="M0 1.699v2.76h4.14zM8.625-.334v4.395L2.033-.334z"/><path fill="#D80027" d="M23-.334v1.355l-5.155 3.437h-2.032z"/><path fill="#2E52B2" d="M23 1.699v2.76h-4.139zM14.375-.333V4.06l6.592-4.394z"/><path fill="#D80027" d="M0-.334v1.355l5.155 3.437h2.033z"/><path fill="#2E52B2" d="M0 1.699v2.76h4.14zM8.625-.334v4.395L2.033-.334z"/><path fill="#D80027" d="M23-.334v1.355l-5.155 3.437h-2.032z"/><path fill="#2E52B2" d="M23 1.699v2.76h-4.139zM14.375-.333V4.06l6.592-4.394z"/><path fill="#D80027" d="M0 15v-1.355l5.155-3.437h2.033z"/><path fill="#2E52B2" d="M0 12.967v-2.759h4.14zM8.625 15v-4.395L2.033 15z"/><path fill="#D80027" d="M23 15v-1.355l-5.155-3.437h-2.032z"/><path fill="#2E52B2" d="M23 12.968v-2.76h-4.139zM14.375 15v-4.395L20.967 15z"/><path fill="#F3F3F3" d="M29.834 9v7.333c0 3.572 9.333 3.572 9.333 0V9z"/><path fill="#6DA544" d="M29.834 16.333C29.834 19.905 34.5 21 34.5 21s4.667-1.095 4.667-4.667z"/><path fill="#A2001D" d="m34.5 13.4-2.166.933v2l2.166 1.333 2.167-1.333v-2z"/><path fill="#338AF3" d="M36.666 12.333h-4.333v2h4.333z"/></g><defs><clipPath id="a"><path fill="#fff" d="M0 0h46v30H0z"/></clipPath></defs></svg>