<svg xmlns="http://www.w3.org/2000/svg" fill="none" viewBox="0 0 46 30"><g clip-path="url(#a)"><path fill="#0052B4" d="M46-.333H0v30.667h46z"/><path fill="#FFDA44" d="M8.976-.334h30.666v30.667"/><path fill="#F0F0F0" d="m3.285 1.042 1.333-.97 1.336.97-.447-1.376H3.73z"/><path fill="#F0F0F0" d="m7.936 1.31-.51-1.57-.51 1.57-1.65.002 1.336.97-.509 1.568 1.334-.97 1.335.97-.51-1.57 1.334-.97z"/><path fill="#F0F0F0" d="m10.745 4.119-.511-1.57-.51 1.57-1.65.001 1.336.97L8.9 6.659l1.334-.971 1.336.97-.511-1.57 1.335-.97z"/><path fill="#F0F0F0" d="m13.553 6.927-.51-1.57-.51 1.57-1.65.001 1.335.97-.508 1.569 1.333-.971 1.336.97-.51-1.57 1.334-.97z"/><path fill="#F0F0F0" d="m16.36 9.735-.51-1.57-.51 1.57-1.65.001 1.336.97-.508 1.57 1.333-.972 1.336.97-.51-1.57 1.334-.97z"/><path fill="#F0F0F0" d="m19.17 12.544-.511-1.57-.51 1.57h-1.65l1.336.97-.509 1.57 1.334-.971 1.335.97-.51-1.57 1.334-.97z"/><path fill="#F0F0F0" d="m21.977 15.352-.51-1.57-.51 1.57h-1.65l1.336.97-.509 1.57 1.334-.971 1.335.97-.51-1.57 1.334-.97z"/><path fill="#F0F0F0" d="m24.786 18.16-.511-1.57-.51 1.57-1.65.001 1.336.97-.509 1.569 1.334-.971 1.336.97-.511-1.57 1.335-.97z"/><path fill="#F0F0F0" d="m27.594 20.968-.51-1.57-.51 1.57-1.65.001 1.335.97-.508 1.569 1.333-.97 1.336.969-.51-1.57 1.334-.97z"/><path fill="#F0F0F0" d="m30.402 23.777-.51-1.57-.51 1.57h-1.65l1.335.97-.508 1.57 1.333-.972 1.336.97-.51-1.57 1.334-.97z"/><path fill="#F0F0F0" d="m33.21 26.585-.51-1.57-.51 1.57h-1.65l1.336.97-.509 1.57 1.334-.971 1.335.97-.51-1.57 1.334-.97z"/><path fill="#F0F0F0" d="m35.508 27.823-.51 1.57h-1.65l1.294.94h1.731l1.296-.941h-1.65z"/></g><defs><clipPath id="a"><path fill="#fff" d="M0 0h46v30H0z"/></clipPath></defs></svg>