<svg xmlns="http://www.w3.org/2000/svg" fill="none" viewBox="0 0 46 30"><g clip-path="url(#a)"><path fill="#0052B4" d="M46-.333H0v30.667h46z"/><path fill="#F0F0F0" d="M23-.333v10.54h-4.139l4.14 2.76V15h-2.034l-6.592-4.395V15h-5.75v-4.395L2.033 15H0v-2.032l4.14-2.76H0v-5.75h4.14L0 1.698V-.332h2.033L8.625 4.06V-.333h5.75V4.06l6.592-4.394z"/><path fill="#D80027" d="M12.938-.334h-2.875v6.23H0V8.77h10.063V15h2.875V8.77H23V5.897H12.938z"/><path fill="#D80027" d="M0-.334v1.356l5.155 3.436h2.033zM23-.334v1.355l-5.155 3.437h-2.032z"/><path fill="#2E52B2" d="M23 1.699v2.76h-4.139z"/><path fill="#D80027" d="M0-.334v1.356l5.155 3.436h2.033zM23-.334v1.355l-5.155 3.437h-2.032z"/><path fill="#2E52B2" d="M23 1.699v2.76h-4.139z"/><path fill="#D80027" d="M0 15v-1.355l5.155-3.437h2.033zM23 15v-1.355l-5.155-3.437h-2.032z"/><path fill="#FFDA44" d="m34.5 15.333-4.144 4.144a4.665 4.665 0 0 0 8.289 0z"/><path fill="#6DA544" d="M29.834 8v7.333C29.834 18.905 34.5 20 34.5 20s4.667-1.095 4.667-4.667V8z"/><path fill="#F0F0F0" d="M35.5 11.333h-2v5.333h2z"/><path fill="#A2001D" d="M34.5 12.333a1 1 0 1 0 0-2 1 1 0 0 0 0 2"/><path fill="#FFDA44" d="M32.5 9.333h-1.333v1.333H32.5zM32.5 12.333h-1.333v1.333H32.5zM32.5 15.333h-1.333v1.333H32.5zM37.833 9.333H36.5v1.333h1.333zM37.833 12.333H36.5v1.333h1.333zM37.833 15.333H36.5v1.333h1.333z"/></g><defs><clipPath id="a"><path fill="#fff" d="M0 0h46v30H0z"/></clipPath></defs></svg>