<svg xmlns="http://www.w3.org/2000/svg" fill="none" viewBox="0 0 46 30"><g clip-path="url(#a)"><path fill="#FFDA44" d="M46-.334H0v30.668h46z"/><path fill="#0052B4" d="M15.333-.333H0v30.667h15.333zM46-.334H30.667v30.667H46z"/><path fill="#000" d="m27.667 9-.895-.448c-.054.108-1.222 2.484-1.412 6.114H24V9l-1-1.333L22 9v5.666h-1.36c-.19-3.63-1.358-6.006-1.412-6.114l-1.79.895c.013.024 1.229 2.498 1.229 6.22v1H22v5.666h2v-5.667h3.333v-1c0-1.924.333-3.51.612-4.502.305-1.081.614-1.713.617-1.72z"/></g><defs><clipPath id="a"><path fill="#fff" d="M0 0h46v30H0z"/></clipPath></defs></svg>