<svg xmlns="http://www.w3.org/2000/svg" fill="none" viewBox="0 0 46 30"><g clip-path="url(#a)"><path fill="#6DA544" d="M46-.316H.05v30.632H46z"/><path fill="#A2001D" d="M0 20.328h45.95V-.316H0"/><path fill="#F0F0F0" d="M8.99 20.328V-.316H0v30.633h45.95H8.99z"/><path fill="#A2001D" d="m6.16 13.89-1.665-3.02L6.16 7.897l1.665 2.973zM2.83 13.89l-1.665-3.02L2.83 7.897l1.665 2.973zM6.16 22.103l-1.665-3.02L6.16 16.11l1.665 2.973zM2.83 22.103l-1.665-3.02L2.83 16.11l1.665 2.973zM6.16 30.317l-1.665-3.02 1.665-2.974 1.665 2.973zM2.83 30.317l-1.665-3.02 1.665-2.974 1.665 2.973zM6.16 5.677l-1.665-3.02L6.16-.318l1.665 2.973zM2.83 5.677l-1.664-3.02L2.83-.318l1.665 2.973z"/></g><defs><clipPath id="a"><path fill="#fff" d="M0 0h46v30H0z"/></clipPath></defs></svg>