<svg xmlns="http://www.w3.org/2000/svg" fill="none" viewBox="0 0 46 30"><g clip-path="url(#a)"><path fill="#F0F0F0" d="M46-.333H0v30.666h46z"/><path fill="#0052B4" d="M0 30.333h46V-.333z"/><path fill="#FFDA44" d="M22.5-.333H0v14.999z"/><path fill="#000" d="m16.895 14.482 1.322-.715-1.322-.716A4.67 4.67 0 0 0 13 9.155l-.716-1.322-.715 1.322A4.67 4.67 0 0 0 7.67 13.05l-1.321.716 1.321.716a4.67 4.67 0 0 0 3.897 3.896l.715 1.321.716-1.321a4.67 4.67 0 0 0 3.896-3.897m-4.612 1.951a2.667 2.667 0 1 1 0-5.333 2.667 2.667 0 0 1 0 5.333"/><path fill="#D80027" d="m12.283 11.767.578 1h1.154l-.577 1 .577 1h-1.154l-.578 1-.577-1h-1.155l.578-1-.578-1h1.155z"/></g><defs><clipPath id="a"><path fill="#fff" d="M0 0h46v30H0z"/></clipPath></defs></svg>