<svg xmlns="http://www.w3.org/2000/svg" fill="none" viewBox="0 0 46 30"><g clip-path="url(#a)"><path fill="#FFDA44" d="M46-.333H0v30.666h46z"/><path fill="#000" d="M0 9.886 46 28.5v-4.193l-21.452-8.48L0 5.692z"/><path fill="#F0F0F0" d="M46 24.307v-4.193L0 1.5v4.193"/><path fill="#D80027" d="M27.333 13.334a4.333 4.333 0 1 1-8.145-2.061 5.333 5.333 0 1 0 7.624 0c.332.613.52 1.315.52 2.06"/><path fill="#D80027" d="M24 8.334h-2v9.998h2z"/><path fill="#D80027" d="M26.333 10.334h-6.666c0 .46.401.833.861.833H20.5c0 .46.374.834.834.834 0 .46.373.833.833.833h1.666c.46 0 .834-.373.834-.833.46 0 .833-.373.833-.834h-.028c.46 0 .86-.373.86-.833M27.666 19h-9.332v1.999h9.332z"/><path fill="#D80027" d="M29 19.666h-4v2h4zM21 19.666h-3.999v2h4z"/></g><defs><clipPath id="a"><path fill="#fff" d="M0 0h46v30H0z"/></clipPath></defs></svg>