<svg xmlns="http://www.w3.org/2000/svg" fill="none" viewBox="0 0 46 30"><g clip-path="url(#a)"><path fill="#000" d="M46-.333H0v30.666h46z"/><path fill="#0052B4" d="M7.974 11.933c-.201.991-.307 2.017-.307 3.067s.106 2.076.307 3.067L23 19l15.026-.933A15.4 15.4 0 0 0 38.334 15c0-1.05-.105-2.076-.306-3.067"/><path fill="#F0F0F0" d="M38.026 18.066H7.974c1.42 7 7.608 12.267 15.026 12.267s13.606-5.268 15.026-12.267"/><path fill="#FFDA44" d="M29.667 11.933H16.333l2.724-1.281-1.45-2.638 2.958.565.375-2.988L23 7.79l2.06-2.198.375 2.988 2.958-.565-1.45 2.638z"/><path fill="#A2001D" d="M23 30.333 0-.333v30.666zM46 30.333V-.333L23 30.333z"/></g><defs><clipPath id="a"><path fill="#fff" d="M0 0h46v30H0z"/></clipPath></defs></svg>