<svg xmlns="http://www.w3.org/2000/svg" fill="none" viewBox="0 0 46 30"><g clip-path="url(#a)"><path fill="#FFDA44" d="M46-.333H0v30.667h46z"/><path fill="#0052B4" d="M15.333-.333H0v30.667h15.333z"/><path fill="#D80027" d="M46-.334H30.667v30.667H46zM23 20.333V15h4v2c0 .347-.667 1.62-2.312 2.666-.624.397-1.269.524-1.688.667M23 11h-4v4h4z"/><path fill="#FF9811" d="M25 9.666a1.333 1.333 0 0 0-2-1.153 1.333 1.333 0 0 0-2 1.153h-3.334v6.667c0 2.482 1.971 3.917 3.517 4.66A1.333 1.333 0 0 0 23 22.82a1.333 1.333 0 0 0 1.817-1.826c1.545-.743 3.516-2.178 3.516-4.66V9.666zm1.333 6.667c0 .347 0 1.405-1.645 2.45A8 8 0 0 1 23 19.58a8 8 0 0 1-1.688-.796c-1.646-1.046-1.646-2.104-1.646-2.451v-4.667h6.667z"/></g><defs><clipPath id="a"><path fill="#fff" d="M0 0h46v30H0z"/></clipPath></defs></svg>