<svg xmlns="http://www.w3.org/2000/svg" fill="none" viewBox="0 0 46 30"><g clip-path="url(#a)"><path fill="#D80027" d="M46-.334H0v30.668h46z"/><path fill="#FFDA44" d="M46 6.48H0v3.407h46zM46 13.295H0v3.407h46zM46 20.11H0v3.407h46zM46 26.926H0v3.407h46zM46-.333H0v3.406h46z"/><path fill="#4A1F63" d="M23-.334H0V15h23z"/><path fill="#F0F0F0" d="M15.5 6v1.333h-.667V5.999H13.5v1.334h-.667V4.666h-2.666v2.667H9.5V5.999H8.167v1.334H7.5V5.999H6.167v4h10.666V6z"/></g><defs><clipPath id="a"><path fill="#fff" d="M0 0h46v30H0z"/></clipPath></defs></svg>