<svg xmlns="http://www.w3.org/2000/svg" fill="none" viewBox="0 0 46 30"><g clip-path="url(#a)"><path fill="#F0F0F0" d="M46-.333H0v30.667h46z"/><path fill="#6DA544" d="M46-.333H0v4.38h46zM46 8.429H0v4.38h46zM46 17.19H0v4.381h46zM46 25.952H0v4.38h46z"/><path fill="#D80027" d="M23-.333H0V12.81h23z"/><path fill="#F0F0F0" d="m10.5 9.949-.666-1.333V5.949L11.5 4.616l1.667 1.333v2l.667-.667v1.334L12.5 9.949zM6.914 5.86l.177.543h.571L7.2 6.74l.177.543-.463-.335-.462.335.177-.543-.462-.336h.571zM8.248 4.527l.176.543h.572l-.463.336.177.543-.462-.336-.462.336.176-.543L7.5 5.07h.571zM9.581 3.193l.177.544h.57l-.461.335.176.544-.462-.336-.462.336.177-.544-.463-.335h.572zM16.086 5.86l-.177.543h-.57l.461.336-.176.543.462-.335.462.335-.177-.543.462-.336h-.57zM14.752 4.527l-.176.543h-.571l.462.336-.177.543.462-.336.463.336-.177-.543.462-.336h-.571zM13.42 3.193l-.177.544h-.572l.463.335-.177.544.462-.336.462.336-.176-.544.462-.335h-.571zM11.5 2.527l-.176.543h-.572l.462.336-.176.543.462-.336.462.336-.176-.543.462-.336h-.571z"/></g><defs><clipPath id="a"><path fill="#fff" d="M0 0h46v30H0z"/></clipPath></defs></svg>