<svg xmlns="http://www.w3.org/2000/svg" fill="none" viewBox="0 0 46 30"><g clip-path="url(#a)"><path fill="#0052B4" d="M46-.333H0v30.667h46z"/><path fill="#D80027" d="M46 21H0v2h46z"/><path fill="#F0F0F0" d="M46 19H0v2h46zM46 23H0v2h46z"/><path fill="#FFDA44" d="m16.206 15.474.27.83h.874l-.707.514.27.831-.707-.513-.707.513.27-.83-.706-.514h.873zM16.206 26.35l.27.831h.874l-.707.514.27.83-.707-.513-.707.513.27-.83-.706-.514h.873zM11.143 22.672l.27.83h.874l-.707.514.27.831-.707-.513-.706.513.27-.83-.707-.514h.874zM13.077 16.561l.27.831h.874l-.707.514.27.83-.707-.513-.707.514.27-.831-.706-.514h.873zM10 19.983h.873l.27-.83.27.83h.874l-.707.513.27.832-.707-.514-.706.513.27-.83zM12.37 27.28l.27-.832-.706-.513h.873l.27-.831.27.83h.874l-.707.514.27.831-.707-.513zM21.267 22.672l-.27.83h-.873l.706.514-.27.831.707-.513.707.513-.27-.83.707-.514h-.874zM19.333 16.561l-.27.831h-.873l.706.514-.27.83.707-.513.707.514-.27-.831.707-.514h-.874zM22.41 19.983h-.873l-.27-.83-.27.83h-.873l.706.513-.27.832.707-.514.707.513-.27-.83zM20.04 27.28l-.27-.832.707-.513h-.874l-.27-.831-.27.83h-.873l.707.514-.27.831.707-.513z"/></g><defs><clipPath id="a"><path fill="#fff" d="M0 0h46v30H0z"/></clipPath></defs></svg>