<svg xmlns="http://www.w3.org/2000/svg" fill="none" viewBox="0 0 46 30"><g clip-path="url(#a)"><path fill="#FF9811" d="M46-.333H0v30.667h46z"/><path fill="#FFDA44" d="M46-.334H0v30.667"/><path fill="#F0F0F0" d="M31.674 8.333V5.666h-5.111l-.39.39c-1.39 1.39-1.156 3.01-.985 4.193.158 1.098.177 1.518-.231 1.926s-.829.39-1.926.231c-1.183-.17-2.803-.404-4.192.984-1.39 1.39-1.155 3.01-.985 4.193.159 1.097.177 1.517-.23 1.925-.409.408-.83.39-1.926.231-.428-.062-.87-.125-1.343-.13l-.029 2.666c.296.003.633.052.991.103.423.061.902.13 1.407.13.523 0 1.073-.074 1.617-.309v2.134h4v-2h-2V21h1.333v-2h-1.066c.051-.647-.038-1.267-.115-1.798-.158-1.097-.177-1.518.231-1.926s.829-.389 1.926-.23c.862.124 1.956.28 3.024-.18V17h4v-2h-2v-1.334h1.333v-2h-1.065c.05-.647-.038-1.266-.115-1.798-.11-.766-.153-1.203-.03-1.535z"/></g><defs><clipPath id="a"><path fill="#fff" d="M0 0h46v30H0z"/></clipPath></defs></svg>