<svg xmlns="http://www.w3.org/2000/svg" fill="none" viewBox="0 0 46 30"><g clip-path="url(#a)"><path fill="#F0F0F0" d="M46-.333H0v30.667h46z"/><path fill="#0052B4" d="M41.478 17.457c-.361 0-1.202-.478-1.816-.827-.985-.559-1.915-1.087-2.804-1.087s-1.819.528-2.803 1.087c-.614.349-1.455.826-1.816.826s-1.202-.477-1.816-.826c-.984-.559-1.914-1.087-2.803-1.087-.89 0-1.82.528-2.804 1.087-.614.349-1.455.826-1.816.826-.36 0-1.202-.477-1.816-.826-.984-.559-1.914-1.087-2.803-1.087-.89 0-1.82.528-2.804 1.087-.614.349-1.455.826-1.816.826-.36 0-1.202-.477-1.816-.826-.984-.559-1.914-1.087-2.803-1.087-.89 0-1.819.528-2.804 1.087-.614.349-1.455.826-1.815.826-.361 0-1.202-.477-1.816-.826C1.757 16.091.86 15.583 0 15.547v2.006c.399.067 1.154.495 1.719.816.984.56 1.914 1.087 2.803 1.087.89 0 1.82-.528 2.804-1.087.614-.348 1.455-.826 1.816-.826.36 0 1.202.477 1.816.826.984.56 1.914 1.087 2.803 1.087.89 0 1.82-.528 2.804-1.087.614-.348 1.455-.826 1.815-.826.361 0 1.202.477 1.816.826.985.56 1.915 1.087 2.804 1.087s1.819-.528 2.803-1.087c.614-.348 1.455-.826 1.816-.826s1.202.477 1.816.826c.985.56 1.914 1.087 2.804 1.087s1.819-.528 2.803-1.087c.614-.348 1.455-.826 1.816-.826.36 0 1.202.477 1.816.826.984.56 1.914 1.087 2.803 1.087.89 0 1.82-.528 2.804-1.087.564-.32 1.32-.749 1.719-.816v-2.006c-.86.036-1.758.544-2.707 1.083-.614.349-1.454.826-1.815.826M0 2.553c.399.067 1.154.496 1.719.816.984.56 1.914 1.087 2.803 1.087.89 0 1.82-.528 2.804-1.087.614-.348 1.455-.826 1.816-.826.36 0 1.202.478 1.816.826.984.56 1.914 1.087 2.803 1.087.89 0 1.82-.528 2.804-1.087.614-.348 1.455-.826 1.815-.826.361 0 1.202.478 1.816.826.985.56 1.915 1.087 2.804 1.087s1.819-.528 2.803-1.087c.614-.348 1.455-.826 1.816-.826s1.202.478 1.816.826c.985.56 1.914 1.087 2.804 1.087s1.819-.528 2.803-1.087c.614-.348 1.455-.826 1.816-.826.36 0 1.202.478 1.816.826.984.56 1.914 1.087 2.803 1.087.89 0 1.82-.528 2.804-1.087.564-.32 1.32-.749 1.719-.816V.547c-.86.036-1.758.544-2.707 1.083-.614.349-1.455.826-1.816.826-.36 0-1.202-.477-1.816-.826-.984-.559-1.914-1.087-2.803-1.087-.89 0-1.82.528-2.804 1.087-.614.349-1.455.826-1.816.826-.36 0-1.201-.477-1.815-.826-.985-.559-1.915-1.087-2.804-1.087s-1.819.528-2.803 1.087c-.614.349-1.456.826-1.816.826s-1.202-.477-1.816-.826C20.199 1.071 19.269.543 18.38.543s-1.819.528-2.803 1.087c-.614.349-1.455.826-1.816.826-.36 0-1.202-.477-1.816-.826-.984-.559-1.914-1.087-2.803-1.087-.89 0-1.82.528-2.804 1.087-.614.349-1.455.826-1.816.826-.36 0-1.202-.477-1.816-.826C1.758 1.091.86.583 0 .547zM41.478 7.456c-.361 0-1.202-.477-1.816-.826-.985-.559-1.915-1.087-2.804-1.087s-1.819.528-2.803 1.087c-.614.349-1.455.826-1.816.826s-1.202-.477-1.816-.826c-.984-.559-1.914-1.087-2.803-1.087-.89 0-1.82.528-2.804 1.087-.614.349-1.455.826-1.816.826-.36 0-1.202-.477-1.816-.826-.984-.559-1.914-1.087-2.803-1.087-.89 0-1.82.528-2.804 1.087-.614.349-1.455.826-1.816.826-.36 0-1.202-.477-1.816-.826-.984-.559-1.914-1.087-2.803-1.087-.89 0-1.819.528-2.804 1.087-.614.349-1.455.826-1.815.826-.361 0-1.202-.477-1.816-.826C1.757 6.091.86 5.583 0 5.546v2.007c.399.067 1.154.495 1.719.816.984.56 1.914 1.087 2.803 1.087.89 0 1.82-.528 2.804-1.087.614-.348 1.455-.826 1.816-.826.36 0 1.202.477 1.816.826.984.56 1.914 1.087 2.803 1.087.89 0 1.82-.528 2.804-1.087.614-.348 1.455-.826 1.815-.826.361 0 1.202.477 1.816.826.985.56 1.915 1.087 2.804 1.087s1.819-.528 2.803-1.087c.614-.348 1.455-.826 1.816-.826s1.202.477 1.816.826c.985.56 1.914 1.087 2.804 1.087s1.819-.528 2.803-1.087c.614-.348 1.455-.826 1.816-.826.36 0 1.202.477 1.816.826.984.56 1.914 1.087 2.803 1.087.89 0 1.82-.528 2.804-1.087.564-.32 1.32-.75 1.719-.816V5.546c-.86.037-1.758.545-2.707 1.084-.614.349-1.454.826-1.815.826M46 10.547c-.86.036-1.758.544-2.706 1.083-.614.349-1.456.826-1.816.826s-1.202-.477-1.816-.826c-.985-.559-1.915-1.087-2.804-1.087s-1.819.528-2.803 1.087c-.614.349-1.455.826-1.816.826s-1.202-.477-1.816-.826c-.984-.559-1.914-1.087-2.803-1.087-.89 0-1.82.528-2.804 1.087-.614.349-1.455.826-1.816.826-.36 0-1.202-.477-1.816-.826-.984-.559-1.914-1.087-2.803-1.087-.89 0-1.82.528-2.804 1.087-.614.349-1.455.826-1.816.826-.36 0-1.202-.477-1.816-.826-.984-.559-1.914-1.087-2.803-1.087-.89 0-1.819.528-2.804 1.087-.614.349-1.455.826-1.815.826-.361 0-1.202-.477-1.816-.826C1.757 11.091.86 10.583 0 10.547v2.006c.399.067 1.154.495 1.719.816.984.56 1.914 1.087 2.803 1.087.89 0 1.82-.528 2.804-1.087.614-.348 1.455-.826 1.816-.826.36 0 1.202.478 1.816.826.984.56 1.914 1.087 2.803 1.087.89 0 1.82-.528 2.804-1.087.614-.348 1.455-.826 1.815-.826.361 0 1.202.478 1.816.826.985.56 1.915 1.087 2.804 1.087s1.819-.528 2.803-1.087c.614-.348 1.455-.826 1.816-.826s1.202.478 1.816.826c.985.56 1.915 1.087 2.804 1.087s1.819-.528 2.803-1.087c.614-.348 1.455-.826 1.816-.826.36 0 1.202.478 1.816.826.984.56 1.914 1.087 2.803 1.087.89 0 1.82-.528 2.804-1.087.564-.32 1.32-.749 1.719-.816zM41.478 22.456c-.361 0-1.202-.477-1.816-.826-.985-.559-1.915-1.087-2.804-1.087s-1.819.528-2.803 1.087c-.614.349-1.455.826-1.816.826s-1.202-.477-1.816-.826c-.984-.559-1.914-1.087-2.803-1.087-.89 0-1.82.528-2.804 1.087-.614.349-1.455.826-1.816.826-.36 0-1.202-.477-1.816-.826-.984-.559-1.914-1.087-2.803-1.087-.89 0-1.82.528-2.804 1.087-.614.349-1.455.826-1.816.826-.36 0-1.202-.477-1.816-.826-.984-.559-1.914-1.087-2.803-1.087-.89 0-1.819.528-2.804 1.087-.614.349-1.455.826-1.815.826-.361 0-1.202-.477-1.816-.826C1.757 21.091.86 20.583 0 20.547v2.006c.399.067 1.154.495 1.719.816.984.56 1.914 1.087 2.803 1.087.89 0 1.82-.528 2.804-1.087.614-.348 1.455-.826 1.816-.826.36 0 1.202.477 1.816.826.984.56 1.914 1.087 2.803 1.087.89 0 1.82-.528 2.804-1.087.614-.348 1.455-.826 1.815-.826.361 0 1.202.477 1.816.826.985.56 1.915 1.087 2.804 1.087s1.819-.528 2.803-1.087c.614-.348 1.455-.826 1.816-.826s1.202.477 1.816.826c.985.56 1.914 1.087 2.804 1.087s1.819-.528 2.803-1.087c.614-.348 1.455-.826 1.816-.826.36 0 1.202.477 1.816.826.984.56 1.914 1.087 2.803 1.087.89 0 1.82-.528 2.804-1.087.564-.32 1.32-.75 1.719-.816v-2.006c-.86.036-1.758.544-2.707 1.083-.614.349-1.454.826-1.815.826M46 25.547c-.86.036-1.758.544-2.706 1.083-.614.349-1.456.826-1.816.826s-1.202-.477-1.816-.826c-.985-.559-1.915-1.087-2.804-1.087s-1.819.528-2.803 1.087c-.614.349-1.455.826-1.816.826s-1.202-.477-1.816-.826c-.984-.559-1.914-1.087-2.803-1.087-.89 0-1.82.528-2.804 1.087-.614.349-1.455.826-1.816.826-.36 0-1.202-.477-1.816-.826-.984-.559-1.914-1.087-2.803-1.087-.89 0-1.82.528-2.804 1.087-.614.349-1.455.826-1.816.826-.36 0-1.202-.477-1.816-.826-.984-.559-1.914-1.087-2.803-1.087-.89 0-1.819.528-2.804 1.087-.614.349-1.455.826-1.815.826-.361 0-1.202-.477-1.816-.826C1.757 26.091.86 25.583 0 25.547v2.006c.399.067 1.154.495 1.719.816.984.56 1.914 1.087 2.803 1.087.89 0 1.82-.528 2.804-1.087.614-.349 1.455-.826 1.816-.826.36 0 1.202.477 1.816.826.984.56 1.914 1.087 2.803 1.087.89 0 1.82-.528 2.804-1.087.614-.349 1.455-.826 1.815-.826.361 0 1.202.477 1.816.826.985.56 1.915 1.087 2.804 1.087s1.819-.528 2.803-1.087c.614-.349 1.455-.826 1.816-.826s1.202.477 1.816.826c.985.56 1.915 1.087 2.804 1.087s1.819-.528 2.803-1.087c.614-.349 1.455-.826 1.816-.826.36 0 1.202.477 1.816.826.984.56 1.914 1.087 2.803 1.087.89 0 1.82-.528 2.804-1.087.564-.32 1.32-.75 1.719-.816z"/><path fill="#F0F0F0" d="M22.96 15H23v-.041z"/><path fill="#6DA544" d="M31.5 7.167h6l-3 3z"/><path fill="#A2001D" d="M35.166 9.5h-1.333v3.667h1.333zM35.167 19.167h-1.334v3.666h1.334z"/><path fill="#FFDA44" d="M38.5 17.167a2 2 0 0 0-3.333-1.491V14.5h.666v-1.334h-.666V12.5h-1.334v.666h-.666V14.5h.666v1.176a2 2 0 1 0-2.666 2.98v1.177h6.666v-1.176c.41-.366.667-.898.667-1.49"/><path fill="#D80027" d="M36.5 16.5a.66.66 0 0 0-.444.17l-.89.796h-1.333l-.889-.797a.667.667 0 0 0-.888.994l.444.398v.439h4v-.439l.444-.398A.668.668 0 0 0 36.5 16.5"/><path fill="#F0F0F0" d="M23-.333H0V15h23z"/><path fill="#D80027" d="M12.938-.334h-2.876v6.23H0V8.77h10.063V15h2.874V8.77H23V5.897H12.938z"/><path fill="#D80027" d="M0-.334v1.355l5.155 3.437h2.032z"/><path fill="#2E52B2" d="M0 1.699v2.76h4.139zM8.625-.333V4.06L2.033-.333z"/><path fill="#D80027" d="M23-.334v1.355l-5.155 3.437h-2.032z"/><path fill="#2E52B2" d="M23 1.699v2.76h-4.14zM14.375-.333V4.06l6.592-4.394z"/><path fill="#D80027" d="M0-.334v1.355l5.155 3.437h2.032z"/><path fill="#2E52B2" d="M0 1.699v2.76h4.139zM8.625-.333V4.06L2.033-.333z"/><path fill="#D80027" d="M23-.334v1.355l-5.155 3.437h-2.032z"/><path fill="#2E52B2" d="M23 1.699v2.76h-4.14zM14.375-.333V4.06l6.592-4.394z"/><path fill="#D80027" d="M0 15v-1.355l5.155-3.437h2.032z"/><path fill="#2E52B2" d="M0 12.968v-2.76h4.139zM8.625 15v-4.395l-6.592 4.394z"/><path fill="#D80027" d="M23 15v-1.355l-5.155-3.437h-2.032z"/><path fill="#2E52B2" d="M23 12.967v-2.759h-4.14zM14.375 15v-4.395l6.592 4.394z"/></g><defs><clipPath id="a"><path fill="#fff" d="M0 0h46v30H0z"/></clipPath></defs></svg>