<svg xmlns="http://www.w3.org/2000/svg" fill="none" viewBox="0 0 46 30"><g clip-path="url(#a)"><path fill="#0052B4" d="M46-.333H0v30.667h46z"/><path fill="#6DA544" d="M34.5 11a2.667 2.667 0 1 0 0-5.334 2.667 2.667 0 0 0 0 5.333"/><path fill="#D80027" d="M39.166 7.667h-9.333v4h9.333z"/><path fill="#FFDA44" d="M29.834 17.667v2.666h1.402a4.65 4.65 0 0 0 3.264 1.334 4.65 4.65 0 0 0 3.264-1.334h1.403v-2.666z"/><path fill="#338AF3" d="M29.834 11v4c0 3.572 4.666 4.666 4.666 4.666s4.667-1.094 4.667-4.666v-4z"/><path fill="#F3F3F3" d="M34.5 13.136c-1.167 0-1.167 1.067-2.334 1.067-1.166 0-1.166-1.067-2.333-1.067v1.867c1.167 0 1.167 1.067 2.334 1.067 1.166 0 1.166-1.067 2.333-1.067 1.166 0 1.166 1.067 2.333 1.067s1.167-1.067 2.334-1.067v-1.867c-1.167 0-1.167 1.067-2.334 1.067-1.166 0-1.166-1.067-2.333-1.067M34.5 9.4c-1.167 0-1.167 1.066-2.334 1.066C31 10.467 31 9.4 29.834 9.4v1.866c1.167 0 1.167 1.067 2.334 1.067 1.166 0 1.166-1.067 2.333-1.067 1.166 0 1.166 1.067 2.333 1.067s1.167-1.067 2.334-1.067V9.4C38 9.4 38 10.466 36.833 10.466c-1.166 0-1.166-1.066-2.333-1.066"/><path fill="#F0F0F0" d="M23-.333v2.032l-4.139 2.759h4.14v5.75h-4.14l4.14 2.76V15h-2.034l-6.592-4.395V15h-5.75v-4.395L2.033 15H0v-2.032l4.14-2.76H0v-5.75h4.14L0 1.698V-.332h2.033L8.625 4.06V-.333h5.75V4.06l6.592-4.394z"/><path fill="#D80027" d="M12.938-.334h-2.875v6.23H0V8.77h10.063V15h2.875V8.77H23V5.897H12.938z"/><path fill="#D80027" d="M0-.334v1.355l5.155 3.437h2.033zM23-.334v1.355l-5.155 3.437h-2.032z"/><path fill="#D80027" d="M0-.334v1.355l5.155 3.437h2.033zM23-.334v1.355l-5.155 3.437h-2.032zM0 15v-1.355l5.155-3.437h2.033zM23 15v-1.355l-5.155-3.437h-2.032z"/></g><defs><clipPath id="a"><path fill="#fff" d="M0 0h46v30H0z"/></clipPath></defs></svg>