<svg xmlns="http://www.w3.org/2000/svg" fill="none" viewBox="0 0 46 30"><g clip-path="url(#a)"><path fill="#D80027" d="M46-.333H0v30.667h46z"/><path fill="#6DA544" d="M19 15H0v7.667h19zM46 15H27v7.667h19z"/><path fill="#0052B4" d="M0-.333v7.666h19V-.333h8v7.666h19V-.333z"/><path fill="#F0F0F0" d="M46 7.333H27V15h19zM19 7.333H0V15h19z"/><path fill="#FFDA44" d="M27 30.333h-8v-7.667H0v7.667h46v-7.667H27zM10.753 2l.413 1.273h1.339l-1.083.787.414 1.273-1.083-.787-1.083.787.413-1.273L9 3.273h1.339z"/></g><defs><clipPath id="a"><path fill="#fff" d="M0 0h46v30H0z"/></clipPath></defs></svg>