<svg xmlns="http://www.w3.org/2000/svg" fill="none" viewBox="0 0 46 30"><g clip-path="url(#a)"><path fill="#0052B4" d="M46-.333H0v30.666h46z"/><path fill="#FFDA44" d="M46-.333H0v7.667h46z"/><path fill="#F0F0F0" d="M46 7.333H0V15h46z"/><path fill="#D80027" d="M46 15H0v7.667h46z"/><path fill="#6DA544" d="M23 15 0 30.335V-.333z"/><path fill="#F0F0F0" d="M6.167 15c0-2.234 1.57-4.1 3.666-4.558a4.667 4.667 0 1 0 0 9.116A4.67 4.67 0 0 1 6.167 15"/><path fill="#F0F0F0" d="m9.782 11 .248.764h.803l-.65.472.248.764-.65-.472-.65.472.249-.764-.65-.472h.803zM9.782 13l.248.764h.803l-.65.472.248.764-.65-.472-.65.472.249-.764-.65-.472h.803zM9.782 15l.248.764h.803l-.65.472.248.764-.65-.472-.65.472.249-.764-.65-.472h.803zM9.782 17l.248.764h.803l-.65.472.248.764-.65-.472-.65.472.249-.764-.65-.472h.803z"/></g><defs><clipPath id="a"><path fill="#fff" d="M0 0h46v30H0z"/></clipPath></defs></svg>