<svg xmlns="http://www.w3.org/2000/svg" fill="none" viewBox="0 0 46 30"><g clip-path="url(#a)"><path fill="#F0F0F0" d="M46-.333H0v30.667h46z"/><path fill="#000" d="M28.339 12.654a5.872 5.872 0 0 0-11.237-2.387l-.724 2.626.666.666-1.333 2.667 1.333.667-.666.667v.666l.666.667v1.333l.667.667 2-.667s0 .667.667 1.334c.666.666 1.333 2 1.333 2s2 .667 3.333-1.333 2.667-2.667 2.667-2.667l-1.285-2.57a5.86 5.86 0 0 0 1.913-4.336"/><path fill="#ACABB1" d="M28.817 14.9c2.71-.458 3.16-5.763 3.16-5.763h-3.733c1.934 4.667-.09 4.981-.09 4.981-.274-.204-10.085-4.852-10.396-4.97-.075.1-.35.364-.686 1.184a6.5 6.5 0 0 0-.418 1.557c.158.103 10.577 3.741 10.852 3.771.547.358 1.22 1.426.843 4.595l3.594-1.013s-1.22-3.244-3.126-4.343"/></g><defs><clipPath id="a"><path fill="#fff" d="M0 0h46v30H0z"/></clipPath></defs></svg>