<svg xmlns="http://www.w3.org/2000/svg" fill="none" viewBox="0 0 46 30"><g clip-path="url(#a)"><path fill="#0052B4" d="M46-.333H0v30.667h46z"/><path fill="#F3F3F3" d="M38.431 18.578c.441-.607.736-1.348.736-2.245V9.666a3.3 3.3 0 0 1-2 .667A3.33 3.33 0 0 1 34.5 9a3.33 3.33 0 0 1-2.667 1.333c-.75 0-1.443-.248-2-.666v6.666c0 .897.295 1.638.735 2.245z"/><path fill="#FF9811" d="M37.044 15.096c.213-.518.378-1.274.378-1.651 0-.606-.79-1.096-.79-1.096s-.788.49-.788 1.096c0 .377.165 1.133.377 1.651l-.456 1.029a2.3 2.3 0 0 0 1.735 0zM33.96 11.766c-.554.075-1.292.31-1.618.5-.525.302-.555 1.23-.555 1.23s.82.438 1.343.136c.327-.189.9-.71 1.242-1.153l1.118-.12a2.3 2.3 0 0 0-.867-1.502zM32.618 16.102c.343.443.915.964 1.242 1.152.524.303 1.343-.135 1.343-.135s-.03-.929-.554-1.231c-.327-.189-1.065-.424-1.62-.5l-.662-.908a2.3 2.3 0 0 0-.867 1.502z"/><path fill="#338AF3" d="M30.404 18.333C31.649 20.331 34.5 21 34.5 21s2.851-.669 4.096-2.667z"/><path fill="#F0F0F0" d="M23 8.77H12.938V15h1.437v-4.395L20.967 15H23l-7.188-4.792h2.033L23 13.645v-.677l-4.139-2.76h4.14zM15.812 4.458 23-.333h-2.033L14.375 4.06V-.333h-1.437v6.229H23V4.458h-4.139l4.14-2.76v-.676l-5.156 3.436zM8.625-.333V4.06L2.033-.333H0l7.189 4.79H5.155L0 1.023v.677l4.14 2.759H0v1.438h10.062v-6.23zM0 8.77v1.438h4.14L0 12.968v.677l5.155-3.437h2.033L0 15h2.033l6.592-4.395V15h1.437V8.77z"/><path fill="#D80027" d="M12.938-.334h-2.875v6.23H0V8.77h10.063V15h2.875V8.77H23V5.895H12.939z"/><path fill="#D80027" d="M7.188 4.458 0-.334v1.355l5.155 3.437zM15.813 4.458h2.032L23 1.021V-.334zM5.155 10.208 0 13.645V15l7.188-4.792zM15.813 10.208 23 15v-1.355l-5.155-3.437z"/></g><defs><clipPath id="a"><path fill="#fff" d="M0 0h46v30H0z"/></clipPath></defs></svg>