<svg xmlns="http://www.w3.org/2000/svg" fill="none" viewBox="0 0 46 30"><g clip-path="url(#a)"><path fill="#0052B4" d="M46-.46H0v30.666h46z"/><path fill="#D80027" d="M46 1.752 5.363 15.206 46 28.66v1.8L0 15.206 46-.048z"/><path fill="#F0F0F0" d="M46 25.62v3.04L5.363 15.206 46 1.752v3.04"/><path fill="#A2001D" d="M44.32 14.775h-2.63a2.09 2.09 0 0 0-.13-2.813 2.09 2.09 0 0 0 0-2.956l-.048.05c.816-.816.865-2.189.049-3.005L29.74 17.873a2.06 2.06 0 0 0 2.932-.01l.227-.208 5.66-.515v2.435h1.92v-2.61l2.88-.261z"/><path fill="#FFDA44" d="m29.92 20.398-1.92-.96 1.92-.96H42.4v1.92z"/></g><defs><clipPath id="a"><path fill="#fff" d="M0 0h46v30H0z"/></clipPath></defs></svg>