<svg xmlns="http://www.w3.org/2000/svg" fill="none" viewBox="0 0 46 30"><g clip-path="url(#a)"><path fill="#0052B4" d="M46-.333H0v30.667h46z"/><path fill="#6DA544" d="M0-.333h46v30.666"/><path fill="#FFDA44" d="M23 19a4 4 0 1 0 0-8 4 4 0 0 0 0 8"/><path fill="#F0F0F0" d="m11.462 23.666.42.88.95-.22-.425.878.764.606-.95.214.002.976-.761-.61-.76.61.002-.976-.952-.214.765-.606-.426-.877.95.22zM8.71 16.333l.42.88.95-.22-.425.878.764.606-.952.214.003.975-.76-.61-.762.61.003-.975L7 18.477l.764-.606-.426-.878.95.22zM11.462 10.333l.42.88.95-.22-.425.878.764.606-.95.214.002.975-.761-.61-.76.61.002-.975-.952-.214.764-.606-.425-.878.95.22zM14.88 15l.422.88.95-.22-.426.878.764.605-.95.215.002.975-.761-.61-.76.61.002-.975-.952-.215.765-.605-.426-.878.95.22zM12.436 19l.33 1.018h1.072l-.867.63.331 1.018-.866-.629-.867.63.331-1.02-.866-.629h1.071z"/><path fill="#6DA544" d="M23 17.667h1.333s.578-1.023 0-2l1.334-1.334L25 13h-.667s-.333 1-1.666 1C21.333 14 21 13 21 13h-.667L21 14.333l-.667 1.333.667.667s.667-1.333 2-.667c0 0 .567.834 0 2"/><path fill="#FFDA44" d="M35.618 10.042A2.666 2.666 0 0 0 33.822 7a4.98 4.98 0 0 1 .45 2.987 2.737 2.737 0 0 0-3.837-.838 5.1 5.1 0 0 1 2.096.998c.497.396.9.931 1.207 1.448l-4.071 1.275c4 .667 7.333-2 7.333-2-.37-.739-.943-.863-1.382-.828"/></g><defs><clipPath id="a"><path fill="#fff" d="M0 0h46v30H0z"/></clipPath></defs></svg>