<svg xmlns="http://www.w3.org/2000/svg" fill="none" viewBox="0 0 46 30"><g clip-path="url(#a)"><path fill="#6DA544" d="M46-.333H0v30.667h46z"/><path fill="#FFDA44" d="m31.204 21.666.42.88.951-.22-.425.878.764.606-.952.214.003.976-.76-.61-.762.61.003-.976-.951-.214.764-.606-.426-.878.95.22zM27.29 12.333l.421.88.95-.22-.425.878.764.605-.952.215.003.975-.76-.61-.762.61.003-.975-.951-.215.764-.605-.426-.878.95.22zM31.204 7l.42.88.951-.22-.425.877.764.606-.952.215.003.975-.76-.61-.762.61.003-.975-.951-.215.764-.606-.426-.877.95.22zM34.624 11l.42.88.95-.22-.425.877.764.606-.951.215.002.975-.76-.61-.761.61.002-.975-.951-.215.764-.606-.425-.877.95.22zM32.178 15.666l.331 1.019h1.071l-.866.63.331 1.018-.867-.63-.866.63.331-1.019-.867-.63h1.072z"/><path fill="#FFDA44" d="M24.666 19.333a4.333 4.333 0 1 1 2.062-8.146 5.333 5.333 0 1 0 0 7.625 4.3 4.3 0 0 1-2.062.52M17.309 5.666a2.665 2.665 0 0 0-4.618 0zM17.318 5.682 15 8l-2.318-2.318a2.667 2.667 0 1 0 4.636 0"/><path fill="#A2001D" d="M14.333 7.333v2.25a2.7 2.7 0 0 0 1.334 0v-2.25z"/></g><defs><clipPath id="a"><path fill="#fff" d="M0 0h46v30H0z"/></clipPath></defs></svg>