<svg xmlns="http://www.w3.org/2000/svg" fill="none" viewBox="0 0 46 30"><g clip-path="url(#a)"><path fill="#0052B4" d="M46-.333H0v30.667h46z"/><path fill="#F0F0F0" d="m34.5 6.08.474 1.46h1.536l-1.243.902.475 1.46L34.5 9l-1.242.902.474-1.46-1.242-.903h1.535zM28.192 8.692l1.368.697 1.086-1.086-.24 1.517 1.367.697-1.516.24-.24 1.517-.697-1.368-1.517.24 1.086-1.086zM25.58 15l1.46-.475V12.99l.902 1.242 1.46-.475L28.5 15l.902 1.242-1.46-.475-.902 1.242v-1.535zM28.192 21.308l.697-1.369-1.086-1.085 1.517.24.697-1.368.24 1.516 1.516.24-1.367.697.24 1.517-1.086-1.086zM34.5 23.92l-.475-1.46H32.49l1.242-.902-.475-1.46L34.5 21l1.243-.903-.475 1.46 1.242.903h-1.535zM40.808 21.308l-1.369-.698-1.085 1.086.24-1.517-1.368-.696 1.516-.24.24-1.517.697 1.368 1.517-.24-1.086 1.085zM43.42 15l-1.46.474v1.535l-.903-1.242-1.46.475.902-1.242-.902-1.243 1.46.475.903-1.242v1.535zM40.808 8.692l-.697 1.368 1.085 1.086-1.517-.24-.696 1.367-.24-1.516-1.517-.24 1.368-.697-.24-1.517 1.085 1.086zM0 8.77v1.438h4.139l-4.14 2.76v.677l5.155-3.437h2.033L0 15h10.062V8.77zM8.625 15H2.033l6.592-4.395zM15.812 4.458 23-.333H12.937v6.229H23V4.458h-4.14L23 1.698v-.676l-5.155 3.436zM14.375-.333h6.592L14.375 4.06zM12.937 15H23l-7.188-4.792h2.033L23 13.645v-.677l-4.14-2.76H23V8.771H12.937zm1.438-4.395L20.967 15h-6.592zM10.062-.333H0l7.187 4.791H5.155L0 1.022v.677l4.139 2.76h-4.14v1.437h10.063zM8.625 4.06 2.033-.333h6.592z"/><path fill="#D80027" d="M12.937-.333h-2.875v6.229H0V8.77h10.062V15h2.875V8.77H23V5.897H12.937z"/><path fill="#D80027" d="M7.187 4.458 0-.333v1.355l5.155 3.436zM15.812 4.458h2.033L23 1.022V-.333zM5.154 10.208 0 13.645V15l7.187-4.792zM15.812 10.208 23 15v-1.355l-5.155-3.437z"/></g><defs><clipPath id="a"><path fill="#fff" d="M0 0h46v30H0z"/></clipPath></defs></svg>