<svg xmlns="http://www.w3.org/2000/svg" fill="none" viewBox="0 0 46 30"><g clip-path="url(#a)"><path fill="#D80027" d="M0-.336v30.672h46V-.336z"/><path fill="#6DA544" d="M31.625 12.35H25.04L23 6.078l-2.04 6.263h-6.585l5.328 3.872-2.04 6.262 5.328-3.872 5.328 3.872-2.04-6.262zm-10.43 3.387.691-2.12h2.228l.692 2.12L23 17.048zM23.7 12.35h-1.402L23 10.193zm2.183 2.605-.431-1.339h2.273zm-5.337-1.339-.43 1.34-1.834-1.34zm-.467 5.553.701-2.157 1.132.827zm3.998-1.339 1.132-.826.701 2.156z"/></g><defs><clipPath id="a"><path fill="#fff" d="M0 0h46v30H0z"/></clipPath></defs></svg>