<?xml version="1.0" encoding="UTF-8"?>
<!-- Generator: Adobe Illustrator 25.4.1, SVG Export Plug-In . SVG Version: 6.00 Build 0)  -->
<svg xmlns="http://www.w3.org/2000/svg" xmlns:xlink="http://www.w3.org/1999/xlink" version="1.1" id="Capa_1" x="0px" y="0px" viewBox="0 0 512 512" style="enable-background:new 0 0 512 512;" xml:space="preserve" width="512" height="512">
<style type="text/css">
	.st0{fill:#D80027;}
	.st1{fill:#6DA544;}
</style>
<polygon class="st0" points="0,85.3 0,256 0,426.7 512,426.7 512,256 512,85.3 "/>
<path class="st1" d="M352,226.5h-73.3L256,156.7l-22.7,69.7H160l59.3,43.1l-22.7,69.7l59.3-43.1l59.3,43.1l-22.7-69.7L352,226.5z   M235.9,264.2l7.7-23.6h24.8l7.7,23.6l0,0v0L256,278.8L235.9,264.2L235.9,264.2L235.9,264.2z M263.8,226.5h-15.6l7.8-24L263.8,226.5  z M288.1,255.5l-4.8-14.9h25.3L288.1,255.5z M228.7,240.6l-4.8,14.9l-20.4-14.9H228.7z M223.5,302.4l7.8-24l12.6,9.2L223.5,302.4z   M268,287.5l12.6-9.2l7.8,24L268,287.5z"/>
</svg>
