<svg xmlns="http://www.w3.org/2000/svg" fill="none" viewBox="0 0 46 30"><g clip-path="url(#a)"><path fill="#D80027" d="M46-.333H0v30.666h46z"/><path fill="#0052B4" d="M23-.333H0V15h23z"/><path fill="#F0F0F0" d="m16.75 7.333-2.145 1.01 1.142 2.077-2.33-.446-.294 2.354-1.623-1.731-1.623 1.73-.295-2.353-2.33.446 1.143-2.078L6.25 7.333l2.145-1.009-1.142-2.077 2.33.445.295-2.353L11.5 4.07l1.623-1.73.295 2.353 2.33-.445-1.143 2.077z"/><path fill="#0052B4" d="M11.5 9.94a2.606 2.606 0 1 0 0-5.212 2.606 2.606 0 0 0 0 5.212"/><path fill="#F0F0F0" d="M11.5 9.076c-.96 0-1.742-.782-1.742-1.743 0-.96.782-1.742 1.742-1.742s1.742.782 1.742 1.742c0 .961-.781 1.743-1.742 1.743"/></g><defs><clipPath id="a"><path fill="#fff" d="M0 0h46v30H0z"/></clipPath></defs></svg>