<svg xmlns="http://www.w3.org/2000/svg" fill="none" viewBox="0 0 46 30"><g clip-path="url(#a)"><path fill="#F0F0F0" d="M46-.333H0v30.666h46z"/><path fill="#D80027" d="M46-.333H0V9.889h46z"/><path fill="#000" d="M46 20.111H0v10.222h46z"/><path fill="#FF9811" d="M28.75 13.23h-4.313a1.438 1.438 0 0 0-2.875 0H17.25c0 .793.691 1.437 1.485 1.437h-.048c0 .794.644 1.437 1.438 1.437 0 .794.643 1.438 1.437 1.438h2.875c.794 0 1.438-.644 1.438-1.438.794 0 1.437-.643 1.437-1.437h-.047c.793 0 1.485-.644 1.485-1.438"/></g><defs><clipPath id="a"><path fill="#fff" d="M0 0h46v30H0z"/></clipPath></defs></svg>