<svg xmlns="http://www.w3.org/2000/svg" fill="none" viewBox="0 0 46 30"><g clip-path="url(#a)"><path fill="#F0F0F0" d="M46-.334H0v30.667h46z"/><path fill="#D80027" d="M46 3.5H0v3.832h46zM46 11.166H0V15h46zM46 18.832H0v3.833h46zM46 26.5H0v3.832h46z"/><path fill="#2E52B2" d="M23-.334H0V16.18h23z"/><path fill="#F0F0F0" d="m8.968 6.431-.37 1.14H7.398l.97.704-.37 1.14.969-.705.969.704-.37-1.14.969-.703H9.338zM9.338 11.683l-.37-1.14-.37 1.14H7.398l.97.704-.37 1.14.969-.704.969.704-.37-1.14.969-.704zM4.274 11.683l-.37-1.14-.37 1.14H2.336l.97.704-.371 1.14.97-.704.968.704-.37-1.14.97-.704zM3.904 6.431l-.37 1.14H2.336l.97.704-.371 1.14.97-.705.968.704-.37-1.14.97-.703H4.273zM8.968 2.319l-.37 1.14H7.398l.97.703-.37 1.14.969-.704.969.704-.37-1.14.969-.704H9.338zM3.904 2.319l-.37 1.14H2.336l.97.703-.371 1.14.97-.704.968.704-.37-1.14.97-.704H4.273zM14.032 6.431l-.37 1.14h-1.199l.97.704-.37 1.14.969-.705.969.704-.37-1.14.969-.703h-1.198zM14.402 11.683l-.37-1.14-.37 1.14h-1.199l.97.704-.37 1.14.969-.704.969.704-.37-1.14.969-.704zM19.466 11.683l-.37-1.14-.37 1.14h-1.199l.97.704-.37 1.14.969-.704.969.704-.37-1.14.969-.704zM19.096 6.431l-.37 1.14h-1.199l.97.704-.37 1.14.969-.705.969.704-.37-1.14.969-.703h-1.199zM14.032 2.319l-.37 1.14h-1.199l.97.703-.37 1.14.969-.704.969.704-.37-1.14.969-.704h-1.198zM19.096 2.319l-.37 1.14h-1.199l.97.703-.37 1.14.969-.704.969.704-.37-1.14.969-.704h-1.199z"/></g><defs><clipPath id="a"><path fill="#fff" d="M0 0h46v30H0z"/></clipPath></defs></svg>