<svg xmlns="http://www.w3.org/2000/svg" fill="none" viewBox="0 0 46 30"><g clip-path="url(#a)"><path fill="#F0F0F0" d="M46-.333H0v30.666h46z"/><path fill="#0052B4" d="M46-.333V15H23L0-.333z"/><path fill="#D80027" d="M46 15v15.333H0L23 15z"/><path fill="#FFDA44" d="m14.546 15-2.451-1.153 1.305-2.374-2.662.509-.337-2.69-1.855 1.978-1.854-1.978-.337 2.69-2.662-.51 1.305 2.375L2.546 15l2.452 1.153-1.305 2.375 2.662-.51.337 2.69 1.854-1.978 1.855 1.978.337-2.69 2.662.51-1.305-2.375zM1.958 2.566l.816 1.141 1.336-.423-.832 1.128.816 1.14-1.33-.443-.834 1.129.011-1.403-1.33-.443 1.336-.423zM1.958 23.763l.816 1.14 1.336-.423-.832 1.128.815 1.14-1.33-.443-.833 1.129.01-1.402-1.33-.444 1.337-.423zM18.903 13.165l-.816 1.14-1.337-.423.833 1.128-.816 1.14 1.33-.443.833 1.129-.01-1.402 1.33-.444-1.337-.423z"/></g><defs><clipPath id="a"><path fill="#fff" d="M0 0h46v30H0z"/></clipPath></defs></svg>