<svg xmlns="http://www.w3.org/2000/svg" fill="none" viewBox="0 0 46 30"><g clip-path="url(#a)"><path fill="#D80027" d="M46-.334H0v30.667h46z"/><path fill="#F0F0F0" d="M24.583 11.266c-.349 1.45-.968 1.173-1.272 2.437a3.333 3.333 0 0 1 1.558-6.482c-.607 2.528.025 2.749-.286 4.045M19.938 12.34c1.271.78.817 1.283 1.925 1.962a3.333 3.333 0 0 1-5.683-3.485c2.216 1.36 2.621.826 3.758 1.523M19.524 17.09c1.134-.969 1.473-.381 2.461-1.225a3.333 3.333 0 0 1-5.07 4.328c1.977-1.688 1.595-2.238 2.61-3.104M23.913 18.95c-.57-1.377.094-1.517-.403-2.719a3.334 3.334 0 0 1 2.55 6.16c-.995-2.402-1.637-2.208-2.147-3.44M27.04 15.351c-1.487.117-1.415-.558-2.711-.456a3.334 3.334 0 0 1 6.646-.52c-2.592.202-2.606.872-3.936.976"/></g><defs><clipPath id="a"><path fill="#fff" d="M0 0h46v30H0z"/></clipPath></defs></svg>