<svg xmlns="http://www.w3.org/2000/svg" fill="none" viewBox="0 0 46 30"><g clip-path="url(#a)"><path fill="#F0F0F0" d="M46-.333H0v30.666h46z"/><path fill="#338AF3" d="M46-.333H0V9.889h46zM46 20.11H0v10.223h46z"/><path fill="#FFDA44" d="m26.666 15-1.498.705.798 1.45-1.627-.31-.206 1.643L23 17.279l-1.133 1.209-.206-1.644-1.627.311.798-1.45L19.334 15l1.498-.705-.798-1.45 1.627.31.206-1.643L23 12.721l1.133-1.209.206 1.644 1.627-.312-.798 1.451z"/></g><defs><clipPath id="a"><path fill="#fff" d="M0 0h46v30H0z"/></clipPath></defs></svg>