<svg xmlns="http://www.w3.org/2000/svg" fill="none" viewBox="0 0 46 30"><g clip-path="url(#a)"><path fill="#F0F0F0" d="M46-.333H0v30.666h46z"/><path fill="#6DA544" d="M46-.333H0V9.889h46z"/><path fill="#D80027" d="M46 20.111H0v10.222h46zM26.984 11.8H25.38q.021.264.021.533c0 1.187-.296 2.337-.814 3.156-.16.252-.427.609-.786.85V11.8h-1.6v4.538c-.359-.24-.627-.597-.786-.85-.518-.818-.814-1.968-.814-3.155q.001-.269.02-.533h-1.604a9 9 0 0 0-.016.533c0 3.29 1.757 5.867 4 5.867s4-2.577 4-5.867q0-.27-.016-.533"/><path fill="#F0F0F0" d="M6 8.556H4v2.194h2zM2 8.556H0v2.194h2zM10 8.556H8v2.194h2zM14 8.556h-2v2.194h2zM18 8.556h-2v2.194h2zM22 8.556h-2v2.194h2zM26 8.556h-2v2.194h2zM30 8.556h-2v2.194h2zM34 8.556h-2v2.194h2zM38 8.556h-2v2.194h2zM42 8.556h-2v2.194h2zM46 8.556h-2v2.194h2zM6 19.15H4v2.294h2zM2 19.15H0v2.294h2zM10 19.15H8v2.294h2zM14 19.15h-2v2.294h2zM18 19.15h-2v2.294h2zM22 19.15h-2v2.294h2zM26 19.15h-2v2.294h2zM30 19.15h-2v2.294h2zM34 19.15h-2v2.294h2zM38 19.15h-2v2.294h2zM42 19.15h-2v2.294h2zM46 19.15h-2v2.294h2z"/></g><defs><clipPath id="a"><path fill="#fff" d="M0 0h46v30H0z"/></clipPath></defs></svg>