<svg xmlns="http://www.w3.org/2000/svg" fill="none" viewBox="0 0 46 30"><g clip-path="url(#a)"><path fill="#F0F0F0" d="M46-.334H0v30.667h46z"/><path fill="#2E52B2" d="M28.75 11.68h-3.833L23 8.36l-1.916 3.32H17.25L19.167 15l-1.917 3.32h3.834L23 21.638l1.917-3.32h3.833L26.833 15zM25.355 15l-1.178 2.039h-2.354l-1.178-2.04 1.178-2.039h2.354zM23 10.92l.438.76h-.876zm-3.532 2.04h.876l-.438.76zm0 4.079.438-.759.438.759zM23 19.079l-.438-.76h.876zm3.532-2.04h-.876l.438-.759zm-.876-4.079h.876l-.438.76zM46 1.582H0v3.833h46zM46 24.583H0v3.833h46z"/></g><defs><clipPath id="a"><path fill="#fff" d="M0 0h46v30H0z"/></clipPath></defs></svg>