<svg xmlns="http://www.w3.org/2000/svg" fill="none" viewBox="0 0 46 30"><g clip-path="url(#a)"><path fill="#6DA544" d="M46-.334H0v30.667h46z"/><path fill="#F0F0F0" d="M16.49 18c0 1.104.875 2 1.953 2h5.859c0 .92.729 1.666 1.627 1.666h1.953c.899 0 1.628-.746 1.628-1.666v-2zM29.672 8.333v4.666c0 .736-.584 1.334-1.302 1.334v2c1.795 0 3.255-1.495 3.255-3.334V8.333zM15.677 13c0 .735-.584 1.333-1.302 1.333v2c1.794 0 3.254-1.495 3.254-3.333V8.333h-1.952z"/><path fill="#F0F0F0" d="M28.696 8.333h-1.953v4.666h1.953zM23.814 11a.33.33 0 0 1-.326.333.33.33 0 0 1-.325-.334V8.333H21.21v2.666a.33.33 0 0 1-.326.334.33.33 0 0 1-.325-.334V8.333h-1.953v2.666c0 1.287 1.022 2.334 2.278 2.334.484 0 .933-.156 1.302-.42a2.23 2.23 0 0 0 1.59.4 1.31 1.31 0 0 1-1.264 1.02v2c1.794 0 3.254-1.495 3.254-3.333V8.333h-1.953z"/><path fill="#F0F0F0" d="M21.535 14.333h-2.93v2h2.93z"/></g><defs><clipPath id="a"><path fill="#fff" d="M0 0h46v30H0z"/></clipPath></defs></svg>