<svg xmlns="http://www.w3.org/2000/svg" fill="none" viewBox="0 0 46 30"><g clip-path="url(#a)"><path fill="#D80027" d="M46-.333H0v30.666h46z"/><path fill="#0052B4" d="M46 8.333H0v13.334h46z"/><path fill="#F0F0F0" d="m33 17.682-.722.564.314.86-.76-.512-.722.564.253-.88-.76-.512.916-.032.252-.88.314.86zM31.152 14.481l-.485.777.588.701-.888-.221-.486.777-.064-.914-.888-.222.849-.343-.064-.913.589.701zM28.32 12.106l-.19.895.794.458-.911.096-.19.896-.373-.837-.911.096.68-.613-.372-.836.793.457zM24.848 10.842l.127.906.902.16-.823.401.128.907-.637-.659-.823.402.43-.81-.636-.658.902.16zM21.152 10.842l.43.808.902-.159-.636.659.43.809-.823-.402-.637.659.128-.907-.823-.401.902-.16zM17.679 12.106l.68.612.794-.457-.373.836.68.613-.91-.096-.373.837-.19-.896-.91-.095.792-.459zM14.848 14.481l.85.343.588-.701-.064.914.849.343-.889.221-.064.914-.485-.777-.888.222.588-.702zM13 17.682l.915.032.313-.86.253.88.915.032-.76.512.253.88-.721-.564-.76.512.314-.86z"/><path fill="#FFDA44" d="M46-.333H0v8.666h46z"/></g><defs><clipPath id="a"><path fill="#fff" d="M0 0h46v30H0z"/></clipPath></defs></svg>