<svg xmlns="http://www.w3.org/2000/svg" fill="none" viewBox="0 0 46 30"><g clip-path="url(#a)"><path fill="#F0F0F0" d="M46-.334H0v30.667h46z"/><path fill="#D80027" d="M46 3.5H0v3.833h46zM46 11.167H0V15h46zM46 18.833H0v3.833h46zM46 26.5H0v3.833h46z"/><path fill="#0052B4" d="M23-.334H0V16.18h23z"/><path fill="#FFDA44" d="M12.66 11.714a3.792 3.792 0 1 1 1.804-7.127 4.667 4.667 0 1 0 0 6.672c-.536.29-1.15.455-1.803.455"/><path fill="#FFDA44" d="m13.73 5.256.672 1.407 1.52-.35-.68 1.403 1.222.97-1.522.343.005 1.56-1.218-.976-1.217.976.004-1.56-1.522-.343 1.223-.97-.681-1.404 1.52.351z"/></g><defs><clipPath id="a"><path fill="#fff" d="M0 0h46v30H0z"/></clipPath></defs></svg>