<svg xmlns="http://www.w3.org/2000/svg" fill="none" viewBox="0 0 46 30"><g clip-path="url(#a)"><path fill="#0052B4" d="M46-.333H0v30.667h46z"/><path fill="#D80027" d="m38.21 13 .305.937h.985l-.797.58.304.936-.796-.579-.797.58.304-.938-.797-.579h.985zM34.69 19.745l.456 1.406h1.477l-1.195.868.457 1.405-1.196-.868-1.195.868.456-1.405-1.195-.868h1.478zM34.822 8.708l.38 1.171h1.232l-.996.724.38 1.171-.996-.724-.996.724.38-1.171-.996-.724h1.232zM31.434 12.96l.457 1.405h1.477l-1.195.868.457 1.406-1.196-.869-1.195.869.456-1.406-1.195-.868h1.477z"/><path fill="#F0F0F0" d="M23-.334v2.746l-4.058 2.254H23V10h-5.31L23 12.95V15h-2.397L14 11.33V15H9v-4.364L1.147 15H0v-2.745L4.06 10H0V4.666h5.31L0 1.716v-2.05h2.398L9 3.336v-3.67h5V4.03l7.855-4.364z"/><path fill="#D80027" d="M12.938-.334h-2.876v6.23H0V8.77h10.063V15h2.874V8.77H23V5.897H12.938z"/><path fill="#0052B4" d="m14 10 9 5v-1.414L16.545 10z"/><path fill="#F0F0F0" d="m14 10 9 5v-1.414L16.545 10z"/><path fill="#D80027" d="m14 10 9 5v-1.414L16.545 10zM6.455 10 0 13.586V15l9-5z"/><path fill="#0052B4" d="m9 4.666-9-5V1.08l6.455 3.586z"/><path fill="#F0F0F0" d="m9 4.666-9-5V1.08l6.455 3.586z"/><path fill="#D80027" d="m9 4.666-9-5V1.08l6.455 3.586zM16.545 4.666 23 1.08V-.334l-9 5z"/></g><defs><clipPath id="a"><path fill="#fff" d="M0 0h46v30H0z"/></clipPath></defs></svg>