<svg xmlns="http://www.w3.org/2000/svg" fill="none" viewBox="0 0 46 30"><g clip-path="url(#a)"><path fill="#338AF3" d="M46-.334H0v30.667h46z"/><path fill="#F0F0F0" d="M23.022 9.703a5.308 5.308 0 1 0 0 10.615 5.308 5.308 0 0 0 0-10.615m-1.327 5.308a1.327 1.327 0 1 1 2.654 0 1.327 1.327 0 0 1-2.654 0m2.703-2.27a2.6 2.6 0 0 0-.669-.288v-1.36c.599.108 1.15.35 1.624.692zm-1.995-.31q-.376.09-.7.278l-.961-.96a3.96 3.96 0 0 1 1.66-.671zm-.7 4.882q.324.188.7.278v1.352a3.96 3.96 0 0 1-1.661-.67zm2.026.256q.359-.1.669-.288l.955.955a3.96 3.96 0 0 1-1.624.691zm1.595-1.239a2.6 2.6 0 0 0 .268-.656h1.354c-.1.594-.33 1.143-.662 1.617zm.268-1.983a2.6 2.6 0 0 0-.268-.656l.96-.96c.332.473.563 1.022.663 1.616zm-5.796-1.668.956.956a2.6 2.6 0 0 0-.3.712h-1.355a3.96 3.96 0 0 1 .7-1.668m-.699 2.995h1.355c.065.254.167.494.3.712l-.956.956a3.96 3.96 0 0 1-.699-1.668"/><path fill="#F0F0F0" d="M31.647 15.01c0-2.358-.948-4.496-2.483-6.053l-1.407 1.407a6.635 6.635 0 1 1-9.426-.045l-1.408-1.407a8.629 8.629 0 0 0 3.744 14.398 2.21 2.21 0 0 0 .23 2.41l2.17-1.738 2.168 1.738a2.21 2.21 0 0 0 .219-2.432 8.63 8.63 0 0 0 6.193-8.277"/></g><defs><clipPath id="a"><path fill="#fff" d="M0 0h46v30H0z"/></clipPath></defs></svg>