<svg xmlns="http://www.w3.org/2000/svg" fill="none" viewBox="0 0 46 30"><g clip-path="url(#a)"><path fill="#F0F0F0" d="M46-.333H0v30.666h46z"/><path fill="#0052B4" d="M46 9.667H0v10.666h46z"/><path fill="#D80027" d="M46 20.333H0v10h46z"/><path fill="#F0F0F0" d="M11.632 8.334v7.648c0 4.352 5.684 5.685 5.684 5.685S23 20.333 23 15.982V8.334z"/><path fill="#D80027" d="M13.129 8.558v7.361q0 .738.325 1.392h7.724q.325-.654.326-1.392V8.558z"/><path fill="#F0F0F0" d="M19.883 13.69h-1.925v-1.283h1.283v-1.283h-1.283V9.841h-1.283v1.283h-1.283v1.283h1.283v1.284H14.75v1.283h1.925v1.283h1.283v-1.283h1.925z"/><path fill="#0052B4" d="M15.205 19.102c.826.52 1.676.821 2.111.956a9.2 9.2 0 0 0 2.111-.956c.834-.524 1.42-1.124 1.751-1.791a2.24 2.24 0 0 0-1.806-.353 2.246 2.246 0 0 0-4.112 0 2.25 2.25 0 0 0-1.806.353c.332.667.917 1.267 1.75 1.791"/></g><defs><clipPath id="a"><path fill="#fff" d="M0 0h46v30H0z"/></clipPath></defs></svg>