<svg xmlns="http://www.w3.org/2000/svg" fill="none" viewBox="0 0 46 30"><g clip-path="url(#a)"><path fill="#F0F0F0" d="M46-.334H0v30.667h46z"/><path fill="#D80027" d="M28.6 15c0 1.4-2.507 4.9-5.6 4.9s-5.6-3.5-5.6-4.9a5.6 5.6 0 1 1 11.2 0"/><path fill="#0052B4" d="M28.6 15a5.6 5.6 0 1 1-11.2 0"/><path fill="#000" d="M30.425 18.465 28.94 19.95l.99.99 1.485-1.485zM27.95 20.939l-1.485 1.485.99.99 1.485-1.485zM33.395 21.433l-1.485 1.485.99.99 1.485-1.485zM30.92 23.909l-1.485 1.485.99.99 1.485-1.485zM31.91 19.95l-1.485 1.484.99.99 1.485-1.485zM29.435 22.424l-1.485 1.485.99.99 1.485-1.485zM27.95 6.09l3.96 3.96.99-.99-3.96-3.96zM26.466 7.575 27.95 9.06l.99-.99-1.485-1.485zM28.94 10.05l1.484 1.485.99-.99L29.93 9.06zM29.434 4.605l1.485 1.485.99-.99-1.486-1.485zM31.91 7.08l1.485 1.485.99-.99L32.9 6.09zM16.566 25.393l-3.96-3.96-.99.99 3.96 3.96zM18.05 23.91l-1.486-1.486-.99.99 1.486 1.485zM15.575 21.434l-1.485-1.485-.99.99 1.485 1.485zM19.535 22.425l-3.96-3.96-.99.99 3.96 3.96zM12.606 8.564l3.96-3.96-.99-.99-3.96 3.96zM14.09 10.05l3.96-3.96-.99-.99-3.96 3.96zM15.575 11.534l3.96-3.96-.99-.99-3.96 3.96z"/></g><defs><clipPath id="a"><path fill="#fff" d="M0 0h46v30H0z"/></clipPath></defs></svg>