<svg xmlns="http://www.w3.org/2000/svg" fill="none" viewBox="0 0 46 30"><g clip-path="url(#a)"><path fill="#F0F0F0" d="M46-.333H0v30.666h46z"/><path fill="#338AF3" d="M46-.333H0v4.381h46zM46 8.43H0v4.38h46zM46 17.191H0v4.381h46zM46 25.952H0v4.381h46z"/><path fill="#F0F0F0" d="M23-.333H0v17.524h23z"/><path fill="#FFDA44" d="M17.25 8.428 14.9 9.534l1.252 2.275-2.552-.488-.323 2.577-1.777-1.895-1.777 1.895-.323-2.577-2.552.488L8.1 9.534 5.75 8.428 8.1 7.323 6.848 5.048l2.552.488.323-2.577L11.5 4.854l1.777-1.895.323 2.577 2.552-.488L14.9 7.323z"/></g><defs><clipPath id="a"><path fill="#fff" d="M0 0h46v30H0z"/></clipPath></defs></svg>