<svg xmlns="http://www.w3.org/2000/svg" fill="none" viewBox="0 0 46 30"><g clip-path="url(#a)"><path fill="#91DC5A" d="M46-.334H0v30.667h46z"/><path fill="#F0F0F0" d="M46-.334H0v30.667h46z"/><path fill="#0052B4" d="M46-.334H0v5.138h46zM46 25.196H0v5.137h46z"/><path fill="#D80027" d="M46 6.844H0v16.313h46z"/><path fill="#F0F0F0" d="M17.1 20.9a5.9 5.9 0 1 0 0-11.8 5.9 5.9 0 0 0 0 11.8"/><path fill="#D80027" d="m17.1 9.1 1.324 4.074h4.29l-3.472 2.518 1.334 4.087-3.476-2.53-3.47 2.525 1.328-4.082-3.47-2.518h4.288z"/></g><defs><clipPath id="a"><path fill="#fff" d="M0 0h46v30H0z"/></clipPath></defs></svg>