<svg xmlns="http://www.w3.org/2000/svg" fill="none" viewBox="0 0 46 30"><g clip-path="url(#a)"><path fill="#338AF3" d="M46-.334H0v30.667h46z"/><path fill="#FFDA44" d="M31.625 15.878h-17.25c0 1.19 1.037 2.156 2.228 2.156h-.072c0 1.19.966 2.156 2.157 2.156 0 1.19.965 2.156 2.156 2.156h4.312c1.191 0 2.157-.965 2.157-2.156 1.19 0 2.156-.965 2.156-2.156h-.072c1.19 0 2.228-.966 2.228-2.156"/><path fill="#338AF3" d="M28.971 13.058a5.971 5.971 0 0 1-11.942 0"/><path fill="#FFDA44" d="m28.92 12.499-2.42.98 1.288 2.015-2.626-.432-.333 2.283L23 15.665l-1.83 1.68-.332-2.283-2.626.432 1.288-2.016-2.419-.98 2.419-.978-1.288-2.016 2.626.432.333-2.283L23 9.333l1.828-1.68.333 2.283 2.627-.432L26.5 11.52z"/></g><defs><clipPath id="a"><path fill="#fff" d="M0 0h46v30H0z"/></clipPath></defs></svg>