<svg xmlns="http://www.w3.org/2000/svg" fill="none" viewBox="0 0 46 30"><g clip-path="url(#a)"><path fill="#F0F0F0" d="m35.354 7.32 1.573 1.695 2.1-.972-1.127 2.02 1.573 1.696-2.27-.447-1.126 2.02-.276-2.296-2.27-.447 2.099-.972z"/><path fill="#F0F0F0" d="M46-.333H0v30.666h46z"/><path fill="#496E2D" d="M46-.334H11.5v30.667H46z"/><path fill="#F0F0F0" d="M32.515 18.845A6.23 6.23 0 1 1 28.06 7.618a7.667 7.667 0 1 0 6.42 8.885 6.2 6.2 0 0 1-1.964 2.342M32.396 7.533l1.57 1.693 2.096-.97-1.125 2.016 1.57 1.693-2.265-.446-1.125 2.017-.275-2.293-2.266-.447 2.095-.97z"/></g><defs><clipPath id="a"><path fill="#fff" d="M0 0h46v30H0z"/></clipPath></defs></svg>