<svg xmlns="http://www.w3.org/2000/svg" fill="none" viewBox="0 0 46 30"><g clip-path="url(#a)"><path fill="#F0F0F0" d="M46-.334H0v30.667h46z"/><path fill="#6DA544" d="M31.625 13.013h-1.99a6.635 6.635 0 0 1-13.27 0h-1.99a8.63 8.63 0 0 0 6.27 8.3 2.21 2.21 0 0 0 .23 2.409l2.17-1.738 2.168 1.738a2.21 2.21 0 0 0 .219-2.433 8.63 8.63 0 0 0 6.193-8.276"/><path fill="#FFDA44" d="M17.692 12.35s0 3.317 3.318 3.317l.663.663H23s.664-1.99 1.99-1.99c0 0 0-1.327 1.327-1.327h1.99s-.663-2.654 2.655-4.644l-1.327-.664s-4.645 3.317-7.962 2.654v1.327h-1.327l-.663-.664z"/></g><defs><clipPath id="a"><path fill="#fff" d="M0 0h46v30H0z"/></clipPath></defs></svg>