<svg xmlns="http://www.w3.org/2000/svg" fill="none" viewBox="0 0 46 30"><g clip-path="url(#a)"><path fill="#F0F0F0" d="M46-.334H0v30.667h46z"/><path fill="#000" d="M46-.334H0v8.138h46z"/><path fill="#496E2D" d="M46 22.196H0v8.136h46z"/><path fill="#A2001D" d="M46 9.844H0v10.314h46z"/><path fill="#F0F0F0" d="M29.044 4.56 26.745 3.5 23 11.978l-3.745-8.48-2.298 1.061L21.607 15l-4.65 10.438 2.298 1.061L23 18.02l3.745 8.48 2.299-1.06-4.65-10.44z"/><path fill="#F0F0F0" d="M24.561 5.56c-.89-.972-1.56-1.53-1.56-1.53s-.672.558-1.562 1.53v18.879c.89.971 1.561 1.53 1.561 1.53s.671-.559 1.561-1.53z"/><path fill="#A2001D" d="M18.78 9.18v11.638c.941 1.666 2.092 3.032 2.954 3.937V5.244c-.862.905-2.013 2.27-2.953 3.936M27.219 9.18c-.94-1.666-2.091-3.031-2.953-3.936v19.511c.862-.905 2.013-2.27 2.953-3.937z"/><path fill="#000" d="M27.219 9.18v11.638c.952-1.686 1.688-3.68 1.688-5.819 0-2.137-.736-4.132-1.688-5.819M18.78 9.18v11.638c-.95-1.686-1.687-3.68-1.687-5.819 0-2.137.736-4.132 1.688-5.819"/></g><defs><clipPath id="a"><path fill="#fff" d="M0 0h46v30H0z"/></clipPath></defs></svg>