<svg xmlns="http://www.w3.org/2000/svg" fill="none" viewBox="0 0 46 30"><g clip-path="url(#a)"><path fill="#F0F0F0" d="M46-.333H0v30.666h46z"/><path fill="#338AF3" d="M46-.333H0V9.889h46zM46 20.111H0v10.222h46zM18.282 10.733l.398 1.223h1.285l-1.04.755.397 1.222-1.04-.755-1.04.755.398-1.222-1.04-.755h1.285zM18.282 16.067l.398 1.222h1.285l-1.04.755.397 1.223-1.04-.756-1.04.756.398-1.223-1.04-.755h1.285zM27.718 10.733l.397 1.223H29.4l-1.04.755.397 1.222-1.04-.755-1.04.755.398-1.222-1.04-.755h1.285zM27.718 16.067l.397 1.222H29.4l-1.04.755.397 1.223-1.04-.756-1.04.756.398-1.223-1.04-.755h1.285zM23 13.4l.397 1.222h1.285l-1.04.756.398 1.222-1.04-.755-1.04.755.397-1.222-1.04-.756h1.286z"/></g><defs><clipPath id="a"><path fill="#fff" d="M0 0h46v30H0z"/></clipPath></defs></svg>