<svg xmlns="http://www.w3.org/2000/svg" fill="none" viewBox="0 0 46 30"><g clip-path="url(#a)"><path fill="#6DA544" d="M46-.333H0v30.666h46z"/><path fill="#000" d="M19.394 15 0 27.93V2.07zM46 2.07v25.86L26.606 15z"/><path fill="#0052B4" d="M46 2.07 26.606 15 46 27.93v2.403h-3.605L23 17.403 3.605 30.334H0V27.93L19.394 15 0 2.07V-.334h3.605L23 12.596 42.395-.333H46z"/><path fill="#FFDA44" d="M46 2.07 26.606 15 46 27.93v2.403h-3.605L23 17.403 3.605 30.334H0V27.93L19.394 15 0 2.07V-.334h3.605L23 12.596 42.395-.333H46z"/></g><defs><clipPath id="a"><path fill="#fff" d="M0 0h46v30H0z"/></clipPath></defs></svg>