<svg xmlns="http://www.w3.org/2000/svg" fill="none" viewBox="0 0 46 30"><g clip-path="url(#a)"><path fill="#F0F0F0" d="M46-.333H0v30.666h46z"/><path fill="#D80027" d="M46 3.5H0v3.833h46z"/><path fill="#0052B4" d="M46 7.333H0v3.833h46z"/><path fill="#D80027" d="M46 15H0v3.833h46z"/><path fill="#0052B4" d="M46 18.833H0v3.833h46z"/><path fill="#D80027" d="M46 26.5H0v3.833h46z"/><path fill="#F0F0F0" d="M23-.333H0V15h23z"/><path fill="#D80027" d="M12.938-.333h-2.875v6.23H0V8.77h10.063v6.23h2.875V8.77H23V5.896H12.938z"/><path fill="#0052B4" d="M17.69 10 23 12.95V10zM14 10l9 5v-1.414L16.545 10zM20.603 15 14 11.332V15z"/><path fill="#F0F0F0" d="m14 10 9 5v-1.414L16.545 10z"/><path fill="#D80027" d="m14 10 9 5v-1.414L16.545 10z"/><path fill="#0052B4" d="M4.059 10 0 12.255V10zM9 10.636V15H1.145z"/><path fill="#D80027" d="M6.455 10 0 13.586V15l9-5z"/><path fill="#0052B4" d="m5.311 4.667-5.31-2.95v2.95zM9 4.667l-9-5V1.08l6.455 3.586zM2.397-.333 9 3.336V-.333z"/><path fill="#F0F0F0" d="m9 4.667-9-5V1.08l6.455 3.586z"/><path fill="#D80027" d="m9 4.667-9-5V1.08l6.455 3.586z"/><path fill="#0052B4" d="M18.942 4.667 23 2.412v2.255zM14 4.031V-.333h7.855z"/><path fill="#D80027" d="M16.545 4.667 23 1.08V-.333l-9 5z"/></g><defs><clipPath id="a"><path fill="#fff" d="M0 0h46v30H0z"/></clipPath></defs></svg>