<svg xmlns="http://www.w3.org/2000/svg" fill="none" viewBox="0 0 46 30"><g clip-path="url(#a)"><path fill="#496E2D" d="M46-.333H0v30.666h46z"/><path fill="#0052B4" d="M0 30.333V-.333h46"/><path fill="#F0F0F0" d="M46 5.676v-6.01h-9.014L0 24.325v6.009h9.014z"/><path fill="#A2001D" d="M46-.333v3.605L5.408 30.332H0v-3.604L40.592-.333z"/><path fill="#FFDA44" d="m16.867 9-2.043.96 1.088 1.98-2.219-.425-.28 2.241-1.546-1.648-1.545 1.648-.281-2.241-2.219.424L8.91 9.961 6.867 9l2.043-.961L7.822 6.06l2.218.424.282-2.24 1.545 1.648 1.545-1.649.281 2.241 2.219-.424-1.088 1.979z"/></g><defs><clipPath id="a"><path fill="#fff" d="M0 0h46v30H0z"/></clipPath></defs></svg>