<svg xmlns="http://www.w3.org/2000/svg" fill="none" viewBox="0 0 46 30"><g clip-path="url(#a)"><path fill="#F0F0F0" d="M46-.333H0v30.666h46z"/><path fill="#D80027" d="M19 19H0v11.333h19z"/><path fill="#0052B4" d="M19-.333H0V11h19z"/><path fill="#D80027" d="M46-.333H27V11h19z"/><path fill="#0052B4" d="M46 19H27v11.333h19z"/><path fill="#496E2D" d="M27 15a4 4 0 0 1-8 0c0-2.209 4-4 4-4s4 1.791 4 4"/><path fill="#0052B4" d="M19 15a4 4 0 1 1 8 0"/><path fill="#D80027" d="M20.75 13v2.5a2.25 2.25 0 0 0 4.5 0V13z"/></g><defs><clipPath id="a"><path fill="#fff" d="M0 0h46v30H0z"/></clipPath></defs></svg>