<svg xmlns="http://www.w3.org/2000/svg" fill="none" viewBox="0 0 46 30"><g clip-path="url(#a)"><path fill="#F0F0F0" d="M46-.333H0v30.666h46z"/><path fill="#496E2D" d="M46 15H0v15.333h46z"/><path fill="#D80027" d="M33.901 9.913a4.34 4.34 0 0 0-4.093-2.897h-3.72a4.34 4.34 0 0 0-4.339 4.34c0 .783.209 1.535.572 2.17-1.382-.012-2.66.009-3.465 0V9.273l.171-.171c.767-.767.512-2.046.512-2.046s-1.279-.256-2.046.512l-.894.894h-.997a3.98 3.98 0 0 0-3.978 3.978h2.893v3.254c0 .476.096.93.27 1.343l-.993.827h-1.447v-1.447h-1.446v2.893h6.509v2.893h-1.447v1.447h2.893v-2.893l1.326-1.591h3.134l1.326 1.59v1.447h-1.446v1.447h5.785v-7.956a2.17 2.17 0 0 1 2.262-2.167A2.893 2.893 0 0 1 33.9 9.913m-7.812 12.291v-3.037h.12l1.326 1.59v1.447z"/></g><defs><clipPath id="a"><path fill="#fff" d="M0 0h46v30H0z"/></clipPath></defs></svg>