<svg xmlns="http://www.w3.org/2000/svg" fill="none" viewBox="0 0 46 30"><g clip-path="url(#a)"><path fill="#496E2D" d="M46-.334H0v30.667h46z"/><path fill="#FF9811" d="M44.083 9.562h-4.312a1.438 1.438 0 0 0-2.875 0h-4.313c0 .794.692 1.438 1.486 1.438h-.048c0 .794.643 1.437 1.437 1.437 0 .794.644 1.438 1.438 1.438h2.875c.794 0 1.437-.644 1.437-1.438.794 0 1.438-.643 1.438-1.437h-.048c.794 0 1.485-.644 1.485-1.438"/><path fill="#D80027" d="M35.778 15h-5.111v15.333h5.11z"/><path fill="#FF9811" d="M46 15h-5.111v15.333h5.11z"/><path fill="#000" d="M40.889 15h-5.111v15.333h5.11z"/></g><defs><clipPath id="a"><path fill="#fff" d="M0 0h46v30H0z"/></clipPath></defs></svg>