<svg xmlns="http://www.w3.org/2000/svg" fill="none" viewBox="0 0 46 30"><g clip-path="url(#a)"><path fill="#F0F0F0" d="M46-.333H0v30.666h46z"/><path fill="#338AF3" d="M46-.333H0V9.889h46zM46 20.111H0v10.222h46z"/><path fill="#FFDA44" d="M23 11.267a3.733 3.733 0 1 0 0 7.466 3.733 3.733 0 0 0 0-7.466m0 5.866a2.133 2.133 0 1 1 0-4.266 2.133 2.133 0 0 1 0 4.266"/><path fill="#0052B4" d="M24.848 15.533 23 15l-1.847.533-.616 1.067h4.926z"/><path fill="#338AF3" d="m23 12.334-1.232 2.133L23 15l1.232-.533z"/><path fill="#6DA544" d="M21.153 15.533h3.694l-.615-1.066h-2.464z"/></g><defs><clipPath id="a"><path fill="#fff" d="M0 0h46v30H0z"/></clipPath></defs></svg>