<svg xmlns="http://www.w3.org/2000/svg" fill="none" viewBox="0 0 46 30"><g clip-path="url(#a)"><path fill="#D80027" d="M46-.334H0v30.667h46z"/><path fill="#F0F0F0" d="M23 23.624a8.625 8.625 0 1 0 0-17.25 8.625 8.625 0 0 0 0 17.25"/><path fill="#D80027" d="m24.063 11.702 1.48 2.039 2.396-.777-1.482 2.037 1.48 2.04-2.396-.78-1.482 2.037.001-2.52-2.395-.78 2.396-.777z"/><path fill="#D80027" d="M24.96 20.096a5.097 5.097 0 1 1 2.425-9.58 6.273 6.273 0 1 0 0 8.968 5.1 5.1 0 0 1-2.424.612"/></g><defs><clipPath id="a"><path fill="#fff" d="M0 0h46v30H0z"/></clipPath></defs></svg>