<svg xmlns="http://www.w3.org/2000/svg" fill="none" viewBox="0 0 46 30"><g clip-path="url(#a)"><path fill="#0052B4" d="M46-.334H0v30.667h46z"/><path fill="#FFDA44" d="m23 6.374.459 1.412h1.484l-1.201.873.459 1.412L23 9.198l-1.201.873.458-1.412-1.2-.873h1.484zM16.9 8.9l1.324.674 1.05-1.05-.233 1.467 1.323.674-1.466.232-.233 1.467-.674-1.323-1.466.232 1.05-1.05zM14.375 15l1.411-.46v-1.484l.873 1.201 1.412-.459L17.198 15l.873 1.201-1.412-.458-.872 1.2v-1.484zM16.9 21.098l.675-1.323-1.05-1.05 1.467.233.673-1.323.233 1.467 1.466.232-1.323.674.232 1.466-1.05-1.05zM23 23.624l-.46-1.412h-1.484l1.201-.872-.458-1.412 1.2.873 1.202-.873-.459 1.412 1.201.872h-1.485zM29.098 21.098l-1.322-.674-1.05 1.05.232-1.466-1.322-.674 1.466-.232.232-1.467.674 1.323 1.466-.232-1.05 1.05zM31.625 15l-1.412.458v1.485l-.873-1.202-1.412.46.873-1.202-.872-1.2 1.412.458.872-1.2v1.484zM29.098 8.9l-.674 1.323 1.05 1.05-1.466-.232-.674 1.323-.232-1.467-1.466-.232 1.322-.674-.232-1.466 1.05 1.05z"/></g><defs><clipPath id="a"><path fill="#fff" d="M0 0h46v30H0z"/></clipPath></defs></svg>