<svg xmlns="http://www.w3.org/2000/svg" fill="none" viewBox="0 0 46 30"><g clip-path="url(#a)"><path fill="#000" d="M46-.333H0v30.666h46z"/><path fill="#FFDA44" d="M46 4.778H0v5.111h46z"/><path fill="#D80027" d="M46 9.889H0V15h46z"/><path fill="#FFDA44" d="M46 20.111H0v5.111h46z"/><path fill="#D80027" d="M46 25.222H0v5.111h46z"/><path fill="#F0F0F0" d="M23 20.117a5.117 5.117 0 1 0 0-10.234 5.117 5.117 0 0 0 0 10.234"/><path fill="#000" d="M24.874 15.26 23 14.449s.438-1.455.462-1.555a.996.996 0 0 0-.267-.934l.471-.47A1.66 1.66 0 0 0 22.489 11c-.46 0-.877.187-1.178.488l.47.472a1 1 0 0 0-.249.997l-.71.71h1.29s-.533.8-.824 1.458.004 1.461.677 1.76l.389.173.647.608v.667l-.667.667h1.333v-1.333l.609-.609h1.258l.018-.037a1.333 1.333 0 0 0-.677-1.76"/></g><defs><clipPath id="a"><path fill="#fff" d="M0 0h46v30H0z"/></clipPath></defs></svg>