<svg xmlns="http://www.w3.org/2000/svg" fill="none" viewBox="0 0 46 30"><g clip-path="url(#a)"><path fill="#F0F0F0" d="M46-.333H0v30.666h46z"/><path fill="#A2001D" d="M46-.333H0V9.889h46z"/><path fill="#000" d="M46 20.111H0v10.222h46z"/><path fill="#496E2D" d="M19.693 14.108h-2.6380000000000003a1.19 1.19 0 0 1 1.15-.893v-1.784a2.977 2.977 0 0 0-2.973 2.974v1.487h4.461c.164 0 .297.133.297.297v.595h-5.948v1.785h7.733v-2.38a2.084 2.084 0 0 0-2.082-2.081M24.154 16.784v-5.353H22.37v7.138h2.974v-1.785zM30.102 16.784v-5.353h-1.784v5.353h-.595V15h-1.784v3.569h5.353v-1.785z"/></g><defs><clipPath id="a"><path fill="#fff" d="M0 0h46v30H0z"/></clipPath></defs></svg>