<svg xmlns="http://www.w3.org/2000/svg" fill="none" viewBox="0 0 46 30"><g clip-path="url(#a)"><path fill="#F0F0F0" d="M46-.333H0v30.666h46z"/><path fill="#FFDA44" d="M46 21H0v9.333h46z"/><path fill="#496E2D" d="M46-.333H0v9.39h46z"/><path fill="#000" d="M46 10.946H0v8.055h46z"/><path fill="#A2001D" d="M23 15 0 30.334V-.334z"/><path fill="#FFDA44" d="m7.5 9.531 1.357 4.178h4.393L9.696 16.29l1.357 4.178L7.5 17.887l-3.554 2.582 1.357-4.178-3.553-2.582h4.392z"/><path fill="#F0F0F0" d="M11.472 15H3.528v3.646h7.944z"/><path fill="#000" d="m12.977 10.82-1.289-1.289L7.5 13.72 3.312 9.53l-1.29 1.29 4.193 4.184-4.192 4.192 1.289 1.272L7.5 16.288l4.188 4.18 1.29-1.271-4.193-4.192z"/></g><defs><clipPath id="a"><path fill="#fff" d="M0 0h46v30H0z"/></clipPath></defs></svg>