<svg xmlns="http://www.w3.org/2000/svg" fill="none" viewBox="0 0 46 30"><g clip-path="url(#a)"><path fill="#FFDA44" d="M46-.333H0v30.666h46z"/><path fill="#6DA544" d="M46-.333H0V9.89h46z"/><path fill="#D80027" d="M46 20.111H0v10.222h46z"/><path fill="#0052B4" d="M23 22.333a7.333 7.333 0 1 0 0-14.666 7.333 7.333 0 0 0 0 14.666"/><path fill="#FFDA44" d="m22.998 9.322 1.324 4.074h4.29l-3.472 2.518L26.474 20l-3.476-2.53-3.47 2.525 1.328-4.081-3.469-2.518h4.287z"/><path fill="#FFDA44" d="m28.278 16.014-4.2-1.364 2.596-3.573-1.078-.783L23 13.866l-2.595-3.572-1.079.783 2.595 3.573-4.2 1.364.413 1.268 4.2-1.364v4.415h1.333v-4.415l4.2 1.364z"/></g><defs><clipPath id="a"><path fill="#fff" d="M0 0h46v30H0z"/></clipPath></defs></svg>