<svg xmlns="http://www.w3.org/2000/svg" fill="none" viewBox="0 0 64 64"><path fill="currentColor" d="m60.176 36.361.219.008c2.508.177 3.564 3.393 1.542 5.01l-14.09 11.272-.186.137a2.818 2.818 0 0 1-3.775-.577l-.137-.186a2.818 2.818 0 0 1 .578-3.774l7.817-6.254H15.09l-.21-.008a2.818 2.818 0 0 1 .21-5.628h45.087ZM16.34 11.481a2.818 2.818 0 0 1 3.775.577l.137.186a2.818 2.818 0 0 1-.578 3.774l-7.817 6.254H48.91l.21.008a2.818 2.818 0 0 1-.21 5.628H3.824l-.219-.008c-2.508-.177-3.564-3.393-1.542-5.01l14.09-11.272.186-.138Z"/></svg>