<svg xmlns="http://www.w3.org/2000/svg" viewBox="0 0 16 20"><path d="M13 2.5h-1.95A3.17 3.17 0 0 0 8 0a3.18 3.18 0 0 0-3.09 2.5H3A2.5 2.5 0 0 0 .5 5v12.5C.5 18.9 1.6 20 3 20h10a2.5 2.5 0 0 0 2.5-2.5V5c0-1.37-1.13-2.5-2.5-2.5Zm-5-.63c.5 0 .94.43.94.94 0 .55-.43.94-.94.94a.9.9 0 0 1-.94-.94c0-.5.4-.94.94-.94Zm5.63 15.63c0 .35-.32.63-.63.63H3a.62.62 0 0 1-.63-.63V5c0-.31.28-.63.63-.63h.7c-.08.24-.08.43-.08.63v.63c0 .35.28.62.63.62h7.5c.31 0 .63-.27.63-.63V5c0-.2-.04-.4-.12-.63H13c.31 0 .63.32.63.63v12.5Z"/><path d="M8 7.81c.5 0 .94.43.94.94v2.23h2.19c.5 0 .93.43.93.9 0 .5-.43.93-.94.93H8.95v2.23c0 .5-.43.9-.94.9-.55 0-.94-.4-.94-.98v-2.19H4.88c-.55 0-.94-.39-.94-.9 0-.5.39-.93.94-.93h2.18V8.75c0-.5.4-.94.94-.94Z"/></svg>
