<svg width="128" height="128" viewBox="0 0 128 128" fill="currentColor" xmlns="http://www.w3.org/2000/svg"><path fill-rule="evenodd" clip-rule="evenodd" d="M120.248 16.9253L113.944 12L27.7516 122.322L34.0557 127.247L120.248 16.9253ZM89.4545 32.1689C90.6365 32.1689 91.7846 32.2601 92.8972 32.442L82.1836 46.1547C81.1317 46.6085 79.9494 46.7248 78.8018 46.4616C77.0818 46.067 75.6618 44.867 74.9855 43.2398C73.1473 38.8161 70.3018 35.3289 66.2873 32.5779C62.3127 29.8561 57.9964 28.5325 53.0909 28.5325C46.5055 28.5325 41.04 30.7979 36.38 35.4579C31.72 40.1179 29.4545 45.5834 29.4545 52.1689C29.4545 52.647 29.4909 53.3325 29.5545 54.2252C29.7145 56.4816 28.4673 58.6016 26.4164 59.5561C22.9364 61.1761 20.2055 63.5689 18.0655 66.8689C15.9418 70.1452 14.9091 73.6616 14.9091 77.6234C14.9091 83.1779 16.8309 87.7979 20.7818 91.7507C24.7364 95.7016 29.3564 97.6234 34.9091 97.6234H41.9719L33.4719 108.503C25.6033 108.175 18.7444 105.139 13.0691 99.4634C7.05091 93.447 4 86.0979 4 77.6234C4 71.5761 5.65273 65.9616 8.91273 60.9343C11.4636 56.9961 14.6982 53.8089 18.5527 51.4252C18.7273 42.247 22.1273 34.2834 28.6655 27.7434C35.3818 21.0289 43.5982 17.6234 53.0909 17.6234C60.1709 17.6234 66.6836 19.627 72.4509 23.5779C76.4109 26.2907 79.66 29.6143 82.16 33.5034C84.4164 32.6161 86.8527 32.1689 89.4545 32.1689ZM96.7273 97.6234H62.2761L53.753 108.532H96.7273C104.222 108.532 110.707 105.843 116.009 100.542C121.311 95.2398 124 88.7543 124 81.2598C124 74.8943 121.991 69.167 118.024 64.2343C115.455 61.0379 112.402 58.5634 108.911 56.8325C109.271 55.327 109.455 53.7707 109.455 52.1689C109.455 48.1302 108.39 44.4893 106.281 41.2998L98.5072 51.2498C98.5328 51.5486 98.5454 51.8548 98.5454 52.1689C98.5454 53.9489 98.0727 55.5398 97.1 57.0343C96.1291 58.5252 95.9455 60.3943 96.6109 62.047C97.2746 63.6961 98.7018 64.9198 100.435 65.3216C104.131 66.1816 107.104 68.0616 109.522 71.0707C111.922 74.0561 113.091 77.3907 113.091 81.2598C113.091 85.8179 111.524 89.6034 108.296 92.8288C105.071 96.0561 101.285 97.6234 96.7273 97.6234Z" fill="currentColor"/></svg>
