<svg xmlns="http://www.w3.org/2000/svg" fill="none" viewBox="0 0 64 64"><path fill="currentColor" fill-rule="evenodd" d="M49.5 25C54.8036 25 59.1426 29.3875 59.1426 34.75V40.9658C61.4328 41.6971 63 43.8908 63 46.4502V58.1504C62.9998 61.4408 60.4682 64 57.2139 64H41.7861C38.6523 64 36.0002 61.4408 36 58.1504V46.4502C36 43.8908 37.5672 41.6971 39.8574 40.9658V34.75C39.8574 29.3875 44.1964 25 49.5 25ZM49.5 30.8496C47.3304 30.8496 45.6426 32.5563 45.6426 34.75V40.5996H53.3574V34.75C53.3574 32.5563 51.6696 30.8496 49.5 30.8496Z" clip-rule="evenodd"/><path fill="currentColor" d="M32.5 0C48.8223 0 62.166 11.8359 63 26.7188C61.2129 25.5469 59.1875 24.7266 56.9238 24.4922C55.0176 14.0625 45.1289 5.625 32.5 5.625C18.4414 5.625 7.71875 16.0547 7.71875 28.125C7.71875 33.1641 9.50586 37.7344 12.6035 41.6016C14.0332 43.3594 14.2715 45.8203 13.1992 47.8125L11.0547 51.6797L18.084 48.75C19.3945 48.1641 21.0625 48.1641 22.4922 48.75C25.3516 49.9219 28.5684 50.5078 31.9043 50.625C31.0703 52.3828 30.5938 54.375 30.5938 56.25C26.9004 56.0156 23.4453 55.1953 20.2285 53.9062L6.4082 59.7656C5.93164 60 5.57422 60 5.09766 60C3.31055 60 2 58.7109 2 57.0703C2 56.4844 2.11914 56.0156 2.35742 55.5469L8.19531 45.1172C4.26367 40.4297 2 34.4531 2 28.125C2 12.6562 15.7012 1.84648e-07 32.5 0Z"/></svg>
