<svg xmlns="http://www.w3.org/2000/svg" fill="none" viewBox="0 0 64 64"><g fill="#000" clip-path="url(#a)"><path d="M20.823 6c11.394 0 20.789 8.023 20.789 17.875 0 9.953-9.395 17.875-20.79 17.875-1.898 0-3.697-.203-5.496-.61C12.327 43.07 7.93 45 2.433 45c-1 0-1.9-.508-2.2-1.523-.399-.914-.299-1.93.4-2.743.1 0 2.3-2.437 3.899-5.687C1.733 32 .034 28.14.034 23.875.034 14.023 9.329 6 20.823 6Zm-4.398 30.367c1.5.406 2.899.508 4.398.508 8.795 0 15.991-5.79 15.991-13 0-7.11-7.196-13-15.991-13-8.895 0-15.992 5.89-15.992 13 0 3.656 1.7 6.297 3.199 7.82l2.398 2.54-1.599 3.148c-.4.61-.8 1.32-1.2 2.031 1.8-.508 3.5-1.32 5.198-2.437l1.7-1.016 1.898.406Zm27.686-17.265C55.205 19.508 64 27.328 64 36.875c0 4.266-1.799 8.125-4.598 11.172 1.6 3.25 3.798 5.687 3.898 5.687.7.813.8 1.828.4 2.743C63.4 57.492 62.5 58 61.501 58c-5.497 0-9.894-1.93-12.893-3.86-1.799.407-3.598.61-5.397.61-8.196 0-15.292-4.063-18.69-9.953 1.699-.203 3.398-.61 4.897-1.219 2.799 3.86 7.896 6.297 13.793 6.297 1.4 0 2.799-.102 4.298-.508l1.899-.406 1.699 1.016c1.699 1.117 3.398 1.93 5.197 2.437-.4-.71-.8-1.422-1.2-2.031l-1.598-3.149 2.398-2.539c1.5-1.523 3.298-4.164 3.298-7.82 0-6.703-6.396-12.188-14.492-12.898l.1-.102c0-1.625-.3-3.25-.7-4.773Z"/><path d="M19.746 29.73c-.6.61-1.699.61-2.298 0l-3.998-4.062c-.6-.61-.6-1.727 0-2.336.6-.61 1.699-.61 2.299 0l2.898 2.945 7.596-7.82c.6-.61 1.7-.61 2.299 0 .6.61.6 1.727 0 2.336l-8.796 8.938Z"/></g><defs><clipPath id="a"><path fill="#fff" d="M0 0h64v64H0z"/></clipPath></defs></svg>
