<svg viewBox="0 0 39 48" xmlns="http://www.w3.org/2000/svg"><path fill-rule="evenodd" clip-rule="evenodd" d="M34.8 11.3l.7.8H24.3V1l.8.7 9.7 9.7zm-11.3 3.9h13v9.1A15 15 0 0 0 27 21c.2-.1.2-.3.2-.5V19c0-.3 0-.4-.2-.6a.7.7 0 0 0-.5-.2H9.9c-.3 0-.4 0-.6.2l-.2.6v1.5c0 .2 0 .4.2.5.2.2.3.2.6.2h14.4a15 15 0 0 0-6.7 3H10c-.3 0-.4.1-.6.3l-.2.5v1.6c0 .2 0 .4.2.5l.6.2h4.9c-.7 1-1.3 2-1.7 3H9.9c-.3 0-.4.1-.6.3l-.2.5v1.5c0 .2 0 .4.2.6l.6.2h2.3a15.1 15.1 0 0 0 1.3 9H2.3c-.7 0-1.2-.1-1.6-.6-.5-.4-.7-1-.7-1.6v-38c0-.6.2-1 .7-1.5.4-.5 1-.7 1.6-.7h19v12.9c0 .6.2 1.2.6 1.6.4.5 1 .7 1.6.7zm11.3 17.6c.2.1.3.4.3.7 0 .2-.1.5-.3.7l-8.5 8.5a1 1 0 0 1-.7.3 1 1 0 0 1-.7-.3L19.2 37a1 1 0 0 1-.3-.7c0-.3.1-.5.3-.7l1.4-1.4c.2-.2.5-.3.7-.3.3 0 .5 0 .7.3l3.6 3.5 6.4-6.4c.2-.2.4-.3.7-.3.2 0 .5.1.7.3l1.4 1.5zm2.6 9.2c1-1.8 1.6-3.8 1.6-6s-.5-4.2-1.6-6A12 12 0 0 0 21 25.6 12 12 0 0 0 16.6 42 12 12 0 0 0 33 46.4a12 12 0 0 0 4.4-4.4z"/></svg>
