<svg viewBox="0 0 18 19" xmlns="http://www.w3.org/2000/svg"><path d="M3.92334 6.83203h-2.5c-.690235 0-1.25.55859-1.25 1.25V10.582c0 .6903.559765 1.25 1.25 1.25h2.5c.69023 0 1.25-.5597 1.25-1.25V8.08203c0-.69141-.55859-1.25-1.25-1.25Zm-.625 3.125h-1.25v-1.25h1.25v1.25ZM16.4233.582031h-2.5c-.6902 0-1.25.559769-1.25 1.249999v2.5c0 .69024.5598 1.25 1.25 1.25h2.5c.6903 0 1.25-.55976 1.25-1.25v-2.5c0-.69023-.5586-1.249999-1.25-1.249999Zm-.625 3.124999h-1.25v-1.25h1.25v1.25ZM10.1733.582031H7.67334c-.69141 0-1.25.559769-1.25 1.249999v2.5c0 .69024.55977 1.25 1.25 1.25h2.49996c.6903 0 1.25-.55976 1.25-1.25v-2.5c0-.69023-.5586-1.249999-1.25-1.249999ZM9.54834 3.70703h-1.25v-1.25h1.25v1.25Zm-5.625 9.37497h-2.5c-.690235 0-1.25.5598-1.25 1.25v2.5c0 .6903.559765 1.25 1.25 1.25h2.5c.69023 0 1.25-.5597 1.25-1.25v-2.5c0-.6914-.55859-1.25-1.25-1.25Zm-.625 3.125h-1.25v-1.25h1.25v1.25Zm.625-15.624969h-2.5c-.690235 0-1.25.559769-1.25 1.249999v2.5c0 .69024.559765 1.25 1.25 1.25h2.5c.69023 0 1.25-.55976 1.25-1.25v-2.5c0-.69023-.55859-1.249999-1.25-1.249999Zm-.625 3.124999h-1.25v-1.25h1.25v1.25Zm6.87496 3.125H7.67334c-.69141 0-1.25.55859-1.25 1.25V10.582c0 .6903.55977 1.25 1.25 1.25h2.49996c.6903 0 1.25-.5597 1.25-1.25V8.08203c0-.69141-.5586-1.25-1.25-1.25Zm-.62496 3.125h-1.25v-1.25h1.25v1.25ZM16.4233 13.082h-2.5c-.6902 0-1.25.5598-1.25 1.25v2.5c0 .6903.5598 1.25 1.25 1.25h2.5c.6903 0 1.25-.5597 1.25-1.25v-2.5c0-.6914-.5586-1.25-1.25-1.25Zm-.625 3.125h-1.25v-1.25h1.25v1.25Zm-5.625-3.125H7.67334c-.69023 0-1.25.5598-1.25 1.25v2.5c0 .6903.55977 1.25 1.25 1.25h2.49996c.6903 0 1.25-.5597 1.25-1.25v-2.5c0-.6914-.5586-1.25-1.25-1.25Zm-.62496 3.125h-1.25v-1.25h1.25v1.25Zm6.87496-9.37497h-2.5c-.6902 0-1.25.55977-1.25 1.25V10.582c0 .6903.5598 1.25 1.25 1.25h2.5c.6903 0 1.25-.5597 1.25-1.25V8.08203c0-.69141-.5586-1.25-1.25-1.25Zm-.625 3.125h-1.25v-1.25h1.25v1.25Z" fill="currentColor"/></svg>