<svg xmlns="http://www.w3.org/2000/svg" viewBox="5 0 56.638 66"><path fill="currentColor" d="M41.77 1.93C49.45 3.64 55.3 9.08 57.42 16.5c2.38 8.32.91 12.68-1.26 17.51-.47 1.04-1 2.02-1.52 2.97-1.38 2.54-2.81 5.15-3.18 9.3-.5 5.68 1.47 11.22 1.49 11.28.24.65.16 1.38-.21 1.97-.38.59-1 .97-1.69 1.03-15.95 1.46-24.81 2.27-26.58 2.43-.07.01-.14.01-.21.01-.65 0-1.28-.29-1.71-.79-.47-.56-.64-1.32-.46-2.02 0-.01.43-1.77.28-4.8-.05-.92-.12-1.45-.18-1.75-.22-.04-.34-.06-.36-.06-.36-.07-.9-.09-1.52-.11-1.43-.04-3.39-.1-5.86-.79-1.9-.53-4-2.41-4.4-5.4-.2-1.52.12-3.02.4-4.35.11-.52.22-1.02.28-1.46.08-.61.04-1.5-.05-2.32-1.38-.38-2.78-.95-3.53-1.75-2.59-2.78-.15-6.09.9-7.51.19-.26.36-.48.47-.67 1.13-1.89 1.77-3.15 2-3.68-.04-.13-.1-.28-.15-.41-.28-.73-.67-1.72-.66-3 .01-1.89 2.34-8.05 3.11-9.76 1.32-2.89 3.56-6.56 9.35-9.22C27.27.8 34.6.35 41.77 1.93zm-17.72 5.3c-4.41 2.03-6.08 4.68-7.13 7-1.05 2.31-2.64 7.08-2.72 7.99 0 .36.16.78.35 1.27.27.69.61 1.55.48 2.58-.05.4-.15 1.26-2.65 5.45-.2.33-.45.67-.72 1.03-.3.41-.95 1.3-1.12 1.8.53.24 1.65.58 2.59.77.89.18 1.59.88 1.76 1.78.06.31.58 3.11.29 5.18-.08.61-.21 1.21-.34 1.79-.21 1.02-.43 2.06-.34 2.81.16 1.14.91 1.6 1.16 1.67 1.94.54 3.46.59 4.79.63.76.03 1.48.05 2.16.17.19.03.3.05.32.05 3.09.49 3.75 2.4 3.93 5.97.05 1.19.04 2.23-.01 3.09 12.65-1.16 19.67-1.8 21.08-1.93-.62-2.5-1.3-6.4-.94-10.44.45-5.08 2.18-8.26 3.7-11.06.5-.91.98-1.78 1.37-2.66 1.91-4.25 3.01-7.55 1.04-14.44-2.46-8.6-10.04-10.91-12.3-11.41-4.82-1.07-11.76-1.39-16.75.91zm11.44 30.46c.3 0 .54.09.74.29.19.19.29.44.29.73v5.14c0 .3-.1.54-.29.74-.2.19-.44.29-.74.29h-5.14c-.29 0-.54-.1-.73-.29-.2-.2-.29-.44-.29-.74v-5.14c0-.29.09-.54.29-.73.19-.2.44-.29.73-.29h5.14zm5.73-21.77c2.34 1.91 3.51 4.2 3.51 6.88 0 1.07-.16 2.03-.48 2.89-.32.85-.81 1.59-1.46 2.21-.65.62-1.21 1.09-1.67 1.41-.46.32-1.1.71-1.91 1.16-.68.38-1.18.68-1.49.9-.31.21-.59.47-.84.77-.24.3-.36.61-.36.93v1.02c0 .3-.1.55-.29.74-.2.19-.44.29-.74.29h-5.14c-.29 0-.54-.1-.73-.29-.2-.19-.29-.44-.29-.74v-2.18c0-.75.11-1.44.33-2.07.23-.63.49-1.14.77-1.52.29-.39.71-.77 1.26-1.14.54-.38.98-.65 1.31-.82.33-.17.81-.4 1.43-.67 1.13-.54 1.94-1 2.41-1.38.47-.39.7-.91.7-1.58 0-.89-.46-1.66-1.39-2.29-.93-.63-1.96-.95-3.07-.95-1.2 0-2.21.29-3.05.87-.62.43-1.47 1.32-2.56 2.66-.2.26-.46.39-.81.39-.23 0-.43-.07-.61-.19-2.07-1.58-3.23-2.46-3.46-2.64a.954.954 0 01-.39-.64 1 1 0 01.16-.74c2.61-4.1 6.35-6.16 11.2-6.16 2.76 0 5.31.96 7.66 2.88z"/></svg>
