<svg xmlns="http://www.w3.org/2000/svg"  viewBox="0 0 64 64" fill="none">
    <g clip-path="url(#clip0_2574_94)">
        <path fill-rule="evenodd" clip-rule="evenodd" d="M7.8478 6.63647C6.54251 5.61597 4.6571 5.84684 3.63661 7.15212C2.61612 8.4574 2.84698 10.3428 4.15226 11.3633L59.1523 54.3633C60.4575 55.3838 62.343 55.1529 63.3634 53.8477C64.3839 52.5424 64.1531 50.657 62.8478 49.6365L60.4296 47.7459C62.6317 45.7569 64 42.8414 64 39.6562C64 35.929 62.1266 32.5712 59.236 30.635C60.8036 28.8694 61.7559 26.5452 61.7559 23.9995C61.7559 18.4785 57.2773 13.9999 51.7563 13.9999H40.2245C38.5561 13.9999 37.2037 15.3523 37.2037 17.0207V29.5874L7.8478 6.63647ZM44.0574 34.9458L55.4845 43.8797C56.9183 43.1274 57.9584 41.5675 57.9584 39.6562C57.9584 36.9482 55.8706 34.9458 53.5334 34.9458H44.0574ZM43.2453 20.0415H51.7563C53.9406 20.0415 55.7143 21.8152 55.7143 23.9995C55.7143 26.1837 53.9406 27.9575 51.7563 27.9575H43.2453V20.0415Z" fill="currentColor"/>
        <path d="M0.240931 46.246L9.97552 23.3135L14.9034 27.1662L10.2473 38.135H21.618L17.979 29.5707L27.8089 37.256L31.6285 46.245C32.2809 47.7805 31.5651 49.5542 30.0296 50.2066C28.4942 50.8591 26.7205 50.1432 26.0681 48.6077L24.3991 44.68H7.46905L5.80221 48.6067C5.15032 50.1425 3.37693 50.8589 1.84122 50.207C0.305517 49.5551 -0.410957 47.7818 0.240931 46.246Z" fill="currentColor"/>
        <path d="M37.2037 47.4134V44.601L44.6648 50.4342H40.2245C38.5561 50.4342 37.2037 49.0818 37.2037 47.4134Z" fill="currentColor"/>
    </g>
</svg>
