<svg xmlns="http://www.w3.org/2000/svg" viewBox="0 0 64 37" fill="none">
    <path fill-rule="evenodd" clip-rule="evenodd" d="M15.9279 4.95849e-08C17.1399 -0.000218791 18.2347 0.723966 18.7086 1.83944L31.6285 32.2452C32.2809 33.7806 31.5651 35.5543 30.0296 36.2067C28.4942 36.8592 26.7205 36.1433 26.0681 34.6079L24.3991 30.6801H7.46905L5.80221 34.6069C5.15032 36.1426 3.37693 36.859 1.84122 36.2071C0.305517 35.5553 -0.410957 33.7819 0.240931 32.2462L13.1478 1.84044C13.6214 0.7248 14.7159 0.000219338 15.9279 4.95849e-08ZM15.9298 10.7484L21.618 24.1351H10.2473L15.9298 10.7484Z" fill="currentColor"/>
    <path fill-rule="evenodd" clip-rule="evenodd" d="M40.2245 4.95849e-08C38.5561 4.95849e-08 37.2037 1.35245 37.2037 3.02079V33.4135C37.2037 35.0819 38.5561 36.4343 40.2245 36.4343H51.4969C51.6322 36.4343 51.7654 36.4254 51.8959 36.4082H53.5334C59.4204 36.4082 64 31.4837 64 25.6563C64 21.9291 62.1266 18.5714 59.236 16.6351C60.8036 14.8695 61.7559 12.5453 61.7559 9.99958C61.7559 4.47864 57.2773 4.95849e-08 51.7563 4.95849e-08H40.2245ZM53.5334 30.3666H43.2453V20.9459H53.5334C55.8706 20.9459 57.9584 22.9483 57.9584 25.6563C57.9584 28.3642 55.8706 30.3666 53.5334 30.3666ZM51.7563 6.04158H43.2453V13.9576H51.7563C53.9406 13.9576 55.7143 12.1838 55.7143 9.99958C55.7143 7.81531 53.9406 6.04158 51.7563 6.04158Z" fill="currentColor"/>
</svg>
