<svg viewBox="0 0 21 20" fill="none" xmlns="http://www.w3.org/2000/svg">
    <path d="M2.86904 12.6012C3.06279 12.4074 3.38154 12.4074 3.57529 12.6012L5.07529 14.1012C5.16904 14.1949 5.22217 14.323 5.22217 14.4543V14.498C5.22217 14.773 4.99717 14.998 4.72217 14.998H3.98779C4.11279 16.123 5.06592 16.998 6.22217 16.998C6.79404 16.998 7.31592 16.7824 7.71592 16.4293L8.78154 17.4918C8.11279 18.1168 7.21279 18.498 6.22529 18.498C4.23779 18.498 2.61279 16.9512 2.48467 14.998H1.72217C1.44717 14.998 1.22217 14.773 1.22217 14.498V14.4543C1.22217 14.323 1.27529 14.1949 1.36904 14.1012L2.86904 12.6012ZM6.95967 2.44492C7.74404 1.8043 8.90342 1.85117 9.63779 2.58242L17.6378 10.5824L17.7753 10.7324C18.4159 11.5168 18.369 12.6762 17.6378 13.4105L13.6378 17.4105L13.494 17.5387C12.8097 18.1043 11.8378 18.1449 11.1128 17.6605L10.9628 17.548L10.8128 17.4105L2.81279 9.41055C2.08154 8.6793 2.03467 7.51992 2.67529 6.73242L2.81279 6.58242L6.81279 2.58242L6.96279 2.44492H6.95967ZM8.57529 3.6418C8.39717 3.46367 8.11279 3.44805 7.91904 3.59805L7.84717 3.66055L3.86592 7.6418C3.67217 7.83555 3.67217 8.1543 3.86592 8.34805L11.8472 16.3293L11.9159 16.3918C12.1097 16.5418 12.394 16.5293 12.5753 16.3512L16.5753 12.3512L16.6378 12.2793C16.7565 12.1012 16.7503 11.8668 16.6222 11.698L16.5503 11.6168L8.57842 3.64492L8.57529 3.6418ZM13.4972 11.6668C13.7909 11.4262 14.2253 11.4449 14.5003 11.7199C14.7753 11.9949 14.7909 12.4293 14.5534 12.723L14.5003 12.7793L13.0003 14.2793C12.7065 14.573 12.2315 14.573 11.9409 14.2793C11.6503 13.9855 11.6472 13.5105 11.9409 13.2199L13.4409 11.7199L13.4972 11.6668ZM14.2222 1.49805C16.2097 1.49805 17.8347 3.04492 17.9628 4.99805H18.7222C18.9972 4.99805 19.2222 5.22305 19.2222 5.49805V5.5418C19.2222 5.67305 19.169 5.80117 19.0753 5.89492L17.5753 7.39492C17.3815 7.58867 17.0628 7.58867 16.869 7.39492L15.369 5.89492C15.2753 5.80117 15.2222 5.67305 15.2222 5.5418V5.49805C15.2222 5.22305 15.4472 4.99805 15.7222 4.99805H16.4565C16.3315 3.87305 15.3784 2.99805 14.2222 2.99805C13.6503 2.99805 13.1284 3.21367 12.7284 3.5668L11.6628 2.5043C12.3347 1.88242 13.2347 1.49805 14.2222 1.49805Z" fill="currentColor" />
</svg>
