<svg xmlns="http://www.w3.org/2000/svg"  viewBox="0 0 64 64" fill="none">
    <path d="M22 14H8C6.875 14 6 15 6 16V48C6 49.125 6.875 50 8 50H22C23 50 24 49.125 24 48V16C24 15 23 14 22 14ZM8 8H22C26.375 8 30 11.625 30 16V48C30 52.5 26.375 56 22 56H8C3.5 56 0 52.5 0 48V16C0 11.625 3.5 8 8 8Z" fill="currentColor"/>
    <path d="M56 14H42C40.875 14 40 15 40 16V48C40 49.125 40.875 50 42 50H56C57 50 58 49.125 58 48V16C58 15 57 14 56 14ZM42 8H56C60.375 8 64 11.625 64 16V48C64 52.5 60.375 56 56 56H42C37.5 56 34 52.5 34 48V16C34 11.625 37.5 8 42 8Z" fill="currentColor"/>
</svg>
