<svg viewBox="0 0 64 64" xmlns="http://www.w3.org/2000/svg">
    <path d="M53 17C53 15.375 51.625 14 50 14H44C42.25 14 41 15.375 41 17C41 18.75 42.25 20 44 20H50C51.625 20 53 18.75 53 17Z" />
    <path d="M50 26H44C42.25 26 41 27.375 41 29C41 30.75 42.25 32 44 32H50C51.625 32 53 30.75 53 29C53 27.375 51.625 26 50 26Z" />
    <path d="M50 38C51.625 38 53 39.375 53 41C53 42.75 51.625 44 50 44H44C42.25 44 41 42.75 41 41C41 39.375 42.25 38 44 38H50Z" />
    <path fill-rule="evenodd" clip-rule="evenodd" d="M8 4C3.58172 4 0 7.58172 0 12V52C0 56.4183 3.58172 60 8 60H56C60.5 60 64 56.5 64 52V12C64 7.625 60.5 4 56 4H8ZM36 10V54H56C57.125 54 58 53.125 58 52V12C58 11 57.125 10 56 10H36Z" />
</svg>