<svg viewBox="0 0 64 64" xmlns="http://www.w3.org/2000/svg">
    <path d="M17.5 22.0667C13.125 22.0667 9.25 25.0667 8 29.0667H3C1.375 29.0667 0 30.4417 0 32.0667C0 33.8167 1.375 35.0667 3 35.0667H8C9.25 39.1917 13.125 42.0667 17.5 42.0667C22 42.0667 25.875 39.1917 27.125 35.0667H32C33.75 35.0667 35 33.8167 35 32.0667C35 30.4417 33.75 29.0667 32 29.0667H27.125C25.875 25.0667 22 22.0667 17.5 22.0667ZM13.5 32.0667C13.5 29.9417 15.375 28.0667 17.5 28.0667C19.75 28.0667 21.5 29.9417 21.5 32.0667C21.5 34.3167 19.75 36.0667 17.5 36.0667C15.375 36.0667 13.5 34.3167 13.5 32.0667ZM3 9.06665C1.375 9.06665 0 10.4417 0 12.0667C0 13.8167 1.375 15.0667 3 15.0667H30.5C31.75 19.1917 35.625 22.0667 40 22.0667C44.5 22.0667 48.375 19.1917 49.625 15.0667H61C62.75 15.0667 64 13.8167 64 12.0667C64 10.4417 62.75 9.06665 61 9.06665H49.625C48.375 5.06665 44.5 2.06665 40 2.06665C35.625 2.06665 31.75 5.06665 30.5 9.06665H3ZM44 12.0667C44 14.3167 42.25 16.0667 40 16.0667C37.875 16.0667 36 14.3167 36 12.0667C36 9.94165 37.875 8.06665 40 8.06665C42.25 8.06665 44 9.94165 44 12.0667Z" fill="currentColor"/>
    <path fill-rule="evenodd" clip-rule="evenodd" d="M0 52C0 50.3431 1.34315 49 3 49H28C29.6569 49 31 50.3431 31 52C31 53.6569 29.6569 55 28 55H3C1.34315 55 0 53.6569 0 52Z" fill="currentColor"/>
    <path fill-rule="evenodd" clip-rule="evenodd" d="M59.3272 34.772C54.7825 28.5167 46.0273 27.13 39.772 31.6748C33.5167 36.2195 32.13 44.9747 36.6748 51.23C40.6142 56.6522 47.7173 58.4163 53.6135 55.83L58.5052 62.5629C59.4791 63.9033 61.3552 64.2005 62.6956 63.2266C64.036 62.2527 64.3332 60.3766 63.3593 59.0362L58.4676 52.3033C62.7494 47.4949 63.2667 40.1943 59.3272 34.772ZM43.2987 36.5289C46.8732 33.9319 51.8761 34.7243 54.4731 38.2988C57.0701 41.8732 56.2777 46.8762 52.7033 49.4732C49.1288 52.0702 44.1259 51.2778 41.5289 47.7033C38.9319 44.1289 39.7243 39.1259 43.2987 36.5289Z" fill="currentColor"/>
</svg>
